<svg width="64" height="64" viewBox="0 0 64 64" fill="none" xmlns="http://www.w3.org/2000/svg">
<path fill-rule="evenodd" clip-rule="evenodd" d="M13.3281 31.2192C20.689 31.2192 26.6562 37.1882 26.6562 44.5514C26.6562 51.9146 20.689 57.8837 13.3281 57.8837C5.9672 57.8837 0 51.9146 0 44.5514C0 37.1882 5.9672 31.2192 13.3281 31.2192ZM53.9294 44.9706C58.2222 44.9706 61.7019 48.4514 61.7019 52.7455C61.7019 57.0395 58.2222 60.5204 53.9294 60.5204C49.6368 60.5204 46.1569 57.0395 46.1569 52.7455C46.1569 48.4514 49.6368 44.9706 53.9294 44.9706ZM13.5384 5.30791C17.8311 5.30791 21.3109 8.7889 21.3109 13.0828C21.3109 17.3769 17.8311 20.8577 13.5384 20.8577C9.24569 20.8577 5.76592 17.3769 5.76592 13.0828C5.76592 8.7889 9.24569 5.30791 13.5384 5.30791ZM12.8321 13.0828C11.2202 13.0828 9.90553 13.9896 9.90553 15.1013V16.7836H17.1714V15.1014C17.1714 13.9897 15.8568 13.083 14.2448 13.083L12.8321 13.0828ZM13.5384 8.63148C12.3851 8.63148 11.4502 9.56666 11.4502 10.7203C11.4502 11.874 12.3851 12.8093 13.5384 12.8093C14.6917 12.8093 15.6267 11.8741 15.6267 10.7203C15.6267 9.56666 14.6917 8.63148 13.5384 8.63148ZM61.647 8.0305C65.2248 12.9602 64.1303 19.8576 59.202 23.4367C54.2739 27.0156 47.3784 25.9207 43.8006 20.991C40.2228 16.0613 41.3174 9.16384 46.2454 5.58478C51.1739 2.00571 58.0692 3.10069 61.647 8.0305ZM51.6861 14.9937C49.3177 14.9937 47.3861 16.326 47.3861 17.9594V20.4312H58.0617V17.9594C58.0617 16.326 56.13 14.9937 53.7617 14.9937H51.6861ZM52.7239 8.4535C51.0294 8.4535 49.6557 9.8276 49.6557 11.5226C49.6557 13.2177 51.0294 14.5918 52.7239 14.5918C54.4184 14.5918 55.7921 13.2177 55.7921 11.5226C55.7921 9.8276 54.4184 8.4535 52.7239 8.4535ZM53.2232 53.1207C51.6113 53.1207 50.2965 54.0275 50.2965 55.1393V56.8215H57.5625V55.1393C57.5625 54.0275 56.2477 53.1207 54.6357 53.1207H53.2232ZM53.9294 48.6694C52.7761 48.6694 51.8413 49.6045 51.8413 50.7582C51.8413 51.9118 52.7761 52.847 53.9294 52.847C55.0827 52.847 56.0176 51.9118 56.0176 50.7582C56.0177 49.6045 55.0827 48.6694 53.9294 48.6694ZM44.9015 51.5897L27.5252 48.206C27.6344 47.7804 27.7241 47.3471 27.7951 46.9074L45.1642 50.2898C45.0464 50.7115 44.9577 51.1455 44.9015 51.5897ZM14.2 22.1622V29.9172L12.877 29.8982V22.1622H14.2ZM44.0542 23.317C43.7405 23.0072 43.4406 22.6779 43.1563 22.3297L24.9163 35.576C25.187 35.9252 25.4428 36.2865 25.6817 36.6597L44.0542 23.317ZM15.893 44.5002C15.4481 45.1422 14.7577 45.5382 13.9638 45.5382H7.24694C3.98132 45.5382 3.98132 39.7542 7.24694 39.7542H13.9638C14.9137 39.7542 15.7585 40.3111 16.152 41.1568C16.3067 41.4893 16.7016 41.6333 17.034 41.4786C17.3664 41.3238 17.5103 40.9288 17.3556 40.5964C16.7478 39.2899 15.4266 38.4255 13.9638 38.4255H7.24694C2.2206 38.4255 2.2206 46.8667 7.24694 46.8667H13.9638C15.1861 46.8667 16.2963 46.2447 16.9824 45.2526C17.1901 44.9517 17.1146 44.5392 16.8137 44.3315C16.5129 44.1238 16.1007 44.1993 15.893 44.5002ZM10.6958 44.6248C11.1392 43.9726 11.8861 43.5645 12.6926 43.5645H19.4094C22.6752 43.5645 22.675 49.3485 19.4094 49.3485H12.6926C11.7177 49.3485 10.8593 48.7674 10.4775 47.8901C10.3314 47.5547 9.94122 47.4014 9.60593 47.5476C9.27077 47.6937 9.11738 48.084 9.26347 48.4194C9.85153 49.7707 11.1979 50.677 12.6924 50.677H19.4093C24.4356 50.677 24.4356 42.2358 19.4093 42.2358H12.6924C11.4413 42.2358 10.2942 42.8613 9.60102 43.8826C9.39615 44.185 9.4751 44.5963 9.77735 44.8012C10.0799 45.0061 10.4909 44.9272 10.6958 44.6248Z" fill="#1B4671"/>
</svg>
