<svg width="61" height="61" viewBox="0 0 61 61" fill="none" xmlns="http://www.w3.org/2000/svg">
<path d="M30.5108 0.00683626C18.307 0.00505747 7.27743 7.27944 2.47405 18.4982L2.0939 18.6242L2.24128 19.0664C-4.0831 34.6646 3.43473 52.4365 19.033 58.7609C22.6761 60.238 26.5705 60.9963 30.5018 60.9941C47.3429 60.9967 60.9975 47.3462 61 30.5051C61.0025 13.6639 47.3521 0.00925034 30.5108 0.00683626ZM54.4296 45.8749L52.8638 44.31V40.665C52.8656 40.5077 52.8307 40.3522 52.7621 40.2107L48.798 32.2935V28.4676C48.798 28.1278 48.6283 27.8104 48.3456 27.6219L45.2963 25.589C45.0573 25.4294 44.7619 25.3784 44.4831 25.4487L40.7487 26.3818L34.4761 23.6902L33.6131 17.6444L36.0049 15.2537H41.139L42.867 17.8507C43.023 18.0842 43.2688 18.2429 43.5459 18.2888L49.6447 19.3053C49.8081 19.3327 49.9755 19.3194 50.1326 19.2666L55.7495 17.3943C60.4606 26.435 59.9567 37.3087 54.4296 45.8749ZM50.2373 10.023L48.5845 11.1248L43.9769 10.2029L40.9875 9.20779C40.8046 9.14566 40.6076 9.13778 40.4203 9.18542L36.6412 10.1297L34.9843 9.57778L36.2122 7.12202H39.6499C39.8075 7.12215 39.9631 7.08568 40.1042 7.01529L43.6212 5.25683C46.0431 6.52104 48.2712 8.12603 50.2373 10.023ZM19.3685 4.30949L21.808 5.93582C21.928 6.01561 22.0634 6.06897 22.2055 6.09235L27.1312 6.91365L26.6504 8.35193L24.0839 9.2088C23.854 9.28529 23.659 9.44132 23.534 9.64893L20.6147 14.5137L15.9258 17.3272L9.01392 18.3142C8.51294 18.385 8.1404 18.8135 8.13977 19.3195V22.3688C8.13977 22.6385 8.247 22.8969 8.43759 23.0875L10.1727 24.8226V26.5688L5.94423 23.7492L4.4104 19.1477C7.32864 12.4798 12.6774 7.17386 19.3685 4.30949ZM16.4747 37.636L11.8803 36.7161L10.1727 33.31V30.9213L13.96 27.134L15.3617 29.9384C15.5338 30.283 15.8862 30.5006 16.2714 30.5005H22.8113L25.5649 35.0898C25.7486 35.3956 26.0792 35.5826 26.436 35.5828H29.2617L28.5502 39.1475L24.7019 42.9958C24.5109 43.1862 24.4034 43.4447 24.403 43.7144V46.2555L20.7438 49C20.4879 49.1919 20.3372 49.4932 20.3372 49.8131V53.4846L19.0728 53.0658L17.2879 48.6015V38.6321C17.288 38.1491 16.948 37.7326 16.4747 37.636ZM13.4192 53.2616C3.83546 46.0716 -0.217523 33.6484 3.28213 22.1899L4.1268 24.723C4.19796 24.9373 4.33848 25.1219 4.52627 25.2474L9.5933 28.6251L8.43759 29.7818C8.247 29.9724 8.13977 30.2309 8.13977 30.5005V33.5499C8.13964 33.7075 8.17611 33.863 8.2465 34.0042L10.2794 38.07C10.4202 38.3508 10.6828 38.5508 10.9909 38.6118L15.26 39.4646V48.7967C15.2599 48.9258 15.2844 49.0538 15.3322 49.1738L17.3651 54.2561C17.4764 54.5337 17.7044 54.7483 17.9882 54.8425L21.0376 55.859C21.1395 55.8936 21.2462 55.9114 21.3537 55.9119C21.915 55.9119 22.3701 55.4567 22.3701 54.8954V50.3214L26.0294 47.5769C26.2853 47.3849 26.436 47.0837 26.436 46.7638V44.1352L30.204 40.3672C30.3456 40.2253 30.4422 40.0445 30.4814 39.8478L31.4979 34.7655C31.6079 34.215 31.2509 33.6796 30.7004 33.5695C30.6349 33.5565 30.5685 33.5499 30.5018 33.5499H27.0113L24.2577 28.9606C24.074 28.6547 23.7434 28.4677 23.3866 28.4676H16.8996L15.1533 24.9639C15.0071 24.6714 14.7291 24.4671 14.4062 24.415C14.0835 24.3592 13.754 24.4657 13.5249 24.6996L12.2056 26.0139V24.4018C12.2056 24.1321 12.0984 23.8737 11.9078 23.6831L10.1727 21.948V20.2007L16.4157 19.3093C16.5498 19.2899 16.6788 19.2439 16.7949 19.1741L21.8772 16.1248C22.0197 16.0391 22.1391 15.9197 22.2248 15.7771L25.081 11.0171L27.7736 10.1185C28.0777 10.0188 28.3163 9.7803 28.416 9.47613L29.4325 6.42677C29.6086 5.89376 29.3193 5.31883 28.7863 5.14273C28.7371 5.12647 28.6866 5.11401 28.6356 5.10537L22.7523 4.1245L21.7186 3.43534C28.115 1.35339 35.0429 1.61106 41.267 4.1621L39.41 5.08911H35.584C35.1969 5.08695 34.8423 5.30498 34.6692 5.65121L32.6363 9.71703C32.3859 10.2194 32.5901 10.8298 33.0925 11.0802C33.1353 11.1016 33.1795 11.1199 33.2249 11.135L36.2742 12.1514C36.4572 12.2136 36.6541 12.2214 36.8414 12.1738L40.6206 11.2295L43.3894 12.1514C43.4291 12.1657 43.4698 12.1766 43.5114 12.184L48.5937 13.2004C48.8579 13.2543 49.1329 13.2002 49.357 13.05L51.6705 11.507C52.809 12.7752 53.8322 14.1423 54.728 15.5921L49.727 17.2591L44.3124 16.3565L42.5234 13.6731C42.3358 13.3919 42.0208 13.2224 41.6828 13.2208H35.584C35.3144 13.2208 35.056 13.328 34.8654 13.5186L31.8161 16.5679C31.5896 16.7942 31.483 17.114 31.5284 17.4309L32.5449 24.5461C32.5961 24.8979 32.8273 25.1974 33.1547 25.3359L40.2699 28.3852C40.4737 28.4735 40.7011 28.4917 40.9164 28.4371L44.5461 27.5294L46.7651 29.0114V32.5334C46.7633 32.6907 46.7981 32.8462 46.8667 32.9878L50.8309 40.9049V44.7309C50.8309 45.0005 50.9381 45.2589 51.1287 45.4495L53.2551 47.5769C43.8246 60.147 25.9894 62.6922 13.4192 53.2616Z" fill="#B6CB23"/>
</svg>
