<svg width="98" height="88" viewBox="0 0 98 88" fill="none" xmlns="http://www.w3.org/2000/svg">
<path d="M19.0629 38.826C44.3676 29.267 53.9049 17.8726 57.4234 11.4802L57.6892 10.9974L57.1827 10.7798L53.915 9.37565C53.3967 9.15299 53.3525 8.43239 53.853 8.15435L66.4256 1.16998L66.4257 1.16994C66.816 0.953032 67.3044 1.16285 67.4158 1.59543L67.4158 1.5955L71.0031 15.5234C71.1459 16.0779 70.5924 16.5418 70.0743 16.3188L70.074 16.3186L66.1447 14.6303L65.7921 14.4789L65.5546 14.7802C57.058 25.5577 43.4095 37.7302 19.0629 38.826ZM79.3074 27.3343V26.8343H78.8074H75.2799C74.5147 26.8343 74.0877 25.9569 74.5602 25.3546L74.1668 25.046L74.5602 25.3545L83.1749 14.371L82.7814 14.0624L83.1749 14.3709C84.1073 13.1821 85.9089 13.182 86.8415 14.371L95.4562 25.3545C95.9286 25.9568 95.5016 26.8343 94.7363 26.8343H91.2088H90.7088V27.3343V74.0692C90.7088 74.4386 90.4063 74.7411 90.0369 74.7411H79.9793C79.6099 74.7411 79.3074 74.4386 79.3074 74.0692V27.3343ZM5.16289 82.4139V82.9139H5.66289H94.8385C95.9438 82.9139 96.8398 83.8099 96.8398 84.9151C96.8398 86.0204 95.9438 86.9165 94.8385 86.9165H3.16152C2.05622 86.9165 1.16016 86.0204 1.16016 84.9151V6.13817C1.16016 5.03286 2.05622 4.1368 3.16152 4.1368C4.26683 4.1368 5.16289 5.03286 5.16289 6.13817V82.4139ZM57.3166 37.6671C57.3166 37.2977 57.6191 36.9952 57.9885 36.9952H68.0461C68.4155 36.9952 68.718 37.2977 68.718 37.6671V74.0694C68.718 74.4388 68.4155 74.7413 68.0461 74.7413H57.9885C57.6191 74.7413 57.3166 74.4388 57.3166 74.0694V37.6671ZM35.326 46.8278C35.326 46.4585 35.6285 46.1559 35.9979 46.1559H46.0555C46.4248 46.1559 46.7273 46.4586 46.7273 46.8278V74.0694C46.7273 74.4388 46.4248 74.7413 46.0555 74.7413H35.9979C35.6285 74.7413 35.326 74.4388 35.326 74.0694V46.8278ZM24.065 74.7411H14.0074C13.6381 74.7411 13.3355 74.4386 13.3355 74.0692V55.9886C13.3355 55.6192 13.6381 55.3167 14.0074 55.3167H24.065C24.4344 55.3167 24.7369 55.6192 24.7369 55.9886V74.0692C24.7369 74.4386 24.4344 74.7411 24.065 74.7411Z" fill="#1B4671" stroke="#EFF5FB"/>
</svg>
