<svg width="66" height="60" viewBox="0 0 66 60" fill="none" xmlns="http://www.w3.org/2000/svg">
<path d="M65.2663 19.8965C65.2736 17.4233 64.7903 14.9732 63.8442 12.6881C62.8982 10.403 61.5083 8.32827 59.755 6.58398C58.013 4.82781 55.9392 3.4356 53.6542 2.48837C51.3691 1.54114 48.9186 1.05781 46.445 1.06648C41.6019 1.05758 36.9443 2.92799 33.4525 6.28398L33.1412 5.96898C29.4062 2.23523 24.48 0.177734 19.27 0.177734C14.2762 0.177734 9.60874 2.09648 6.12374 5.58273C-1.21126 12.9302 -1.03751 25.049 6.51124 32.5977L7.33749 33.424C6.91249 34.2015 6.78749 35.169 6.99749 36.1915C7.24624 37.3977 7.93374 38.604 8.94499 39.599C10.1725 40.8065 11.6825 41.5015 13.1162 41.549C13.1275 41.7915 13.1387 42.034 13.19 42.2852C13.4387 43.4915 14.1262 44.6977 15.1262 45.6815C16.3525 46.889 17.8637 47.5827 19.2975 47.6302C19.3087 47.8727 19.32 48.1152 19.3712 48.3677C19.62 49.574 20.3075 50.7802 21.3075 51.764C22.535 52.9715 24.045 53.6652 25.4775 53.7127C25.4887 53.9552 25.5 54.199 25.5512 54.4502C25.8 55.6552 26.4875 56.8615 27.4987 57.8577C28.77 59.1077 30.3462 59.824 31.8237 59.824C32.8537 59.824 33.7437 59.474 34.395 58.8115L40.58 52.5252C40.8434 52.2467 41.0554 51.9238 41.2062 51.5715C42.3903 51.4012 43.4868 50.8501 44.33 50.0015C45.5875 48.7452 46.1 47.0327 45.915 45.384C46.1275 45.4077 46.34 45.4452 46.5537 45.4452C47.2944 45.4466 48.028 45.3016 48.7125 45.0187C49.397 44.7357 50.0189 44.3204 50.5425 43.7965C51.8037 42.5352 52.3175 40.8215 52.1312 39.1727C52.3412 39.1965 52.5487 39.234 52.7637 39.234C53.506 39.2357 54.2412 39.0904 54.9269 38.8063C55.6126 38.5222 56.2352 38.1051 56.7587 37.579C57.5568 36.7838 58.0969 35.7667 58.3088 34.6602L59.755 33.2152C61.5081 31.4695 62.8977 29.3936 63.8437 27.1075C64.7897 24.8214 65.2732 22.3705 65.2663 19.8965ZM46.445 3.56648C48.5898 3.55884 50.7148 3.97783 52.6961 4.7991C54.6775 5.62036 56.4758 6.82749 57.9862 8.35023C59.507 9.86311 60.7126 11.6626 61.5333 13.6445C62.354 15.6264 62.7735 17.7514 62.7675 19.8965C62.7675 24.2577 61.0712 28.3552 57.9925 31.4377C57.7087 30.7446 57.2892 30.1152 56.7587 29.5865L43.7487 16.579C43.7375 16.5677 43.7237 16.5652 43.7125 16.5552L42.5925 15.4352L43.4925 14.9065C43.7781 14.7379 43.985 14.4628 44.0678 14.1416C44.1505 13.8205 44.1023 13.4796 43.9338 13.194C43.7652 12.9084 43.49 12.7014 43.1689 12.6187C42.8477 12.5359 42.5069 12.5842 42.2212 12.7527L32.2425 18.6227C30.4112 19.684 28.1225 19.5252 26.4975 18.294C26.3878 18.2112 26.2972 18.1058 26.2319 17.9849C26.1666 17.864 26.1281 17.7304 26.1191 17.5932C26.1101 17.4561 26.1307 17.3186 26.1796 17.1902C26.2285 17.0618 26.3045 16.9454 26.4025 16.849L34.89 8.34898C36.4043 6.82768 38.2053 5.6217 40.1887 4.8008C42.172 3.97991 44.2985 3.56038 46.445 3.56648ZM9.44499 35.689C9.39249 35.4365 9.30749 34.809 9.64749 34.464L15.8337 28.1777C16.0487 27.959 16.3812 27.9127 16.6225 27.9127C17.425 27.9127 18.4112 28.3915 19.205 29.174C19.8462 29.8052 20.2987 30.5765 20.445 31.2902C20.4975 31.544 20.5825 32.1715 20.2425 32.5165L14.0575 38.8027C13.8425 39.0215 13.51 39.0677 13.2687 39.0677C12.4662 39.0677 11.4812 38.589 10.6862 37.8065C10.045 37.1752 9.59249 36.404 9.44499 35.689ZM15.6375 41.7815C15.585 41.529 15.5 40.9015 15.84 40.5565L22.025 34.2702C22.24 34.0515 22.5725 34.0052 22.8137 34.0052C23.6162 34.0052 24.6025 34.484 25.385 35.254C26.6437 36.4927 26.9712 38.0402 26.4237 38.599L20.2387 44.884C20.0225 45.104 19.69 45.149 19.45 45.149C18.6475 45.149 17.6625 44.6702 16.8787 43.9002C16.2375 43.2677 15.785 42.4965 15.6375 41.7815ZM22.02 46.6365L28.205 40.3515C28.4212 40.1315 28.7537 40.0865 28.995 40.0865C29.7975 40.0865 30.7825 40.5652 31.565 41.3352C32.8237 42.5727 33.1512 44.1215 32.6037 44.679L26.4187 50.9652C26.2037 51.184 25.8712 51.2302 25.63 51.2302C24.8275 51.2302 23.8412 50.7515 23.0587 49.9815C21.8 48.7415 21.4725 47.194 22.02 46.6365ZM38.7962 50.7702L32.6112 57.0565C32.3962 57.2752 32.0637 57.3215 31.8225 57.3215C31.0187 57.3215 30.0337 56.8427 29.2387 56.0602C28.5975 55.429 28.145 54.6577 27.9987 53.944C27.9462 53.6902 27.8612 53.0627 28.2012 52.7177L34.3862 46.4315C34.6012 46.2127 34.9337 46.1665 35.175 46.1665C35.9775 46.1665 36.9637 46.6452 37.7575 47.4277C39.0162 48.6652 39.3437 50.214 38.7962 50.7702ZM50.535 35.8077L37.5262 22.8002C37.4102 22.6842 37.2724 22.5921 37.1208 22.5293C36.9691 22.4665 36.8066 22.4342 36.6425 22.4342C36.4784 22.4342 36.3158 22.4665 36.1642 22.5293C36.0126 22.5921 35.8748 22.6842 35.7587 22.8002C35.6427 22.9163 35.5506 23.0541 35.4878 23.2057C35.425 23.3573 35.3927 23.5199 35.3927 23.684C35.3927 23.8481 35.425 24.0106 35.4878 24.1623C35.5506 24.3139 35.6427 24.4517 35.7587 24.5677L48.7737 37.5815C49.3675 38.1752 49.6937 38.964 49.6937 39.8027C49.6937 40.6415 49.3662 41.4315 48.7737 42.024C48.1851 42.6104 47.3884 42.9402 46.5575 42.9414C45.7266 42.9426 44.929 42.615 44.3387 42.0302L44.3287 42.0177L31.3162 29.0052C31.1414 28.8301 30.9184 28.7108 30.6756 28.6626C30.4328 28.6144 30.1812 28.6395 29.9527 28.7346C29.7242 28.8297 29.5291 28.9906 29.3921 29.1968C29.2552 29.403 29.1827 29.6452 29.1837 29.8927C29.1837 30.2127 29.3062 30.5327 29.55 30.7765L42.565 43.7915L42.5687 43.7952C43.7812 45.0277 43.78 47.0127 42.555 48.2365C42.2333 48.5592 41.8421 48.8042 41.4112 48.9527C41.1575 47.814 40.5237 46.6402 39.5012 45.6327C38.275 44.4265 36.765 43.7315 35.3325 43.6827C35.2637 42.304 34.5875 40.7977 33.3212 39.5502C32.095 38.344 30.585 37.649 29.1525 37.6015C29.0837 36.2227 28.4075 34.7152 27.1412 33.4677C25.9137 32.2602 24.4037 31.5665 22.97 31.519C22.9587 31.2765 22.9475 31.034 22.8962 30.7815C22.6475 29.5765 21.96 28.3702 20.9487 27.374C19.6775 26.124 18.1025 25.4077 16.625 25.4077C15.5937 25.4077 14.705 25.7577 14.0537 26.4202L9.00374 31.5527L8.27999 30.829C1.70499 24.254 1.53249 13.719 7.89249 7.34773C10.905 4.33523 14.9462 2.67648 19.2712 2.67648C23.8137 2.67648 28.1125 4.47398 31.37 7.73023L31.6712 8.03523L24.6362 15.0802C24.2855 15.429 24.0137 15.8491 23.8394 16.312C23.6651 16.7749 23.5922 17.2699 23.6258 17.7634C23.6593 18.257 23.7985 18.7375 24.0338 19.1726C24.2692 19.6077 24.5953 19.9871 24.99 20.2852C27.4025 22.1127 30.8025 22.3452 33.5037 20.7802L40.3675 16.7427L41.9737 18.349C41.985 18.3602 41.9987 18.3627 42.01 18.3727L54.99 31.3527C55.585 31.949 55.9125 32.739 55.9125 33.5802C55.9125 34.4215 55.585 35.2127 54.99 35.8065C53.8 37.0015 51.725 37.0002 50.535 35.8077Z" fill="#B6CB23"/>
</svg>
