<svg width="64" height="64" viewBox="0 0 64 64" fill="none" xmlns="http://www.w3.org/2000/svg">
<path fill-rule="evenodd" clip-rule="evenodd" d="M5.15875 7.60125H7.69125V10.1737C7.69125 12.53 9.61375 14.4525 11.97 14.4525C14.3263 14.4525 16.2488 12.53 16.2488 10.1737V7.60125H22.9875V10.1737C22.9875 12.53 24.91 14.4525 27.2663 14.4525C29.6225 14.4525 31.545 12.53 31.545 10.1737V7.60125H38.2837V10.1737C38.2837 12.53 40.2062 14.4525 42.5625 14.4525C44.9188 14.4525 46.8413 12.53 46.8413 10.1737V7.60125H49.3737C51.1138 7.60125 52.5325 9.02 52.5325 10.76V16.785H2V10.76C2 9.02 3.41875 7.60125 5.15875 7.60125ZM51.9663 48.215C49.895 48.215 48.2163 49.8937 48.2163 51.965C48.2163 54.0363 49.895 55.715 51.9663 55.715C54.0375 55.715 55.7163 54.0363 55.7163 51.965C55.7163 49.8937 54.0375 48.215 51.9663 48.215ZM53.01 41.9837C53.5325 42.0375 53.9337 42.4437 53.9825 42.9675L54.1175 44.4175C54.1912 45.2087 55.12 45.5887 55.7275 45.0762L56.84 44.1375C57.2412 43.7988 57.8125 43.7913 58.2225 44.1188C58.7887 44.5713 59.305 45.0825 59.7612 45.645C60.0925 46.0525 60.09 46.6238 59.7537 47.0288L58.8237 48.1488C58.3162 48.76 58.7038 49.685 59.4963 49.7525L60.9475 49.8763C61.4712 49.9212 61.88 50.3188 61.9388 50.8413C62.0188 51.5588 62.0212 52.2887 61.9475 53.0075C61.8937 53.53 61.4875 53.9312 60.9637 53.98L59.5137 54.115C58.7225 54.1888 58.3425 55.1175 58.855 55.7238L59.7938 56.8363C60.1325 57.2375 60.14 57.8088 59.8125 58.2188C59.36 58.785 58.8488 59.3013 58.2863 59.7575C57.8787 60.0887 57.3075 60.085 56.9025 59.75L55.7825 58.82C55.1712 58.3125 54.245 58.7 54.1787 59.4925L54.055 60.9437C54.01 61.4675 53.6125 61.8763 53.09 61.935C52.3725 62.015 51.6425 62.0175 50.9238 61.9437C50.4013 61.89 50 61.4837 49.9512 60.96L49.8162 59.51C49.7425 58.7188 48.8137 58.3387 48.2062 58.8512L47.0938 59.79C46.6925 60.1287 46.1213 60.1362 45.7113 59.8088C45.145 59.3563 44.6287 58.845 44.1725 58.2825C43.8413 57.875 43.845 57.3037 44.18 56.8988L45.11 55.7788C45.6175 55.1675 45.23 54.2412 44.4375 54.175L42.9863 54.0513C42.4625 54.0063 42.0537 53.6087 41.995 53.0863C41.915 52.3688 41.9125 51.6387 41.9863 50.92C42.04 50.3975 42.4463 49.9963 42.97 49.9475L44.42 49.8125C45.2112 49.7388 45.5913 48.81 45.0788 48.2038L44.14 47.0913C43.8013 46.69 43.7938 46.1188 44.1213 45.7088C44.5737 45.1425 45.085 44.6262 45.6475 44.17C46.055 43.8387 46.6263 43.8425 47.0312 44.1775L48.1512 45.1075C48.7625 45.615 49.6875 45.2275 49.755 44.435L49.8787 42.9837C49.9237 42.46 50.3213 42.0513 50.8438 41.9925C51.5625 41.9125 52.2912 41.91 53.01 41.9837ZM11.97 2C10.3038 2 8.94125 3.36375 8.94125 5.02875V10.1725C8.94125 11.8387 10.305 13.2025 11.97 13.2025C13.635 13.2025 15 11.8387 15 10.1725V5.02875C15 3.3625 13.6363 2 11.97 2ZM42.5638 2C40.8975 2 39.535 3.36375 39.535 5.02875V10.1725C39.535 11.8387 40.8988 13.2025 42.5638 13.2025C44.2288 13.2025 45.5938 11.8387 45.5938 10.1725V5.02875C45.5938 3.3625 44.23 2 42.5638 2ZM27.2675 2C25.6012 2 24.2388 3.36375 24.2388 5.02875V10.1725C24.2388 11.8387 25.6025 13.2025 27.2675 13.2025C28.9325 13.2025 30.2975 11.8387 30.2975 10.1725V5.02875C30.2975 3.3625 28.9338 2 27.2675 2ZM52.5337 18.035V40.695C51.9237 40.665 51.3113 40.6825 50.705 40.7513C49.59 40.875 48.7275 41.7612 48.6325 42.8787L48.5525 43.8187L47.8275 43.2175C46.965 42.5012 45.7287 42.495 44.8587 43.2012C44.2275 43.7137 43.6512 44.295 43.1437 44.93C42.4437 45.8063 42.4613 47.0413 43.1838 47.8988L43.7912 48.6188L42.8525 48.7062C41.7363 48.81 40.8575 49.6787 40.7425 50.7938C40.6825 51.3713 40.6675 51.9537 40.6963 52.5337H5.15875C3.41875 52.5337 2 51.115 2 49.375V18.035H52.5325H52.5337ZM30.8325 42.2637C30.2525 42.2637 29.78 42.7362 29.78 43.3162V47.27C29.78 47.85 30.2525 48.3225 30.8325 48.3225H34.7863C35.3663 48.3225 35.8387 47.85 35.8387 47.27V43.3162C35.8387 42.7362 35.3663 42.2637 34.7863 42.2637H30.8325ZM30.8325 31.9425C30.2525 31.9425 29.78 32.415 29.78 32.995V36.9487C29.78 37.5288 30.2525 38.0013 30.8325 38.0013H34.7863C35.3663 38.0013 35.8387 37.5288 35.8387 36.9487V32.995C35.8387 32.415 35.3663 31.9425 34.7863 31.9425H30.8325ZM30.8325 21.6213C30.2525 21.6213 29.78 22.0938 29.78 22.6737V26.6275C29.78 27.2075 30.2525 27.68 30.8325 27.68H34.7863C35.3663 27.68 35.8387 27.2075 35.8387 26.6275V22.6737C35.8387 22.0938 35.3663 21.6213 34.7863 21.6213H30.8325ZM41.9162 31.9425C41.3362 31.9425 40.8638 32.415 40.8638 32.995V36.9487C40.8638 37.5288 41.3362 38.0013 41.9162 38.0013H45.87C46.45 38.0013 46.9225 37.5288 46.9225 36.9487V32.995C46.9225 32.415 46.45 31.9425 45.87 31.9425H41.9162ZM19.7475 42.2637C19.1675 42.2637 18.695 42.7362 18.695 43.3162V47.27C18.695 47.85 19.1675 48.3225 19.7475 48.3225H23.7013C24.2812 48.3225 24.7537 47.85 24.7537 47.27V43.3162C24.7537 42.7362 24.2812 42.2637 23.7013 42.2637H19.7475ZM19.7475 31.9425C19.1675 31.9425 18.695 32.415 18.695 32.995V36.9487C18.695 37.5288 19.1675 38.0013 19.7475 38.0013H23.7013C24.2812 38.0013 24.7537 37.5288 24.7537 36.9487V32.995C24.7537 32.415 24.2812 31.9425 23.7013 31.9425H19.7475ZM19.7475 21.6213C19.1675 21.6213 18.695 22.0938 18.695 22.6737V26.6275C18.695 27.2075 19.1675 27.68 19.7475 27.68H23.7013C24.2812 27.68 24.7537 27.2075 24.7537 26.6275V22.6737C24.7537 22.0938 24.2812 21.6213 23.7013 21.6213H19.7475ZM8.66375 42.2637C8.08375 42.2637 7.61125 42.7362 7.61125 43.3162V47.27C7.61125 47.85 8.08375 48.3225 8.66375 48.3225H12.6175C13.1975 48.3225 13.67 47.85 13.67 47.27V43.3162C13.67 42.7362 13.1975 42.2637 12.6175 42.2637H8.66375ZM8.66375 31.9425C8.08375 31.9425 7.61125 32.415 7.61125 32.995V36.9487C7.61125 37.5288 8.08375 38.0013 8.66375 38.0013H12.6175C13.1975 38.0013 13.67 37.5288 13.67 36.9487V32.995C13.67 32.415 13.1975 31.9425 12.6175 31.9425H8.66375ZM41.9162 21.6213C41.3362 21.6213 40.8638 22.0938 40.8638 22.6737V26.6275C40.8638 27.2075 41.3362 27.68 41.9162 27.68H45.87C46.45 27.68 46.9225 27.2075 46.9225 26.6275V22.6737C46.9225 22.0938 46.45 21.6213 45.87 21.6213H41.9162Z" fill="#1B4671"/>
</svg>
