<svg width="64" height="64" viewBox="0 0 64 64" fill="none" xmlns="http://www.w3.org/2000/svg">
<path d="M50.3055 22.9976H15.3076C14.5732 20.3891 15.135 17.5737 16.787 15.4508C17.1119 15.6513 17.4746 15.8016 17.8708 15.8805C19.6499 16.2348 21.3794 15.079 21.7336 13.2992C22.0879 11.5194 20.9321 9.79063 19.1523 9.43635C17.3725 9.08206 15.6438 10.2379 15.2895 12.0176C15.149 12.7227 15.2489 13.4187 15.5278 14.026C13.451 16.5157 12.6523 19.8608 13.3755 23.0172C11.9717 23.1772 10.8809 24.3672 10.8809 25.8137L11.82 29.5683C11.82 31.1238 13.0806 32.3844 14.6361 32.3844H19.6031C19.8819 30.0064 21.7819 28.1602 24.0816 28.1602H39.9216C42.2213 28.1602 44.1212 30.0071 44.4001 32.3844H49.3663C50.9218 32.3844 52.1824 31.1231 52.1824 29.5683L53.1209 25.8137C53.1216 24.2575 51.861 22.9976 50.3055 22.9976Z" fill="#1B4671"/>
<path d="M39.9214 30.0372H24.0814C22.623 30.0372 21.4414 31.3572 21.4414 32.9853L23.1311 59.9416C23.1311 61.5697 24.3127 62.8904 25.7711 62.8904H38.2317C39.6901 62.8904 40.871 61.5697 40.871 59.9416L42.5614 32.9853C42.5614 31.3572 41.3791 30.0372 39.9214 30.0372Z" fill="#1B4671"/>
<path d="M20.0762 21.12H43.9277C43.3247 15.4396 40.2423 18.6079 35.8708 15.2132L33.3433 20.6295L32.6969 18.6547C32.8331 18.5555 32.9233 18.3955 32.9484 18.176L33.4257 17.0384C33.4257 16.7079 33.1357 16.4396 32.7779 16.4396H32.0023H31.2273C30.8703 16.4396 30.5803 16.7079 30.5803 17.0384L31.0575 18.176C31.0827 18.3955 31.1728 18.5548 31.3091 18.6547L30.662 20.6295L28.1345 15.2132C23.7623 18.6079 20.6799 15.4396 20.0762 21.12Z" fill="#1B4671"/>
<path d="M26.7445 10.1093C27.6836 12.6696 29.6947 15.0867 32.0245 15.0867C34.3577 15.0867 36.3695 12.6626 37.3086 10.1002C37.6713 9.99189 38.0515 9.30499 38.2059 8.42732C38.3736 7.47348 38.215 6.64053 37.8495 6.50427C37.8334 6.19471 37.8041 5.88095 37.7608 5.5686C37.614 2.8699 36.7895 1.6638 35.5715 1.12574C34.7092 0.432546 33.5555 0 32.0245 0C30.4976 0 29.3481 0.421366 28.4886 1.09849C27.147 1.6624 26.2693 3.00407 26.219 6.18772C26.2106 6.28904 26.2043 6.38897 26.1987 6.48959C25.8011 6.56716 25.6201 7.43155 25.7955 8.42732C25.9576 9.34691 26.3671 10.0555 26.7445 10.1093Z" fill="#1B4671"/>
</svg>
