<svg width="64" height="64" viewBox="0 0 64 64" fill="none" xmlns="http://www.w3.org/2000/svg">
<path fill-rule="evenodd" clip-rule="evenodd" d="M16.0844 39.7993C16.1425 40.1906 16.1716 40.5907 16.1716 40.9982C16.1716 45.5116 12.5484 49.1761 8.08582 49.1761C3.62327 49.1761 0 45.5116 0 40.9982C0 36.4849 3.62327 32.8203 8.08582 32.8203C11.1084 32.8203 13.7455 34.5004 15.1331 36.988L18.4349 35.28C18.0975 34.0575 17.9185 32.7689 17.9185 31.4375C17.9185 28.0172 19.1069 24.8749 21.0895 22.4123L15.1782 16.4323C14.3375 16.928 13.36 17.2119 12.3185 17.2119C9.17964 17.2119 6.63127 14.6346 6.63127 11.4599C6.63127 8.28527 9.17964 5.70789 12.3185 5.70789C15.4575 5.70789 18.0058 8.28527 18.0058 11.4599C18.0058 12.5147 17.7251 13.5018 17.2349 14.3521L23.1462 20.3307C25.5825 18.327 28.688 17.1237 32.0698 17.1237C35.4531 17.1237 38.5585 18.327 40.9949 20.3307L47.6887 13.5606C46.7098 12.1601 46.1353 10.4507 46.1353 8.60597C46.1353 3.85725 49.9476 0 54.6444 0C59.3411 0 63.1535 3.85725 63.1535 8.60597C63.1535 13.3562 59.3411 17.2119 54.6444 17.2119C52.8218 17.2119 51.1316 16.6308 49.7455 15.6423L43.0516 22.4123C45.0342 24.8749 46.2225 28.0172 46.2225 31.4375C46.2225 33.653 45.7236 35.7523 44.8335 37.6264L48.6313 39.3329C50.1804 37.2013 52.6778 35.817 55.4909 35.817C60.1876 35.817 64 39.6727 64 44.4229C64 49.1717 60.1876 53.0289 55.4909 53.0289C50.7942 53.0289 46.9818 49.1717 46.9818 44.4229C46.9818 43.5697 47.1055 42.7473 47.3338 41.9691L43.2945 40.1538C40.9847 43.1902 37.4967 45.2659 33.5244 45.6763V51.5608C35.9607 52.211 37.7571 54.4559 37.7571 57.123C37.7571 60.2976 35.2087 62.875 32.0698 62.875C28.9324 62.875 26.384 60.2976 26.384 57.123C26.384 54.4559 28.1804 52.211 30.6153 51.5608V45.6763C25.776 45.1762 21.6553 42.2031 19.5069 38.0295L16.0844 39.7993Z" fill="#1B4671"/>
</svg>
