<svg width="64" height="64" viewBox="0 0 64 64" fill="none" xmlns="http://www.w3.org/2000/svg">
<g clip-path="url(#clip0_858_2699)">
<path d="M46.5005 27.999C40.4357 27.999 35.5009 32.9338 35.5009 38.9986C35.5009 45.0633 40.4357 49.9981 46.5005 49.9981C52.5652 49.9981 57.5001 45.0633 57.5001 38.9986C57.5001 32.9338 52.5652 27.999 46.5005 27.999ZM51.164 37.2336C47.9665 42.0306 48.8733 40.6706 47.1642 43.2334C46.5503 44.1541 45.3075 44.3983 44.3905 43.7871L41.3907 41.7872C40.4719 41.1747 40.2245 39.9335 40.8369 39.0135C41.4494 38.0948 42.6906 37.8473 43.6106 38.4598L44.9455 39.3498C48.1352 34.5661 47.9637 34.6985 48.5004 34.3925C50.322 33.3388 52.3346 35.4754 51.164 37.2336ZM37.5008 50.9906V61.9977C37.5008 63.53 39.1605 64.4957 40.4932 63.7339L46.5005 60.3015L52.5077 63.7339C53.8351 64.4946 55.5001 63.5343 55.5001 61.9977V50.9906C50.1718 54.9995 42.8367 55.0052 37.5008 50.9906ZM50.5003 24.5416V4.34359C50.5003 1.94868 48.5516 0 46.1567 0H10.8455C8.45063 0 6.50195 1.94868 6.50195 4.34359V50.6544C6.50195 53.0493 8.45063 54.998 10.8455 54.998H33.501C33.501 46.3917 33.4876 46.9244 33.5322 46.5283C26.8372 35.0503 37.4979 20.9307 50.5003 24.5416ZM18.5015 9.99963H35.5009C36.6058 9.99963 37.5008 10.8946 37.5008 11.9996C37.5008 13.1045 36.6058 13.9995 35.5009 13.9995H18.5015C17.3965 13.9995 16.5016 13.1045 16.5016 11.9996C16.5016 10.8946 17.3965 9.99963 18.5015 9.99963ZM28.5011 29.9989H18.5015C17.3965 29.9989 16.5016 29.1039 16.5016 27.999C16.5016 26.894 17.3965 25.999 18.5015 25.999H28.5011C29.6061 25.999 30.5011 26.894 30.5011 27.999C30.5011 29.1039 29.6061 29.9989 28.5011 29.9989ZM18.5015 21.9992C17.3965 21.9992 16.5016 21.1042 16.5016 19.9993C16.5016 18.8943 17.3965 17.9993 18.5015 17.9993H35.5009C36.6058 17.9993 37.5008 18.8943 37.5008 19.9993C37.5008 21.1042 36.6058 21.9992 35.5009 21.9992H18.5015Z" fill="#1B4671"/>
</g>
<defs>
<clipPath id="clip0_858_2699">
<rect width="64" height="64" fill="white"/>
</clipPath>
</defs>
</svg>
