<svg width="64" height="64" viewBox="0 0 64 64" fill="none" xmlns="http://www.w3.org/2000/svg">
<path d="M13.2118 31.7844L15.9106 34.1244L14.6831 36.7769L11.3543 32.7806L13.2118 31.7844ZM4.52309 46.4406H13.6031L15.1081 38.9094C15.0643 38.9194 15.0206 38.9269 14.9756 38.9331C14.8956 38.9431 14.8168 38.9481 14.7381 38.9481C14.2006 38.9481 13.6981 38.7156 13.3518 38.3006C13.3506 38.3006 13.3506 38.3006 13.3506 38.2994L9.81434 34.0531C6.59059 35.2631 4.57684 36.1294 3.85684 37.5069C3.13809 38.8744 2.68434 40.5706 2.03559 43.1819V43.9531C2.03559 45.3244 3.15059 46.4406 4.52309 46.4406ZM19.4618 39.5619L18.8343 40.0969C18.6468 40.2556 18.4156 40.3356 18.1856 40.3356C17.9343 40.3356 17.6831 40.2406 17.4893 40.0531L17.0093 39.5869L15.6418 46.4406H20.8481L19.4618 39.5619ZM19.5543 36.8556L18.6306 34.8606H17.7731L16.9156 36.7106L18.2293 37.9856L19.5543 36.8556ZM25.0481 32.7806L23.1918 31.7844L20.4931 34.1244L21.7206 36.7769L25.0481 32.7806ZM5.35184 19.2706C5.35184 18.8869 5.39934 18.5131 5.49059 18.1556V10.2844C5.49059 4.61439 10.1031 0.00189209 15.7731 0.00189209H20.6206C26.2893 0.00189209 30.9031 4.61439 30.9031 10.2844V18.1606C30.9931 18.5169 31.0406 18.8881 31.0406 19.2706C31.0406 21.4631 29.4931 23.2881 27.4081 23.6956C26.6943 25.4981 25.4656 27.0444 23.9043 28.1494C23.2868 28.5869 22.6168 28.9556 21.9068 29.2431V30.2531L18.8968 32.8631C18.8781 32.8619 18.8606 32.8619 18.8418 32.8619H17.5056L14.4868 30.2444V29.2431C13.7756 28.9556 13.1056 28.5869 12.4881 28.1481C10.9281 27.0431 9.69934 25.4981 8.98559 23.6956C6.89934 23.2881 5.35184 21.4631 5.35184 19.2706ZM8.37184 21.2819C8.32184 20.8831 8.29684 20.4769 8.29684 20.0644V17.3131C7.71809 17.7794 7.35059 18.4944 7.35059 19.2706C7.35059 20.0831 7.75434 20.8194 8.37184 21.2819ZM25.7081 22.5131C25.7168 22.4919 25.7231 22.4706 25.7293 22.4481C25.9693 21.6956 26.0981 20.8944 26.0981 20.0644V15.8356V15.7781V14.1544H23.8406C22.8756 14.1544 22.0906 13.3669 22.0906 12.3994V11.3019C22.0906 11.2406 22.0681 11.2069 22.0131 11.1819C21.9643 11.1606 21.9218 11.1581 21.8656 11.2094L19.6331 13.2506C18.9793 13.8494 18.1968 14.1544 17.3068 14.1544H10.2943V15.7781V15.8356V20.0644C10.2943 20.8944 10.4231 21.6956 10.6631 22.4481C10.6693 22.4706 10.6756 22.4919 10.6843 22.5131C11.2518 24.2544 12.4093 25.7306 13.9206 26.7069C13.9218 26.7069 13.9231 26.7081 13.9256 26.7094C13.9881 26.7394 14.0468 26.7769 14.1018 26.8194C15.2968 27.5469 16.6993 27.9656 18.1968 27.9656C19.6943 27.9656 21.0956 27.5469 22.2906 26.8194C22.2931 26.8181 22.2943 26.8169 22.2968 26.8156C22.3493 26.7744 22.4068 26.7381 22.4668 26.7094C22.4693 26.7081 22.4706 26.7069 22.4718 26.7069C23.9831 25.7306 25.1406 24.2544 25.7081 22.5131ZM29.0418 19.2706C29.0418 18.4944 28.6743 17.7806 28.0968 17.3131V20.0644C28.0968 20.4756 28.0718 20.8819 28.0218 21.2806C28.6381 20.8194 29.0418 20.0831 29.0418 19.2706ZM57.8691 58.5878C58.2768 59.097 58.4531 59.7516 58.3642 60.4316C58.2682 61.1695 57.8718 61.8453 57.2766 62.284C56.6812 62.7228 55.918 62.9005 55.1843 62.7735C54.5086 62.6564 53.9372 62.2939 53.5718 61.7535L46.8245 51.7668H46.8243C46.7942 51.7821 46.7633 51.7965 46.7331 51.8116C46.6617 51.8474 46.5903 51.8828 46.5186 51.9171C46.4916 51.9301 46.4652 51.944 46.4381 51.9568C46.385 51.9818 46.3312 52.0046 46.2778 52.0289C46.2192 52.0554 46.1607 52.0825 46.1018 52.1081C45.9895 52.157 45.8766 52.2035 45.7635 52.2488C45.7335 52.2608 45.7037 52.2738 45.6736 52.2855C45.6705 52.2868 45.6675 52.2881 45.6643 52.2893C45.5931 52.3168 45.5206 52.3443 45.4493 52.3705C45.3706 52.4005 45.2906 52.428 45.2118 52.4555C43.8906 52.9105 42.5181 53.133 41.1518 53.133C37.4668 53.133 33.8256 51.5105 31.3793 48.4393C31.2806 48.3168 31.1843 48.1918 31.0906 48.0643C30.7056 47.5418 30.3668 46.9993 30.0756 46.4405C28.2368 42.9255 28.2256 38.8055 29.8506 35.343C30.1331 34.7418 30.4643 34.1593 30.8456 33.6043C31.6131 32.483 32.5781 31.4705 33.7331 30.6193C35.9568 28.9805 38.5481 28.1918 41.1181 28.1918C44.9506 28.1918 48.7356 29.9468 51.1781 33.2618C53.1556 35.9443 53.9706 39.2368 53.4718 42.5318C53.1818 44.4455 52.4693 46.2268 51.3956 47.7718C51.3468 47.8418 51.2981 47.9105 51.2481 47.9793C51.228 48.0074 51.2057 48.0344 51.1853 48.0623C51.1246 48.1448 51.0627 48.2264 50.9998 48.3074C50.9797 48.3333 50.9611 48.3599 50.9407 48.3855C50.8977 48.4406 50.8542 48.4945 50.81 48.548C50.7948 48.5665 50.7798 48.5853 50.7646 48.6038C50.7382 48.6364 50.7115 48.6695 50.6832 48.7018C50.652 48.7393 50.6195 48.7768 50.587 48.8143C50.5597 48.8456 50.5312 48.8759 50.5036 48.9071C50.4657 48.95 50.4275 48.9926 50.3888 49.035C50.3563 49.0708 50.3248 49.1078 50.292 49.143C50.292 49.143 50.292 49.143 50.2918 49.1431L57.8691 58.5878ZM47.3493 49.0981C48.0981 48.5469 48.7618 47.9094 49.3268 47.2019C49.3281 47.2006 49.3281 47.2006 49.3293 47.1994C49.3393 47.1881 49.3481 47.1769 49.3568 47.1644C49.3668 47.1531 49.3768 47.1406 49.3868 47.1281C49.3868 47.1281 49.3868 47.1281 49.3881 47.1269L49.3893 47.1256L49.3906 47.1244C50.4931 45.7194 51.2206 44.0481 51.4956 42.2319C51.9143 39.4656 51.2306 36.7006 49.5693 34.4481C46.1418 29.7969 39.5693 28.8006 34.9181 32.2281C30.2931 35.6369 29.2831 42.1531 32.6418 46.8006L32.6456 46.8044C32.6693 46.8331 32.6918 46.8644 32.7131 46.8969C32.7131 46.8981 32.7131 46.8994 32.7143 46.8994C34.7668 49.6694 37.9381 51.1356 41.1493 51.1356C43.3081 51.1356 45.4831 50.4731 47.3493 49.0981ZM26.6106 34.0281L23.0531 38.2994C23.0531 38.3006 23.0518 38.3006 23.0518 38.3006C22.7056 38.7156 22.2006 38.9494 21.6693 38.9494C21.5931 38.9494 21.5168 38.9444 21.4406 38.9344C21.4168 38.9306 21.3943 38.9269 21.3706 38.9219L22.8868 46.4406H27.8606C26.2281 42.6819 26.2706 38.3181 28.0093 34.5619C27.5743 34.3919 27.1093 34.2156 26.6106 34.0281ZM49.3718 37.4069C47.5768 32.8656 42.4231 30.6319 37.8806 32.4256C37.8806 32.4256 37.8806 32.4256 37.8793 32.4256C33.3393 34.2256 31.1068 39.3819 32.9043 43.9206C34.2781 47.3944 37.6193 49.5169 41.1493 49.5169C42.2306 49.5169 43.3293 49.3181 44.3943 48.8969C46.5943 48.0281 48.3243 46.3531 49.2643 44.1831C50.2043 42.0131 50.2418 39.6056 49.3718 37.4069ZM58.0018 16.0669H54.0156C51.7918 16.0669 49.9831 17.8756 49.9831 20.0994V24.1356H62.0381V20.0994C62.0381 17.8756 60.2268 16.0669 58.0018 16.0669ZM56.0106 14.0694C58.1693 14.0694 59.9256 12.3106 59.9256 10.1494C59.9256 7.98939 58.1693 6.23064 56.0106 6.23064C53.8493 6.23064 52.0918 7.98939 52.0918 10.1494C52.0918 12.3106 53.8493 14.0694 56.0106 14.0694ZM47.9856 20.0994C47.9856 17.8756 46.1743 16.0669 43.9493 16.0669H39.9631C37.7381 16.0669 35.9268 17.8756 35.9268 20.0994V24.1356H47.9856V20.0994ZM41.9581 14.0694C44.1168 14.0694 45.8731 12.3106 45.8731 10.1494C45.8731 7.98939 44.1168 6.23064 41.9581 6.23064C39.7968 6.23064 38.0393 7.98939 38.0393 10.1494C38.0393 12.3106 39.7968 14.0694 41.9581 14.0694ZM16.6031 54.0631L12.4181 53.5356L10.6218 49.7181C10.5393 49.5431 10.4093 49.3994 10.2531 49.2994C10.0956 49.2006 9.91059 49.1444 9.71684 49.1444C9.32934 49.1444 8.97684 49.3681 8.81309 49.7181L7.01934 53.5356L2.83559 54.0631C2.45184 54.1106 2.12934 54.3769 2.00934 54.7456C1.89059 55.1131 1.99434 55.5181 2.27684 55.7831L5.35184 58.6694L4.55809 62.8106C4.48559 63.1906 4.63934 63.5794 4.95184 63.8069C5.26559 64.0344 5.68184 64.0606 6.02184 63.8731L9.71684 61.8394L13.4131 63.8731C13.5631 63.9569 13.7293 63.9981 13.8943 63.9981C14.1018 63.9981 14.3081 63.9331 14.4818 63.8069C14.7956 63.5794 14.9493 63.1906 14.8756 62.8106L14.0831 58.6706L17.1618 55.7831C17.4443 55.5181 17.5481 55.1144 17.4281 54.7456C17.3081 54.3769 16.9868 54.1106 16.6031 54.0631ZM33.6568 54.0631L29.4718 53.5356L27.6793 49.7181C27.5143 49.3681 27.1618 49.1444 26.7756 49.1444C26.7743 49.1444 26.7743 49.1444 26.7743 49.1444C26.3881 49.1444 26.0356 49.3681 25.8706 49.7181L24.0743 53.5356L19.8893 54.0631C19.5056 54.1106 19.1831 54.3769 19.0643 54.7456C18.9443 55.1144 19.0481 55.5181 19.3306 55.7831L22.4093 58.6706L21.6156 62.8106C21.5431 63.1906 21.6968 63.5794 22.0093 63.8069C22.3231 64.0344 22.7393 64.0606 23.0793 63.8731L26.7743 61.8394L30.4706 63.8731C30.6206 63.9569 30.7868 63.9981 30.9518 63.9981C31.1593 63.9981 31.3656 63.9331 31.5393 63.8069C31.8531 63.5794 32.0068 63.1906 31.9331 62.8106L31.1406 58.6694L34.2156 55.7831C34.4981 55.5181 34.6018 55.1131 34.4818 54.7456C34.3618 54.3769 34.0406 54.1106 33.6568 54.0631Z" fill="#1B4671"/>
</svg>
