<svg width="64" height="64" viewBox="0 0 64 64" fill="none" xmlns="http://www.w3.org/2000/svg">
<path fill-rule="evenodd" clip-rule="evenodd" d="M31.9999 1.88232C33.9286 1.88232 35.4945 3.44819 35.4945 5.37685C35.4945 7.30563 33.9286 8.87138 31.9999 8.87138C30.0713 8.87138 28.5054 7.30563 28.5054 5.37685C28.5054 3.44819 30.0713 1.88232 31.9999 1.88232ZM54.2579 11.1018C55.6216 12.4657 55.6216 14.6801 54.2579 16.0439C52.8941 17.4077 50.6797 17.4077 49.3158 16.0439C47.952 14.6801 47.952 12.4657 49.3158 11.1018C50.6797 9.73801 52.8941 9.73801 54.2579 11.1018ZM9.742 11.1018C11.1058 9.73801 13.3202 9.73801 14.684 11.1018C16.0479 12.4657 16.0479 14.6801 14.684 16.0439C13.3202 17.4077 11.1058 17.4077 9.742 16.0439C8.37829 14.6801 8.37829 12.4657 9.742 11.1018ZM31.9999 18.1459C40.4031 18.1459 47.2139 24.9565 47.2139 33.3598C47.2139 41.763 40.4031 48.5736 31.9999 48.5736C23.5967 48.5736 16.786 41.763 16.786 33.3598C16.786 24.9565 23.5967 18.1459 31.9999 18.1459ZM42.03 41.9513C44.0099 39.6419 45.206 36.6407 45.206 33.3598C45.206 26.0655 39.2942 20.1537 31.9999 20.1537C24.7057 20.1537 18.7939 26.0655 18.7939 33.3598C18.7939 36.6407 19.99 39.6419 21.9699 41.9513C23.417 37.8044 27.3621 34.8285 31.9999 34.8285C36.6378 34.8285 40.5828 37.8044 42.03 41.9513ZM31.9999 34.2011C29.0439 34.2011 26.6271 31.7841 26.6271 28.8281C26.6271 25.8722 29.0439 23.4552 31.9999 23.4552C34.956 23.4552 37.3728 25.8722 37.3728 28.8281C37.3728 31.7841 34.956 34.2011 31.9999 34.2011ZM49.2182 33.7079H58.6405V39.0848L54.227 40.7834C53.6681 43.1353 52.7317 45.3784 51.4686 47.4399L53.385 51.7663L48.2892 56.8621L43.9628 54.9457C41.9085 56.2161 39.6582 57.1452 37.3063 57.7041L35.6077 62.1176H28.3995L26.7009 57.7041C24.3417 57.1452 22.0986 56.2088 20.0371 54.9457L15.7107 56.8621L10.6149 51.7663L12.5385 47.4399C11.2682 45.3856 10.3391 43.1353 9.77287 40.7834L5.35938 39.0848V33.7079H14.7817C14.967 43.0594 22.604 50.5814 31.9999 50.5814C41.3959 50.5814 49.0329 43.0594 49.2182 33.7079ZM46.7516 17.1885C47.1433 16.7966 47.7795 16.7966 48.1712 17.1885C48.563 17.5803 48.563 18.2164 48.1712 18.6082L45.3221 21.4574C44.9303 21.8492 44.2941 21.8492 43.9023 21.4574C43.5105 21.0656 43.5105 20.4294 43.9023 20.0376L46.7516 17.1885ZM30.996 11.494C30.996 10.94 31.4459 10.4901 31.9999 10.4901C32.554 10.4901 33.0039 10.94 33.0039 11.494V15.5234C33.0039 16.0774 32.554 16.5273 31.9999 16.5273C31.4459 16.5273 30.996 16.0774 30.996 15.5234V11.494ZM15.8286 18.6082C15.4369 18.2164 15.4369 17.5803 15.8286 17.1885C16.2204 16.7966 16.8565 16.7966 17.2483 17.1885L20.0976 20.0376C20.4894 20.4294 20.4894 21.0656 20.0976 21.4574C19.7058 21.8492 19.0696 21.8492 18.6778 21.4574L15.8286 18.6082Z" fill="#1B4671"/>
</svg>
