<svg width="64" height="64" viewBox="0 0 64 64" fill="none" xmlns="http://www.w3.org/2000/svg">
<path fill-rule="evenodd" clip-rule="evenodd" d="M20.6878 12.2251C20.6878 18.4248 25.7525 23.4504 31.9999 23.4504C38.2474 23.4504 43.3121 18.4248 43.3121 12.2251C43.3121 6.02578 38.2474 1 31.9999 1C25.7526 1 20.6878 6.02564 20.6878 12.2251ZM45.4419 36.01L42.2623 39.0472C42.2353 39.073 42.2214 39.1051 42.2214 39.1425V41.5228C42.2214 41.577 42.2523 41.6232 42.3026 41.6445C42.3529 41.6659 42.408 41.6557 42.4473 41.6181L46.8254 37.4361C46.8531 37.4097 46.867 37.3765 46.8662 37.3383C46.8655 37.3002 46.8506 37.2677 46.8218 37.2421C46.3965 36.8646 46.0012 36.4568 45.6371 36.0208C45.6126 35.9915 45.5803 35.9753 45.542 35.9732C45.5035 35.9711 45.4697 35.9835 45.4419 36.01ZM21.7377 39.0473L18.5581 36.01C18.5303 35.9835 18.4966 35.971 18.4582 35.9732C18.4197 35.9753 18.3875 35.9916 18.363 36.021C17.999 36.457 17.6035 36.8646 17.1783 37.2421C17.1497 37.2675 17.1346 37.3002 17.1339 37.3383C17.1332 37.3765 17.147 37.4095 17.1748 37.4361L21.5529 41.6181C21.5922 41.6557 21.6473 41.6657 21.6975 41.6445C21.7478 41.6233 21.7787 41.577 21.7787 41.5228V39.1425C21.7785 39.1052 21.7649 39.0732 21.7377 39.0473ZM33.0001 30.4871V25.36C33.0001 25.3222 32.9858 25.2895 32.9579 25.2636C32.93 25.2377 32.8963 25.2257 32.8581 25.2281C32.2866 25.2647 31.7134 25.2647 31.1419 25.2281C31.1037 25.2257 31.07 25.2377 31.0421 25.2636C31.0142 25.2895 30.9999 25.3222 30.9999 25.36V30.4871C30.9999 30.56 30.94 30.6194 30.8667 30.6194H29.2374C29.164 30.6194 29.1042 30.6787 29.1042 30.7516V36.4953C29.1042 36.5682 29.0442 36.6275 28.9709 36.6275H23.9067C23.8291 36.6275 23.7787 36.724 23.7787 36.8055V43.3289C23.7787 43.4018 23.8385 43.4612 23.9119 43.4612H40.0881C40.1615 43.4612 40.2213 43.4017 40.2213 43.3289V36.8055C40.2213 36.724 40.1708 36.6275 40.0933 36.6275H35.0291C34.9556 36.6275 34.8958 36.5682 34.8958 36.4953V30.7516C34.8958 30.6787 34.8359 30.6194 34.7626 30.6194H33.1333C33.0599 30.6194 33.0001 30.56 33.0001 30.4871ZM46.4714 45.4461H17.5286C16.9529 45.4461 16.4784 45.917 16.4784 46.4882V60.8678C16.4784 60.9407 16.5382 61 16.6117 61H47.3883C47.4618 61 47.5216 60.9405 47.5216 60.8678V46.4882C47.5216 45.917 47.0471 45.4461 46.4714 45.4461ZM39.245 49.0289H43.1977C43.59 49.0289 43.911 49.3474 43.911 49.7366V52.134C43.911 52.5233 43.5901 52.8418 43.1977 52.8418H39.245C38.8528 52.8418 38.5319 52.5233 38.5319 52.134V49.7366C38.5319 49.3474 38.8528 49.0289 39.245 49.0289ZM30.0237 49.0289H33.9763C34.3686 49.0289 34.6897 49.3474 34.6897 49.7366V52.134C34.6897 52.5233 34.3687 52.8418 33.9763 52.8418H30.0237C29.6314 52.8418 29.3105 52.5233 29.3105 52.134V49.7366C29.3103 49.3474 29.6313 49.0289 30.0237 49.0289ZM20.8023 49.0289H24.755C25.1472 49.0289 25.4683 49.3474 25.4683 49.7366V52.134C25.4683 52.5233 25.1474 52.8418 24.755 52.8418H20.8023C20.41 52.8418 20.0891 52.5233 20.0891 52.134V49.7366C20.0889 49.3474 20.4099 49.0289 20.8023 49.0289ZM11.3595 30.7057V34.0139C11.3595 34.0868 11.2997 34.1461 11.2262 34.1461H7.93515C7.86168 34.1461 7.80188 34.0868 7.80188 34.0139V30.7057C7.80188 30.6328 7.74208 30.5735 7.66862 30.5735H4.33484C4.26137 30.5735 4.20157 30.514 4.20157 30.4412V27.1754C4.20157 27.1025 4.26137 27.0432 4.33484 27.0432H7.66862C7.74208 27.0432 7.80188 26.9838 7.80188 26.9109V23.6028C7.80188 23.5298 7.86168 23.4705 7.93515 23.4705H11.2262C11.2997 23.4705 11.3595 23.5298 11.3595 23.6028V26.9109C11.3595 26.9838 11.4193 27.0432 11.4927 27.0432H14.8264C14.8998 27.0432 14.9596 27.1025 14.9596 27.1754V30.4411C14.9596 30.514 14.8998 30.5733 14.8264 30.5733H11.4927C11.4193 30.5735 11.3595 30.6328 11.3595 30.7057ZM0 28.8082C0 23.5577 4.28942 19.3012 9.58061 19.3012C14.8718 19.3012 19.1612 23.5577 19.1612 28.8082C19.1612 34.0549 14.8758 38.3153 9.58061 38.3153C4.28942 38.3153 0 34.0588 0 28.8082ZM54.4194 19.3012C59.7106 19.3012 64 23.5577 64 28.8082C64 34.0588 59.7106 38.3153 54.4194 38.3153C49.1241 38.3153 44.8388 34.0549 44.8388 28.8082C44.8388 23.5577 49.1282 19.3012 54.4194 19.3012ZM52.0803 31.6539C51.6164 31.3606 51.0008 31.4959 50.7053 31.9562C50.4097 32.4165 50.5461 33.0274 51.01 33.3206C53.0939 34.6399 55.7451 34.6399 57.8288 33.3206C58.2926 33.0273 58.429 32.4164 58.1335 31.9562C57.8379 31.4959 57.2222 31.3606 56.7585 31.6539C55.3397 32.5522 53.4989 32.5533 52.0803 31.6539ZM51.4774 25.1209H51.2506C50.6983 25.1209 50.2506 25.5652 50.2506 26.1132C50.2506 26.6613 50.6983 27.1056 51.2506 27.1056H51.4774C52.0297 27.1056 52.4775 26.6613 52.4775 26.1132C52.4775 25.5652 52.0297 25.1209 51.4774 25.1209ZM57.3613 27.1055H57.5882C58.1404 27.1055 58.5882 26.6611 58.5882 26.1131C58.5882 25.5651 58.1404 25.1207 57.5882 25.1207H57.3613C56.8091 25.1207 56.3613 25.5651 56.3613 26.1131C56.3613 26.6611 56.8091 27.1055 57.3613 27.1055ZM35.8633 16.0569C35.228 16.8691 34.1559 17.3524 33.1103 17.5344C33.0459 17.5456 32.9999 17.6 32.9999 17.6647V17.9933C32.9999 18.5414 32.5521 18.9857 31.9999 18.9857C31.4476 18.9857 30.9998 18.5414 30.9998 17.9933V17.6877C30.9998 17.6205 30.9498 17.5645 30.8826 17.5565C29.9283 17.4412 29.017 17.1864 28.1276 16.7872C27.625 16.5624 27.401 15.9758 27.6276 15.477C27.8541 14.9783 28.4452 14.7561 28.9478 14.9808C30.2411 15.5615 32.2494 15.9676 33.6386 15.3144C34.1939 15.0532 34.7402 14.5707 34.2761 14.0102C33.7514 13.3767 32.6864 13.2608 31.9534 13.2127C31.2646 13.1673 30.5791 13.1221 29.7318 12.769L29.7325 12.7675C28.5263 12.2434 27.6811 11.3693 27.5954 10.1014C27.5538 9.48627 27.845 8.7766 28.2338 8.30965C28.5919 7.87972 29.0936 7.53188 29.7396 7.26655L29.74 7.2674C30.1116 7.10902 30.4939 6.99556 30.8907 6.92308C30.9545 6.91136 30.9999 6.85739 30.9999 6.79296V6.45699C30.9999 5.90894 31.4477 5.4646 32 5.4646C32.5523 5.4646 33.0001 5.90894 33.0001 6.45699V6.76767C33.0001 6.83492 33.05 6.89087 33.1174 6.89907C34.1031 7.0176 35.0112 7.26697 35.8708 7.6709C36.3692 7.90431 36.5826 8.49431 36.3474 8.98881C36.1122 9.48331 35.5176 9.69509 35.0191 9.46169C33.9983 8.98203 32.422 8.64775 31.2161 8.87804C31.2112 8.87903 31.2071 8.88002 31.2024 8.88143L30.4971 9.09477L30.4975 9.0959C29.9105 9.33708 29.2823 9.84712 29.7601 10.4212C29.9149 10.6069 30.1632 10.78 30.5049 10.9401L30.5052 10.9392C31.691 11.4335 32.712 11.0202 34.3156 11.681C35.4977 12.1681 36.3811 13.1186 36.4581 14.3742C36.4607 14.4174 36.4604 14.4601 36.4574 14.502H36.4581C36.4163 15.0826 36.2194 15.6014 35.8633 16.0569Z" fill="#1B4671"/>
</svg>
