<svg width="64" height="64" viewBox="0 0 64 64" fill="none" xmlns="http://www.w3.org/2000/svg">
<path d="M44.3461 4.69971H20.5935C20.1136 4.69971 19.7137 5.08959 19.7137 5.57943V12.1774C19.7137 12.6572 20.1036 13.0571 20.5935 13.0571H44.3461C44.8259 13.0571 45.2258 12.6672 45.2258 12.1774V5.57943C45.2258 5.08959 44.8359 4.69971 44.3461 4.69971ZM43.4764 11.2977H21.4732V6.44916H43.4764V11.2977ZM9.78683 47.0565C10.1267 47.3964 10.5666 47.5764 11.0464 47.5764C11.5263 47.5764 11.9662 47.3864 12.3061 47.0565L14.6053 44.7572C14.9452 44.4173 15.1252 43.9775 15.1252 43.4976C15.1252 43.0178 14.9352 42.5779 14.6053 42.238L14.3954 42.0281L17.1845 39.239L19.8237 41.8881C19.9937 42.0581 20.2236 42.1481 20.4435 42.1481C20.6635 42.1481 20.8934 42.0581 21.0633 41.8881L21.8631 41.0884L36.0886 57.6932C36.9184 58.6629 38.128 59.2527 39.4076 59.3027H39.5876C40.7972 59.3027 41.9768 58.8129 42.8366 57.9531C43.2841 57.504 43.6341 56.9673 43.8645 56.3765C44.0949 55.7858 44.2007 55.1538 44.1754 54.5202C44.15 53.8867 43.9941 53.2652 43.7172 52.6947C43.4404 52.1243 43.0487 51.6172 42.5666 51.2052L25.9518 36.9897L26.7516 36.1899C26.9115 36.03 27.0115 35.8 27.0115 35.5701C27.0115 35.3402 26.9215 35.1202 26.7516 34.9503L24.1024 32.3011L26.8915 29.512L27.1014 29.7219C27.4413 30.0618 27.8812 30.2418 28.3611 30.2418C28.8409 30.2418 29.2808 30.0518 29.6207 29.7219L31.9199 27.4226C32.2598 27.0827 32.4398 26.6429 32.4398 26.163C32.4398 25.6832 32.2498 25.2433 31.9199 24.9034L22.6528 15.6363C21.983 14.9665 20.8134 14.9665 20.1336 15.6363L17.8343 17.9356C17.4944 18.2755 17.3145 18.7153 17.3145 19.1952C17.3145 19.675 17.5044 20.1149 17.8343 20.4548L18.0443 20.6647L5.54815 33.1808L5.33822 32.9709C4.66843 32.3011 3.49879 32.3011 2.819 32.9709L0.519716 35.2702C0.179822 35.6101 -0.00012207 36.0499 -0.00012207 36.5298C-0.00012207 37.0097 0.189819 37.4495 0.519716 37.7894L9.78683 47.0565ZM41.437 52.5448C42.0468 53.0647 42.3967 53.7944 42.4267 54.5942C42.4567 55.3939 42.1668 56.1537 41.5969 56.7235C41.0271 57.2933 40.2673 57.5833 39.4776 57.5533C38.6778 57.5233 37.9481 57.1734 37.4282 56.5636L23.1127 39.8388L23.2926 39.6588L24.7222 38.2293L41.437 52.5448ZM24.9021 35.5701L24.0524 36.4198L21.8331 38.6491L20.4535 40.0287L18.4241 37.9993L22.8728 33.5507L24.9021 35.5701ZM21.3832 16.8759H21.4232L30.6903 26.183L28.3511 28.4823L19.0839 19.1752L21.3832 16.8759ZM19.2939 21.9144L25.6619 28.2824L13.1558 40.7885L6.78777 34.4205L19.2939 21.9144ZM4.05862 34.2105H4.0986L13.3657 43.5176L11.0264 45.8169L1.75933 36.5098L4.05862 34.2105Z" fill="#B6CB23"/>
<path d="M24.4023 54.2841H22.9327V50.8252C22.9327 49.4856 21.8431 48.3859 20.4935 48.3859H5.04828C3.70869 48.3859 2.60903 49.4756 2.60903 50.8252V54.2841H1.13949C0.659641 54.2841 0.259766 54.674 0.259766 55.1638V59.2226C0.259766 59.7024 0.649644 60.1023 1.13949 60.1023H24.4023C24.8821 60.1023 25.282 59.7124 25.282 59.2226V55.1638C25.282 54.674 24.8921 54.2841 24.4023 54.2841ZM4.35849 50.8252C4.35849 50.4453 4.66839 50.1354 5.04828 50.1354H20.5035C20.8833 50.1354 21.1933 50.4453 21.1933 50.8252V54.2841H4.35849V50.8252ZM23.5325 58.3428H2.01922V56.0335H23.5325V58.3428ZM58.0618 18.5752H34.709C34.2292 18.5752 33.8293 18.9651 33.8293 19.4549C33.8293 19.9448 34.2192 20.3346 34.709 20.3346H58.0518C58.5316 20.3346 58.9315 19.9448 58.9315 19.4549C58.9315 18.9651 58.5416 18.5752 58.0618 18.5752ZM58.0618 22.6239H34.709C34.2292 22.6239 33.8293 23.0138 33.8293 23.5037C33.8293 23.9935 34.2192 24.3834 34.709 24.3834H58.0518C58.5316 24.3834 58.9315 23.9935 58.9315 23.5037C58.9315 23.0138 58.5416 22.6239 58.0618 22.6239ZM34.709 28.4221H45.3657C45.8456 28.4221 46.2455 28.0323 46.2455 27.5424C46.2455 27.0526 45.8556 26.6627 45.3657 26.6627H34.709C34.2292 26.6627 33.8293 27.0526 33.8293 27.5424C33.8293 28.0323 34.2292 28.4221 34.709 28.4221ZM34.709 32.4709H45.3657C45.8456 32.4709 46.2455 32.081 46.2455 31.5911C46.2455 31.1013 45.8556 30.7114 45.3657 30.7114H34.709C34.2292 30.7114 33.8293 31.1013 33.8293 31.5911C33.8293 32.081 34.2292 32.4709 34.709 32.4709ZM50.5741 52.0648C55.1827 52.0648 58.9415 48.3159 58.9415 43.6974C58.9415 39.0788 55.1927 35.33 50.5741 35.33C45.9556 35.33 42.2067 39.0788 42.2067 43.6974C42.2067 48.3159 45.9556 52.0648 50.5741 52.0648ZM50.5741 37.0894C54.223 37.0894 57.1921 40.0585 57.1921 43.7074C57.1921 47.3562 54.223 50.3253 50.5741 50.3253C46.9252 50.3253 43.9562 47.3562 43.9562 43.7074C43.9562 40.0585 46.9252 37.0894 50.5741 37.0894Z" fill="#B6CB23"/>
<path d="M63.93 13.8966C63.89 13.8066 63.83 13.7266 63.77 13.6567C63.76 13.6467 63.75 13.6267 63.74 13.6167L51.084 0.950606C51.004 0.869583 50.9089 0.805048 50.8041 0.760665C50.719 0.723973 50.6267 0.70689 50.5341 0.71068C50.5141 0.71068 50.4942 0.700684 50.4642 0.700684H20.8834C18.0443 0.700684 15.725 3.00996 15.725 5.85908V14.7763C15.725 15.2562 16.1149 15.656 16.6047 15.656C17.0946 15.656 17.4844 15.2662 17.4844 14.7763V5.84908C17.4844 3.96967 19.014 2.44014 20.8934 2.44014H49.5944V9.93781C49.5944 11.3059 50.1379 12.618 51.1053 13.5853C52.0727 14.5527 53.3847 15.0962 54.7528 15.0962H62.2505V58.1428C62.2505 60.0222 60.721 61.5518 58.8416 61.5518H28.401C27.9212 61.5518 27.5213 61.9416 27.5213 62.4315C27.5213 62.9213 27.9112 63.3112 28.401 63.3112H58.8416C60.2096 63.3112 61.5217 62.7677 62.4891 61.8003C63.4565 60.833 64 59.5209 64 58.1528V14.2265C64 14.1165 63.97 13.9965 63.93 13.8966ZM51.3439 9.94781V3.67976L61.0209 13.3467H54.7528C54.3056 13.3481 53.8626 13.2611 53.449 13.0909C53.0355 12.9207 52.6596 12.6705 52.343 12.3548C52.0263 12.039 51.775 11.6639 51.6036 11.2508C51.4321 10.8378 51.3439 10.395 51.3439 9.94781Z" fill="#B6CB23"/>
</svg>
