<svg width="40" height="40" viewBox="0 0 40 40" fill="none" xmlns="http://www.w3.org/2000/svg">
<path d="M0 8C0 3.58172 3.58172 0 8 0H32C36.4183 0 40 3.58172 40 8V32C40 36.4183 36.4183 40 32 40H8C3.58172 40 0 36.4183 0 32V8Z" fill="#B6CB23" fill-opacity="0.3"/>
<path d="M25 28.5H15C12 28.5 10 27 10 23.5V16.5C10 13 12 11.5 15 11.5H25C28 11.5 30 13 30 16.5V23.5C30 27 28 28.5 25 28.5Z" stroke="#1B4671" stroke-width="1.5" stroke-miterlimit="10" stroke-linecap="round" stroke-linejoin="round"/>
<path d="M25 17L21.87 19.5C20.84 20.32 19.15 20.32 18.12 19.5L15 17" stroke="#1B4671" stroke-width="1.5" stroke-miterlimit="10" stroke-linecap="round" stroke-linejoin="round"/>
</svg>
