<svg width="65" height="58" viewBox="0 0 65 58" fill="none" xmlns="http://www.w3.org/2000/svg">
<path d="M52.244 47.6577L52.0672 47.8344L48.4833 44.2505L40.6957 52.0374L40.5189 52.2142L40.3422 52.0374L35.0327 46.7284L34.8559 46.5517L35.0326 46.3749L36.139 45.2684C38.2611 43.1459 38.2612 39.6919 36.1391 37.5694C36.1391 37.5694 36.139 37.5693 36.139 37.5693M52.244 47.6577L34.4146 36.1362C35.1263 36.4229 35.773 36.8502 36.3158 37.3926L36.139 37.5693M52.244 47.6577L52.0673 47.8344C52.9213 48.6883 54.31 48.6883 55.1639 47.8344L55.2371 47.7612V47.7575C56.0172 46.899 55.9928 45.5664 55.1639 44.7375L51.58 41.1535M52.244 47.6577L51.58 41.1535M36.139 37.5693C35.62 37.0507 35.0017 36.6422 34.3212 36.3681L34.1646 36.305V36.1362V30.1599V29.9099H34.4146H35.9784C38.9805 29.9099 41.4228 27.4677 41.4228 24.4657C41.4228 21.5538 39.1238 19.1679 36.2457 19.0283L35.6818 19.001L36.081 18.6018L40.3423 14.3412L40.5191 14.1644L40.6958 14.3412L48.4833 22.1282L52.2444 18.3675C52.6576 17.9539 53.2085 17.726 53.7929 17.726C54.3773 17.726 54.9276 17.9539 55.3411 18.3674C56.1952 19.2209 56.1951 20.6103 55.3412 21.4642L55.1644 21.2875L55.3412 21.4642L51.5801 25.225L59.3675 33.0125L59.5443 33.1893L59.3675 33.3661L51.58 41.1535M36.139 37.5693L51.58 41.1535M56.3587 40.9765L56.1819 41.1533L56.3587 41.3301L57.4652 42.4364C59.5877 44.5591 59.5877 48.013 57.4652 50.1356C56.4364 51.1644 55.0701 51.7304 53.6155 51.7304C52.161 51.7304 50.7948 51.164 49.766 50.1356L48.6601 49.0292L48.4833 48.8523L48.3065 49.0291L40.5189 56.8168L30.2534 46.5517L33.8377 42.9673C33.8378 42.9673 33.8378 42.9672 33.8378 42.9672C34.0407 42.7645 34.2016 42.5238 34.3115 42.2589C34.4213 41.994 34.4779 41.71 34.4779 41.4232L34.478 41.1732H34.2279H19.647V36.1044C19.647 34.8965 18.6649 33.9144 17.457 33.9144C16.2496 33.9144 15.2675 34.8965 15.2675 36.1044V41.1733H0.75V26.6558H6.06874C7.27683 26.6558 8.25874 25.6736 8.25874 24.4658C8.25874 23.2584 7.2768 22.2762 6.06874 22.2762H0.75V7.75874H11.7632H12.0132V7.50874V5.69436C12.0132 2.6923 14.4554 0.25 17.457 0.25C20.459 0.25 22.9012 2.69231 22.9013 5.69436V7.50874V7.75874H23.1513H34.1644V15.3128V15.9164L34.5912 15.4896L40.5189 9.56142L48.3065 17.349L48.4833 17.5258L48.6601 17.349L49.9433 16.0657C50.9715 15.0375 52.3382 14.4715 53.7924 14.4715C55.2471 14.4715 56.6137 15.0375 57.6425 16.0658C59.7646 18.1884 59.7646 21.6423 57.642 23.7649L56.3587 25.0482L56.182 25.225L56.3587 25.4017L64.1463 33.1894L56.3587 40.9765ZM30.6601 37.9189H30.9101V37.6689V26.6558L35.9784 26.6557C37.1864 26.6557 38.1684 25.6735 38.1684 24.4657C38.1684 23.2581 37.1863 22.2762 35.9784 22.2762H30.9101V11.263V11.013H30.6601H19.647V5.69424C19.647 4.4863 18.6649 3.50424 17.457 3.50424C16.2495 3.50424 15.2676 4.48636 15.2676 5.69424V11.0132H4.25437H4.00437V11.2632V18.772V19.022H4.25437H6.06874C9.07031 19.022 11.513 21.4642 11.513 24.4658C11.513 27.4679 9.07029 29.9102 6.06874 29.9102H4.25449H4.00449V30.1602V37.6689V37.9189H4.25449H11.7632H12.0132V37.6689V36.1044C12.0132 33.1028 14.4555 30.6601 17.457 30.6601C20.459 30.6601 22.9013 33.1029 22.9013 36.1044V37.6689V37.9189H23.1513H30.6601Z" fill="#B6CB23" stroke="white" stroke-width="0.5"/>
</svg>
