<svg width="63" height="62" viewBox="0 0 63 62" fill="none" xmlns="http://www.w3.org/2000/svg">
<path d="M61.3861 48.6484H58.1473V18.3648C58.1473 15.8242 56.0818 13.749 53.5315 13.749H44.7364C44.4895 13.749 44.2527 13.8471 44.0781 14.0217C43.9035 14.1963 43.8055 14.433 43.8055 14.6799C43.8055 14.9268 43.9035 15.1636 44.0781 15.3382C44.2527 15.5128 44.4895 15.6108 44.7364 15.6108H53.5315C55.0442 15.6108 56.2758 16.8424 56.2758 18.3551V48.6484H41.0418C40.683 48.6484 40.363 48.8521 40.1982 49.1721L38.3945 52.8666C38.3155 53.0236 38.1952 53.1562 38.0466 53.2501C37.898 53.3441 37.7267 53.3959 37.5509 53.3999H25.4297C25.0806 53.3999 24.7412 53.1963 24.5861 52.8763L22.7824 49.1818C22.7049 49.0243 22.5847 48.8917 22.4356 48.7991C22.2865 48.7065 22.1143 48.6577 21.9388 48.6581H6.71454V18.3648C6.71454 17.5696 7.06364 16.8133 7.67454 16.2896C8.16909 15.863 8.80909 15.6205 9.45879 15.6205H18.2539C18.5008 15.6205 18.7376 15.5225 18.9122 15.3479C19.0868 15.1733 19.1848 14.9365 19.1848 14.6896C19.1848 14.4427 19.0868 14.206 18.9122 14.0314C18.7376 13.8568 18.5008 13.7587 18.2539 13.7587H9.45879C8.35333 13.7587 7.27697 14.1563 6.45273 14.8836C5.43454 15.7563 4.84303 17.0266 4.84303 18.3745V48.6484H1.61394C1.36705 48.6484 1.13027 48.7465 0.955686 48.9211C0.781107 49.0957 0.683029 49.3324 0.683029 49.5793V56.6387C0.683029 57.0557 0.741211 57.463 0.847878 57.8411C1.11094 58.8205 1.68964 59.6857 2.49432 60.3028C3.299 60.9199 4.28473 61.2544 5.29879 61.2545H57.7109C60.2515 61.2545 62.3267 59.189 62.3267 56.6387V49.5793C62.3229 49.3319 62.2222 49.0959 62.0464 48.9219C61.8705 48.7478 61.6335 48.6497 61.3861 48.6484ZM60.4552 56.6387C60.4552 58.1514 59.2236 59.383 57.7109 59.383H5.29879C4.05757 59.383 2.97151 58.549 2.65151 57.3466C2.59333 57.1236 2.55454 56.8811 2.55454 56.6387V50.5102H21.3764L22.9279 53.6908C23.1615 54.1577 23.5198 54.5506 23.9631 54.8262C24.4064 55.1018 24.9174 55.2492 25.4394 55.2521H37.5606C38.6176 55.2521 39.6067 54.6411 40.0818 53.6811L41.6333 50.5102H60.4552V56.6387Z" fill="#B6CB23"/>
<path d="M5.11454 53.6326C5.02803 53.7171 4.9594 53.8182 4.91276 53.9298C4.86611 54.0415 4.8424 54.1613 4.84303 54.2823C4.84303 54.4083 4.86242 54.5247 4.91091 54.6508C4.96909 54.7671 5.03697 54.8641 5.11454 54.9514C5.28909 55.1259 5.52182 55.2229 5.77394 55.2229C6.01636 55.2229 6.25879 55.1259 6.42364 54.9514C6.52061 54.8641 6.57879 54.7671 6.62727 54.6508C6.67576 54.5247 6.70485 54.418 6.70485 54.2823C6.70485 54.0399 6.59818 53.7974 6.42364 53.6326C6.08424 53.2738 5.46364 53.2738 5.11454 53.6326ZM10.3509 53.6326C10.3121 53.5841 10.2636 53.5453 10.2152 53.5065C10.1667 53.4774 10.1085 53.4386 10.06 53.4193L9.88545 53.3611C9.70285 53.3224 9.51269 53.3428 9.34242 53.4193C9.22606 53.4677 9.12909 53.5356 9.04182 53.6229C8.95455 53.7102 8.88667 53.8071 8.83818 53.9235C8.7897 54.0399 8.7703 54.1562 8.7703 54.2823C8.7703 54.3502 8.7703 54.4083 8.7897 54.4665C8.79939 54.5247 8.81879 54.5926 8.83818 54.6411C8.86727 54.6993 8.89636 54.7477 8.92545 54.7962C8.96424 54.8447 9.00303 54.8932 9.05152 54.932C9.13879 55.0193 9.23576 55.0871 9.35212 55.1356C9.47818 55.1841 9.58485 55.2035 9.72061 55.2035C9.96303 55.2035 10.2055 55.1065 10.3703 54.932C10.5448 54.7671 10.6418 54.5247 10.6418 54.2726C10.6418 54.1465 10.6224 54.0302 10.5739 53.9138C10.5061 53.8168 10.4382 53.7102 10.3509 53.6326ZM14.2588 53.6326C14.22 53.5841 14.1618 53.5453 14.123 53.5065C14.0745 53.4774 14.0164 53.4386 13.9679 53.4193C13.9097 53.3902 13.8418 53.3805 13.7933 53.3611C13.6713 53.3417 13.5469 53.3417 13.4248 53.3611C13.3667 53.3805 13.2988 53.3902 13.2503 53.4193C13.1921 53.4386 13.1339 53.4774 13.0952 53.5065C13.037 53.5453 12.9885 53.5841 12.9594 53.6326C12.8624 53.7199 12.8042 53.8168 12.7558 53.9332C12.7073 54.0496 12.6782 54.1659 12.6782 54.292C12.6782 54.418 12.7073 54.5344 12.7558 54.6605C12.8042 54.7768 12.8721 54.8738 12.9594 54.9611C12.9982 55.0096 13.0467 55.0483 13.0952 55.0774C13.1436 55.1162 13.2018 55.1453 13.2503 55.1744C13.3085 55.1938 13.3764 55.2132 13.4248 55.2229C13.483 55.2423 13.5509 55.2423 13.5994 55.2423C13.6673 55.2423 13.7255 55.2423 13.7836 55.2229C13.8418 55.2132 13.9097 55.1938 13.9582 55.1744C14.0164 55.1453 14.0745 55.1162 14.1133 55.0774C14.1618 55.0483 14.22 55.0096 14.2491 54.9611C14.3364 54.8738 14.4042 54.7768 14.4527 54.6605C14.5012 54.5344 14.5303 54.418 14.5303 54.292C14.5303 54.1659 14.5012 54.0496 14.4527 53.9332C14.4151 53.8179 14.3483 53.7144 14.2588 53.6326ZM21.1727 13.1574C21.0952 13.6617 21.0564 14.1756 21.0564 14.6992C21.0564 15.2229 21.0952 15.7368 21.1727 16.2411L18.4867 18.5392C18.1473 18.8302 18.06 19.3247 18.283 19.7126L20.5424 23.6205C20.7655 24.0083 21.2406 24.1829 21.6576 24.0374L25.003 22.8641C25.8176 23.5138 26.7097 24.0277 27.6697 24.4059L28.3291 27.8871C28.4164 28.3235 28.7945 28.6435 29.2503 28.6435H33.7594C34.2055 28.6435 34.5933 28.3235 34.6806 27.8774L35.3303 24.3962C36.2903 24.018 37.1824 23.5041 37.997 22.8544L41.3424 24.0277C41.7691 24.1732 42.2345 23.9986 42.4576 23.6108L44.717 19.7029C44.94 19.315 44.8527 18.8205 44.5133 18.5296L41.8273 16.2217C41.9832 15.1997 41.9832 14.16 41.8273 13.138L44.5133 10.8302C44.8527 10.5392 44.94 10.0447 44.717 9.65682L42.4576 5.76834C42.3486 5.58061 42.1779 5.43647 41.9746 5.36044C41.7712 5.28441 41.5479 5.28121 41.3424 5.35137L37.997 6.5344C37.1921 5.8847 36.2903 5.37076 35.3303 4.99258L34.6806 1.52107C34.6405 1.3068 34.5261 1.11353 34.3577 0.975206C34.1892 0.83688 33.9774 0.762347 33.7594 0.764703H29.2503C28.8042 0.764703 28.4164 1.0847 28.3291 1.52107L27.6697 5.00228C26.7194 5.38046 25.8079 5.9041 25.003 6.5441L21.6673 5.37076C21.4623 5.29526 21.237 5.29581 21.0323 5.37233C20.8277 5.44884 20.6573 5.59624 20.5521 5.78773L18.2927 9.69561C18.0697 10.0835 18.157 10.578 18.4964 10.8689L21.1727 13.1574ZM21.7739 7.37804L24.8867 8.47379C25.2067 8.59016 25.5655 8.51258 25.8176 8.28955C26.6806 7.52349 27.7085 6.93198 28.7849 6.57319C29.1049 6.46652 29.3473 6.19501 29.4055 5.86531L30.0164 2.62652H32.9836L33.5945 5.86531C33.6527 6.19501 33.8952 6.47622 34.2152 6.58288C35.3206 6.95137 36.3194 7.52349 37.1824 8.29925C37.4345 8.53198 37.7933 8.59985 38.1133 8.48349L41.2261 7.38773L42.7097 9.94773L40.2079 12.1005C39.9461 12.3235 39.8297 12.6629 39.8976 13.0023C40.1311 14.1313 40.1311 15.2963 39.8976 16.4253C39.8297 16.755 39.9461 17.0944 40.2079 17.3174L42.7097 19.4605L41.2261 22.0302L38.1036 20.9344C37.9459 20.8813 37.777 20.8704 37.6137 20.9027C37.4504 20.9351 37.2984 21.0095 37.1727 21.1186C36.3097 21.8944 35.3109 22.4665 34.2152 22.8253C34.0561 22.8786 33.914 22.9731 33.8033 23.0992C33.6926 23.2252 33.6172 23.3783 33.5849 23.5429L32.9739 26.7817H30.0067L29.3958 23.5332C29.3653 23.3678 29.2906 23.2138 29.1796 23.0874C29.0687 22.9611 28.9255 22.8671 28.7655 22.8156C27.6721 22.4575 26.665 21.8764 25.8079 21.1089C25.6822 20.9998 25.5302 20.9254 25.3669 20.893C25.2036 20.8607 25.0347 20.8716 24.877 20.9247L21.7642 22.0205L20.2806 19.4508L22.7824 17.3077C23.0442 17.0847 23.1606 16.7453 23.0927 16.4059C22.9764 15.8532 22.9182 15.2811 22.9182 14.6992C22.9182 14.1174 22.9764 13.5356 23.0927 12.9926C23.1606 12.6629 23.0442 12.3138 22.7921 12.0908L20.2903 9.93804L21.7739 7.37804Z" fill="#B6CB23"/>
<path d="M31.5 20.692C34.8067 20.692 37.4927 18.0059 37.4927 14.6993C37.4927 11.3926 34.8067 8.70654 31.5 8.70654C28.1933 8.70654 25.5073 11.3926 25.5073 14.6993C25.5073 18.0059 28.1933 20.692 31.5 20.692ZM31.5 10.5781C33.7691 10.5781 35.6212 12.4302 35.6212 14.6993C35.6212 16.9684 33.7691 18.8205 31.5 18.8205C29.2309 18.8205 27.3788 16.9684 27.3788 14.6993C27.3788 12.4302 29.2309 10.5781 31.5 10.5781ZM10.1279 40.6193V44.5756C10.1279 45.0896 10.5449 45.5065 11.0588 45.5065H24.5667C25.0806 45.5065 25.4976 45.0896 25.4976 44.5756V40.629C25.4976 38.3599 23.8685 36.4593 21.7061 36.052C22.5012 35.1405 22.9958 33.9478 22.9958 32.6484C22.9958 29.7878 20.6685 27.4605 17.8079 27.4605C14.9473 27.4605 12.62 29.7878 12.62 32.6484C12.62 33.9478 13.1049 35.1405 13.9097 36.052C12.8467 36.2549 11.8876 36.8219 11.1974 37.6555C10.5072 38.489 10.129 39.537 10.1279 40.6193ZM17.8176 29.3223C19.6503 29.3223 21.1339 30.8059 21.1339 32.6387C21.1339 34.4714 19.6503 35.955 17.8176 35.955C15.9849 35.955 14.5012 34.4714 14.5012 32.6387C14.5012 30.8059 15.9849 29.3223 17.8176 29.3223ZM11.9994 40.6193C11.9994 39.0774 13.26 37.8168 14.8018 37.8168H20.8333C22.3752 37.8168 23.6358 39.0774 23.6358 40.6193V43.635H11.9994V40.6193ZM50.5739 41.7344H30.2297C29.9828 41.7344 29.746 41.8325 29.5715 42.0071C29.3969 42.1817 29.2988 42.4184 29.2988 42.6653C29.2988 42.9122 29.3969 43.149 29.5715 43.3236C29.746 43.4982 29.9828 43.5962 30.2297 43.5962H50.5739C50.8208 43.5962 51.0576 43.4982 51.2322 43.3236C51.4068 43.149 51.5049 42.9122 51.5049 42.6653C51.5049 42.4184 51.4068 42.1817 51.2322 42.0071C51.0576 41.8325 50.8208 41.7344 50.5739 41.7344ZM50.5739 36.1296H30.2297C29.9828 36.1296 29.746 36.2277 29.5715 36.4022C29.3969 36.5768 29.2988 36.8136 29.2988 37.0605C29.2988 37.3074 29.3969 37.5442 29.5715 37.7187C29.746 37.8933 29.9828 37.9914 30.2297 37.9914H50.5739C50.8208 37.9914 51.0576 37.8933 51.2322 37.7187C51.4068 37.5442 51.5049 37.3074 51.5049 37.0605C51.5049 36.8136 51.4068 36.5768 51.2322 36.4022C51.0576 36.2277 50.8208 36.1296 50.5739 36.1296Z" fill="#B6CB23"/>
</svg>
