<svg width="25" height="25" viewBox="0 0 25 25" fill="none" xmlns="http://www.w3.org/2000/svg">
<path d="M21.5909 0H3.40909C1.5263 0 0 1.5263 0 3.40909V21.5909C0 23.4737 1.5263 25 3.40909 25H21.5909C23.4737 25 25 23.4737 25 21.5909V3.40909C25 1.5263 23.4737 0 21.5909 0Z" fill="#0077B5"/>
<path d="M9.00551 6.81818C9.00551 7.23959 8.88054 7.65154 8.64642 8.00193C8.4123 8.35231 8.07953 8.62541 7.6902 8.78668C7.30087 8.94794 6.87246 8.99014 6.45915 8.90792C6.04584 8.82571 5.66619 8.62278 5.3682 8.3248C5.07022 8.02682 4.86729 7.64717 4.78508 7.23386C4.70287 6.82055 4.74506 6.39214 4.90633 6.00281C5.0676 5.61347 5.34069 5.28071 5.69108 5.04658C6.04147 4.81246 6.45341 4.6875 6.87482 4.6875C7.43992 4.6875 7.98186 4.91198 8.38144 5.31156C8.78102 5.71114 9.00551 6.25309 9.00551 6.81818Z" fill="white"/>
<path d="M8.52282 10.3694V19.7827C8.52319 19.8521 8.50984 19.921 8.48352 19.9852C8.45721 20.0495 8.41845 20.1079 8.36948 20.1572C8.3205 20.2064 8.26228 20.2455 8.19816 20.2722C8.13403 20.2988 8.06527 20.3125 7.99583 20.3125H5.75009C5.68065 20.3127 5.61185 20.2992 5.54766 20.2727C5.48346 20.2462 5.42514 20.2073 5.37603 20.1582C5.32693 20.1091 5.28801 20.0508 5.26152 19.9866C5.23503 19.9224 5.22149 19.8536 5.22168 19.7841V10.3694C5.22168 10.2292 5.27735 10.0948 5.37645 9.99571C5.47555 9.89661 5.60995 9.84094 5.75009 9.84094H7.99583C8.13573 9.84132 8.26976 9.89716 8.36855 9.99621C8.46734 10.0953 8.52282 10.2295 8.52282 10.3694Z" fill="white"/>
<path d="M20.2612 15.2699V19.8267C20.2614 19.8906 20.2489 19.9538 20.2246 20.0129C20.2002 20.0719 20.1645 20.1255 20.1193 20.1707C20.0742 20.2158 20.0205 20.2516 19.9615 20.2759C19.9025 20.3003 19.8392 20.3127 19.7754 20.3125H17.3606C17.2968 20.3127 17.2335 20.3003 17.1745 20.2759C17.1155 20.2516 17.0618 20.2158 17.0167 20.1707C16.9715 20.1255 16.9358 20.0719 16.9114 20.0129C16.8871 19.9538 16.8746 19.8906 16.8748 19.8267V15.4105C16.8748 14.7515 17.068 12.5242 15.1518 12.5242C13.6674 12.5242 13.3649 14.0483 13.3052 14.733V19.8267C13.3052 19.9544 13.255 20.0769 13.1655 20.1678C13.0759 20.2587 12.9541 20.3107 12.8265 20.3125H10.4941C10.4304 20.3125 10.3673 20.3 10.3085 20.2755C10.2496 20.2511 10.1961 20.2153 10.1511 20.1702C10.1061 20.125 10.0705 20.0715 10.0462 20.0125C10.022 19.9536 10.0096 19.8905 10.0098 19.8267V10.3282C10.0096 10.2644 10.022 10.2013 10.0462 10.1424C10.0705 10.0834 10.1061 10.0299 10.1511 9.98473C10.1961 9.93961 10.2496 9.9038 10.3085 9.87937C10.3673 9.85494 10.4304 9.84236 10.4941 9.84236H12.8265C12.9554 9.84236 13.0789 9.89354 13.17 9.98465C13.2611 10.0758 13.3123 10.1993 13.3123 10.3282V11.1492C13.8635 10.3225 14.6802 9.68469 16.4231 9.68469C20.2839 9.68469 20.2612 13.2898 20.2612 15.2699Z" fill="white"/>
</svg>
