<svg width="96" height="86" viewBox="0 0 96 86" fill="none" xmlns="http://www.w3.org/2000/svg">
<path fill-rule="evenodd" clip-rule="evenodd" d="M88.49 38.0435C88.4899 38.4274 88.3367 38.7955 88.0639 39.067C87.7912 39.3385 87.4212 39.491 87.0354 39.4911H78.9904C78.609 39.4845 78.2454 39.3291 77.978 39.0583C77.7106 38.7876 77.5608 38.4231 77.5608 38.0435C77.5608 37.6639 77.7106 37.2995 77.978 37.0287C78.2454 36.7579 78.609 36.6025 78.9904 36.5959H87.0354C87.4212 36.5961 87.7911 36.7486 88.0639 37.0201C88.3366 37.2915 88.4899 37.6597 88.49 38.0435ZM88.49 26.8125C88.4901 27.0027 88.4525 27.191 88.3795 27.3667C88.3064 27.5424 88.1993 27.7021 88.0643 27.8366C87.9292 27.9712 87.7688 28.0779 87.5923 28.1508C87.4158 28.2236 87.2265 28.2612 87.0354 28.2612H78.9904C78.1871 28.2612 77.5359 27.6128 77.5359 26.8125C77.5359 26.0123 78.1871 25.3662 78.9904 25.3662H87.0354C87.2264 25.366 87.4156 25.4033 87.5921 25.4759C87.7686 25.5485 87.9289 25.655 88.064 25.7893C88.1991 25.9236 88.3063 26.0831 88.3794 26.2587C88.4525 26.4343 88.4901 26.6225 88.49 26.8125ZM88.49 15.5804C88.4899 15.9643 88.3367 16.3324 88.0639 16.6039C87.7912 16.8754 87.4212 17.0279 87.0354 17.028H78.9904C78.609 17.0214 78.2454 16.866 77.978 16.5952C77.7106 16.3245 77.5608 15.96 77.5608 15.5804C77.5608 15.2008 77.7106 14.8364 77.978 14.5656C78.2454 14.2948 78.609 14.1394 78.9904 14.1328H87.0354C87.4212 14.1329 87.7912 14.2855 88.0639 14.5569C88.3367 14.8284 88.4899 15.1965 88.49 15.5804ZM91.1955 45.233C93.7266 33.1275 93.7221 20.7379 91.1818 8.40175C90.8661 6.8691 89.5461 5.79792 87.9729 5.79792H76.4206C74.6148 5.79792 73.1449 7.25876 73.1449 9.05508V26.5561C73.1449 26.8222 73.0712 27.0831 72.9319 27.3102C72.7926 27.5373 72.5931 27.7218 72.3553 27.8434L66.6065 30.7836L72.3553 33.7238C72.593 33.8458 72.7924 34.0306 72.9317 34.2579C73.0709 34.4852 73.1447 34.7462 73.1449 35.0124V44.5686C73.1449 46.366 74.6148 47.8293 76.4206 47.8293H87.9886C89.5574 47.8295 90.8761 46.7621 91.1955 45.233ZM94.0316 7.82002C93.435 4.92476 90.9438 2.90289 87.9727 2.90289H76.4204C73.0103 2.90289 70.2358 5.66201 70.2358 9.0553V25.6724L62.759 29.4954C61.7104 30.034 61.7084 31.534 62.759 32.0713L70.2358 35.8954V44.5688C70.2358 47.9619 73.0103 50.7248 76.4204 50.7248H87.9884C90.9505 50.7248 93.4403 48.7075 94.0438 45.8222C96.6561 33.3304 96.6521 20.5449 94.0316 7.82002ZM45.5432 13.9687C47.7048 13.9687 49.4633 15.7198 49.4633 17.8695C49.4633 20.0215 47.7048 21.7703 45.5432 21.7703C43.3816 21.7703 41.6231 20.0215 41.6231 17.8695C41.6231 15.7201 43.3818 13.9687 45.5432 13.9687ZM45.5432 24.6655C49.3088 24.6655 52.3725 21.6172 52.3725 17.8695C52.3725 14.1242 49.309 11.0748 45.5432 11.0748C41.7774 11.0748 38.7139 14.1242 38.7139 17.8695C38.7139 21.6172 41.7774 24.6655 45.5432 24.6655ZM28.344 21.7703C26.1819 21.7703 24.4238 20.0215 24.4238 17.8695C24.4238 15.7198 26.1821 13.9687 28.344 13.9687C30.5056 13.9687 32.2636 15.7198 32.2636 17.8695C32.2636 20.0215 30.5056 21.7703 28.344 21.7703ZM28.344 11.0748C24.5784 11.0748 21.5142 14.1242 21.5142 17.8695C21.5142 21.6172 24.5784 24.6655 28.344 24.6655C32.1093 24.6655 35.1732 21.6172 35.1732 17.8695C35.1732 14.1242 32.1093 11.0748 28.344 11.0748ZM51.3061 49.0256L48.6801 63.0256C48.366 64.7017 47.1275 65.9172 45.4445 66.2099V50.2972C45.4444 49.9133 45.2911 49.5451 45.0182 49.2736C44.7454 49.0021 44.3753 48.8496 43.9894 48.8496H43.8679C42.9096 48.9741 42.5236 49.4972 42.5349 50.2972V66.6192C41.1807 66.7748 39.8211 66.8785 38.4589 66.93V55.3309C38.4591 55.1408 38.4216 54.9524 38.3485 54.7767C38.2755 54.6011 38.1684 54.4414 38.0333 54.307C37.8982 54.1725 37.7378 54.0659 37.5612 53.9932C37.3846 53.9205 37.1954 53.8831 37.0043 53.8833H36.8828C35.9704 54.0725 35.5894 54.5947 35.5498 55.3309V66.9604C34.1879 66.935 32.8278 66.8515 31.4731 66.7101V60.3817C31.4731 59.9978 31.3198 59.6297 31.0471 59.3582C30.7743 59.0868 30.4043 58.9342 30.0186 58.9341H29.8975C29.0018 59.1059 28.6187 59.6308 28.5636 60.3817V66.307C26.8037 65.992 25.5524 64.855 25.2241 63.1045L22.5808 49.0135C22.1535 46.737 23.7155 44.6189 26.0252 44.3391C33.2682 43.4624 40.5924 43.4789 47.8591 44.3512C50.1701 44.6288 51.7336 46.7493 51.3061 49.0256ZM52.946 44.2336C51.7885 42.6646 50.1504 41.7113 48.2082 41.4769C40.6767 40.5709 33.0951 40.5661 25.6743 41.4659C21.7033 41.9452 18.9872 45.6312 19.7208 49.5443L22.3638 63.6354C22.8982 66.4808 25.0946 68.6413 27.9597 69.1415C33.8322 70.1653 39.8967 70.0671 45.8892 69.0723C48.7835 68.5915 51.0011 66.4286 51.5399 63.5589L54.1657 49.5578C54.525 47.6436 54.1031 45.8026 52.946 44.2336ZM70.2581 72.129C69.6892 72.4958 69.0019 72.4667 68.4646 72.0561C64.243 68.8256 60.724 65.6233 57.7272 62.2884L61.6232 45.3993C65.726 53.3541 68.8497 61.7722 70.9266 70.4713C71.0834 71.127 70.8275 71.7623 70.2581 72.129ZM36.9435 83.105C44.596 83.105 51.1364 77.9206 52.8484 70.5003L59.4275 41.9796C46.0382 33.6605 27.8497 33.6599 14.4603 41.9796L21.039 70.5003C22.7506 77.9206 29.2907 83.105 36.9435 83.105ZM5.42206 72.0561C4.25857 72.9458 2.62071 71.8918 2.96028 70.4713C5.03747 61.7722 8.16116 53.3541 12.2637 45.3993L16.1597 62.2884C13.1629 65.6233 9.64367 68.8258 5.42206 72.0561ZM16.8991 25.5971C16.8991 28.4875 18.8898 30.8957 21.7403 31.453C31.3965 33.3427 41.6096 33.3099 52.0953 31.351C54.9759 30.8142 56.9881 28.4024 56.9881 25.4841V10.2818C56.9881 7.3733 54.9821 4.96022 52.1101 4.41725C41.5823 2.42556 31.3569 2.38789 21.7208 4.30558C18.8818 4.87146 16.8991 7.27859 16.8991 10.1591V25.5971ZM12.2409 20.7392V14.9998L13.9897 13.9967V21.7447L12.2409 20.7392ZM61.6464 14.9998V20.7392L59.8972 21.7447V13.9967L61.6464 14.9998ZM62.344 40.6048C67.4793 49.7689 71.3199 59.5938 73.7574 69.8021C74.7303 73.8762 70.0137 76.894 66.6906 74.3514C62.9536 71.4902 59.7412 68.6461 56.9381 65.7094L55.6838 71.1464C53.6544 79.9449 46.0165 86 36.9432 86C27.8702 86 20.2326 79.9452 18.2027 71.1464L16.9484 65.7094C14.1451 68.6459 10.9329 71.49 7.19584 74.3514C3.87473 76.8933 -0.843838 73.878 0.129715 69.8021C2.56723 59.5939 6.40774 49.769 11.5427 40.6048L11.5445 40.6073C11.6572 40.4042 11.8175 40.2313 12.0118 40.1033C15.5868 37.7545 19.506 35.9536 23.6557 34.7355C22.8275 34.6023 22.0017 34.455 21.1787 34.2934C16.9458 33.4663 13.9895 29.8899 13.9895 25.5968V25.088L10.0587 22.8291C9.83758 22.7021 9.65394 22.5194 9.52626 22.2994C9.39857 22.0794 9.33134 21.8298 9.33133 21.5758V14.1643C9.33119 13.9104 9.39837 13.6609 9.52608 13.4411C9.65379 13.2213 9.83752 13.0388 10.0587 12.9123L13.9895 10.6534V10.1591C13.9895 5.88074 16.9338 2.30661 21.1501 1.46627C31.1557 -0.524103 41.7557 -0.487758 52.6538 1.57311C56.9186 2.37952 59.8972 5.96202 59.8972 10.2818V10.6534L63.8284 12.9123C64.0496 13.0388 64.2333 13.2213 64.3611 13.4411C64.4888 13.6609 64.556 13.9104 64.5558 14.1643V21.576C64.5558 21.8301 64.4886 22.0796 64.3609 22.2997C64.2332 22.5197 64.0496 22.7023 63.8284 22.8293L59.8972 25.0882V25.4841C59.8972 29.8172 56.9095 33.3986 52.6319 34.1976C51.7376 34.3639 50.8455 34.5156 49.9554 34.6555C54.2069 35.8747 58.2206 37.7025 61.8753 40.1035C62.0695 40.2317 62.2297 40.4045 62.3424 40.6075L62.344 40.6048Z" fill="#1B4671"/>
</svg>
