<svg width="61" height="62" viewBox="0 0 61 62" fill="none" xmlns="http://www.w3.org/2000/svg">
<path d="M33.3242 18.5L33.7531 18.3932C35.469 17.966 37.2305 17.75 38.9988 17.75C43.5262 17.7497 47.9409 19.1623 51.6272 21.7908C55.3136 24.4193 58.0878 28.1326 59.563 32.413C61.0382 36.6934 61.1409 41.3274 59.8568 45.669C58.5727 50.0105 55.9657 53.8431 52.3995 56.6323C48.8332 59.4216 44.4854 61.0284 39.9624 61.2287C35.4394 61.429 30.9666 60.2129 27.1677 57.7499C23.3688 55.2869 20.4332 51.6998 18.7703 47.4888C17.1073 43.2778 16.7999 38.6528 17.891 34.2587L17.9976 33.8292L18.3104 34.1423L19.8828 35.7156L19.9761 35.8089L19.9517 35.9386C19.4296 38.7109 19.5196 41.5638 20.2154 44.2977C20.9112 47.0317 22.196 49.5805 23.9799 51.7659C25.7638 53.9514 28.0037 55.7206 30.5428 56.9499C32.9941 58.1366 35.667 58.7923 38.3869 58.8756C38.2789 58.2678 38.0381 57.69 37.6804 57.184C37.3432 56.7975 36.9354 56.4789 36.4787 56.2452L36.4702 56.2409L36.4621 56.2359L36.4404 56.2227C35.4563 55.6209 33.9671 54.7103 34.1126 52.6885L34.1128 52.6862C34.1685 51.998 34.0876 51.3055 33.8747 50.6487L33.8716 50.6393L33.8718 50.6393C33.2423 48.3998 34.057 45.6649 36.4073 44.7092L36.4108 44.7077L36.4108 44.7078C37.0063 44.4761 37.6436 44.3717 38.2819 44.4012C38.9195 44.4307 39.5439 44.5932 40.1149 44.8783C41.0213 45.3126 41.8298 45.927 42.491 46.6839C42.8329 47.0401 43.0548 47.2613 43.2734 47.397C43.4757 47.5226 43.6822 47.5783 44.0043 47.5652L44.0049 47.5652C44.4655 47.5478 44.9091 47.4528 45.3773 47.3526C45.4454 47.338 45.5139 47.3233 45.5832 47.3087C46.1196 47.1958 46.6875 47.0918 47.2927 47.1359L47.2945 47.1361C48.3902 47.2239 49.4151 47.7121 50.1737 48.5075C52.1647 50.5438 53.5684 51.2643 54.2015 51.5094C56.7812 48.2569 58.2408 44.2611 58.3684 40.1177M33.3242 18.5L55.0136 40.6048M33.3242 18.5L33.6368 18.8126L35.2096 20.3854L35.303 20.4788L35.4327 20.4543C38.8047 19.8184 42.2852 20.0923 45.5163 21.2478C48.6621 22.3729 51.4608 24.294 53.6405 26.8219M33.3242 18.5L18.0649 34.6039M58.3684 40.1177C58.0877 40.3177 57.7656 40.5028 57.3517 40.6397C56.7735 40.831 56.0337 40.9227 54.9971 40.8542M58.3684 40.1177C58.457 40.0545 58.5415 39.9899 58.6234 39.9248C58.6243 39.8806 58.6251 39.8364 58.6257 39.7922L58.534 39.6761C58.4819 39.7183 58.4292 39.7601 58.3756 39.8013M54.9971 40.8542L55.0136 40.6048M54.9971 40.8542C54.9973 40.8542 54.9974 40.8542 54.9976 40.8543L55.0136 40.6048M54.9971 40.8542C54.4207 40.8172 54.074 40.8938 53.8047 41.0354C53.527 41.1816 53.3076 41.4072 52.9945 41.7354M55.0136 40.6048C53.802 40.5268 53.4276 40.9193 52.8082 41.5685L52.8073 41.5694M52.9945 41.7354C52.9965 41.733 52.9985 41.7305 53.0005 41.7281L52.8073 41.5694M52.9945 41.7354C52.3197 42.5535 51.3979 43.1311 50.3672 43.3815L50.3629 43.3825L50.3629 43.3825C49.5786 43.5586 48.6819 43.5004 47.892 43.2053C47.1012 42.91 46.3976 42.3688 46.0365 41.5638L46.0365 41.5638C45.5754 40.535 45.6755 39.5032 45.7656 38.5747L45.7682 38.5481L45.7692 38.5375L45.7695 38.5375C45.8646 37.8603 45.8683 37.1734 45.7805 36.4952M52.9945 41.7354C52.9924 41.7376 52.9903 41.7398 52.9882 41.742L52.8073 41.5694M52.8073 41.5694L45.7805 36.4952M45.7805 36.4952C45.7808 36.4968 45.781 36.4984 45.7813 36.4999L46.0278 36.458M45.7805 36.4952L50.3081 43.1385C48.8353 43.4693 46.9191 42.9204 46.2646 41.4615C45.8307 40.4934 45.9252 39.5188 46.0167 38.5758L46.017 38.5723C46.1155 37.8712 46.1191 37.16 46.0278 36.458M45.7805 36.4952C45.6816 35.9253 45.2505 35.5174 44.6458 34.9635C44.6458 34.9635 44.6458 34.9635 44.6457 34.9635L44.6271 34.9464C43.8384 34.2246 42.7539 33.2321 42.9866 31.5341C43.0862 30.8064 43.3318 30.2425 43.6864 29.8107C44.0405 29.3796 44.4917 29.0941 44.9811 28.9044C45.9405 28.5324 47.0807 28.5178 47.9978 28.5061L48.0192 28.5059L48.0259 28.5058L48.0259 28.5059C48.7072 28.5154 49.3882 28.4725 50.0628 28.3774C51.3452 28.094 52.5599 27.5655 53.6405 26.8219M45.7805 36.4952C45.7803 36.4936 45.7801 36.4919 45.7799 36.4903L46.0278 36.458M46.0278 36.458C45.9134 35.7856 45.4045 35.3195 44.8153 34.7797L44.8146 34.7791C44.0149 34.0471 43.0194 33.1357 43.2343 31.568C43.6113 28.8124 46.1604 28.7797 48.0224 28.7558C48.7198 28.7656 49.4168 28.7214 50.1073 28.6236C51.433 28.3319 52.6883 27.7846 53.8033 27.0133L53.6405 26.8219M18.0649 34.6039C17.069 38.862 17.3949 43.3253 19.0028 47.3969C20.6466 51.5595 23.5485 55.1054 27.3037 57.5401C31.0589 59.9748 35.4803 61.177 39.9513 60.9789C44.4224 60.7809 48.7202 59.1926 52.2455 56.4354C55.7707 53.6782 58.3477 49.8897 59.6171 45.5981C60.8864 41.3064 60.7849 36.7256 59.3266 32.4945C57.8684 28.2633 55.1261 24.5926 51.4821 21.9944C47.8381 19.3961 43.4742 17.9997 38.9988 18C37.3486 18 35.7042 18.1903 34.0983 18.5669L33.9903 18.459L33.8135 18.6358L33.8739 18.8784C33.9227 18.8662 33.9714 18.8543 34.0202 18.8425L35.3864 20.2086C38.802 19.5645 42.3276 19.842 45.6005 21.0124C48.7946 22.1547 51.6355 24.1074 53.8456 26.677C53.7778 26.7262 53.7094 26.7745 53.6405 26.8219M18.0649 34.6039L17.9568 34.4957L18.1336 34.319L18.3762 34.3792C18.3641 34.4281 18.3521 34.477 18.3404 34.5259L19.706 35.8923C19.1772 38.7004 19.2683 41.5902 19.9731 44.3594C20.6779 47.1286 21.9793 49.7104 23.7862 51.924C25.5931 54.1377 27.862 55.9298 30.4339 57.1749C32.9301 58.3834 35.6534 59.0483 38.4238 59.1268L18.0649 34.6039ZM38.2704 44.6509C37.667 44.623 37.0644 44.7217 36.5014 44.9407L44.0144 47.815C43.2871 47.8445 42.9834 47.5581 42.3066 46.8527C41.6665 46.1188 40.8833 45.5234 40.005 45.1028C39.4646 44.8328 38.8738 44.6788 38.2704 44.6509Z" fill="#B6CB23" stroke="#B6CB23" stroke-width="0.5"/>
<mask id="path-2-outside-1_15_236" maskUnits="userSpaceOnUse" x="-0.5" y="0" width="40" height="47" fill="black">
<rect fill="white" x="-0.5" width="40" height="47"/>
<path d="M38.0535 26.4677C37.6991 25.8156 37.1507 25.2923 36.4858 24.9718C36.0615 25.517 35.4543 25.8866 34.7787 26.0109L34.0605 26.1417C34.253 26.1986 34.4435 26.2564 34.6458 26.3056C35.5583 26.5264 36.145 26.8771 36.3891 27.3481C36.7575 28.0588 36.3567 29.1012 36.1417 29.6612C35.7411 30.5037 35.5431 31.4297 35.5639 32.3639C35.6878 33.2553 35.9603 34.1192 36.3698 34.9188C36.9861 36.2639 36.4379 36.9609 35.4264 37.5949C34.8378 37.9884 34.3696 38.5397 34.0741 39.1869C33.3457 38.9263 31.1312 38.2762 29.4485 39.3078C28.7599 39.7295 27.8977 40.6098 27.7034 42.407C27.7035 42.7516 27.6014 43.0883 27.4103 43.3737C27.2191 43.6592 26.9476 43.8803 26.6308 44.0085C26.4184 44.097 26.187 44.1286 25.9589 44.1004C25.7308 44.0721 25.5138 43.985 25.3288 43.8474C25.0974 43.6247 25.2068 43.2765 25.2922 43.0111C25.5954 42.0839 26.2258 40.154 24.0972 38.1213C23.9486 37.9905 23.8315 37.8274 23.7545 37.6442C23.1747 37.9376 22.5111 38.0158 21.8799 37.865C21.9973 38.4997 22.3238 39.0758 22.8064 39.4997C24.0676 40.7041 23.7836 41.575 23.5081 42.417C23.3219 42.9448 23.2787 43.5132 23.3828 44.0635C23.6536 45.303 24.9148 46 26.0972 46C28.0127 46 29.3724 44.4553 29.571 42.6122C29.6616 41.7759 29.9404 41.2253 30.4229 40.9296C31.3222 40.3786 32.8143 40.724 33.5545 41.0149C33.9587 41.174 34.4079 41.1702 34.8094 41.0044C35.2108 40.8386 35.5339 40.5235 35.7118 40.1241C35.8591 39.7591 36.1027 39.4418 36.4163 39.2068C39.1123 37.5186 38.6129 35.2969 38.075 34.1227C37.7915 33.5588 37.6031 32.9511 37.5179 32.3246C37.4783 31.6443 37.607 30.9648 37.8925 30.3473C38.3571 29.1154 38.6937 27.7025 38.0535 26.4677ZM18.3666 31.7257C18.3475 31.8701 18.3616 32.0171 18.4078 32.1551C18.4541 32.2932 18.5312 32.4186 18.6332 32.5217L21.8451 35.765C21.9676 35.8856 22.1198 35.971 22.2859 36.0122C22.452 36.0535 22.6261 36.0491 22.79 35.9995C22.9537 35.9477 23.1003 35.8517 23.2138 35.7218C23.3273 35.5919 23.4034 35.4332 23.434 35.2627L25.1148 25.8418L34.4459 24.1446C34.6146 24.1137 34.7719 24.0369 34.9004 23.9223C35.029 23.8077 35.1241 23.6598 35.1754 23.4946C35.2266 23.3294 35.2321 23.1531 35.1912 22.985C35.1503 22.8168 35.0646 22.6632 34.9434 22.5407L31.7315 19.2974C31.6295 19.1942 31.5052 19.1163 31.3685 19.0695C31.2317 19.0227 31.0861 19.0085 30.943 19.0278L24.0277 19.9612L18.7018 13.7973L29.7836 8.9823C29.9245 8.92115 30.0485 8.82609 30.1446 8.70544C30.2407 8.58478 30.3061 8.44219 30.3351 8.29013C30.364 8.13807 30.3556 7.98118 30.3106 7.83315C30.2656 7.68512 30.1854 7.55047 30.077 7.44096L26.5614 3.89109C26.4444 3.77294 26.2986 3.6881 26.1387 3.64517C25.9788 3.60223 25.8105 3.60273 25.6508 3.6466L12.9985 7.12729L9.01631 2.60846C8.56479 2.11907 8.02148 1.72507 7.41792 1.44932C6.81435 1.17358 6.16255 1.02157 5.50034 1.00213C4.83812 0.982696 4.17867 1.09621 3.56025 1.33609C2.94184 1.57596 2.37677 1.93743 1.89784 2.39951C1.43672 2.88128 1.07569 3.45128 0.835996 4.07597C0.596303 4.70066 0.482782 5.36744 0.502112 6.03707C0.521442 6.7067 0.673232 7.36567 0.948554 7.97522C1.22388 8.58476 1.61717 9.13257 2.1053 9.58642L6.56761 13.5959L2.84784 26.0631C2.79888 26.2271 2.79489 26.4016 2.8363 26.5678C2.87771 26.734 2.96296 26.8857 3.083 27.0069L6.891 30.8515C6.9994 30.961 7.13272 31.042 7.2793 31.0874C7.42589 31.1329 7.58127 31.1414 7.73186 31.1122C7.88246 31.0831 8.02368 31.0171 8.14318 30.9201C8.26269 30.8231 8.35684 30.698 8.41739 30.5558L13.1862 19.3665L19.2913 24.7439L18.3666 31.7257ZM13.45 17.0823C13.3385 16.9839 13.2056 16.9136 13.0621 16.877C12.9185 16.8404 12.7685 16.8386 12.6241 16.8717C12.4798 16.9048 12.3452 16.972 12.2315 17.0676C12.1177 17.1632 12.028 17.2847 11.9696 17.422L7.23927 28.5222L4.8084 26.0678L8.53896 13.5637C8.5906 13.3906 8.59214 13.2062 8.5434 13.0323C8.49467 12.8583 8.3977 12.7021 8.26391 12.5819L3.3543 8.17064C3.04726 7.89486 2.79927 7.55867 2.62554 7.18268C2.45182 6.80669 2.35602 6.39884 2.34402 5.98414C2.33202 5.56944 2.40408 5.15664 2.55577 4.77106C2.70746 4.38547 2.93559 4.03524 3.22616 3.74184C3.51669 3.44844 3.86356 3.21806 4.24547 3.06486C4.62738 2.91166 5.03628 2.83885 5.44707 2.85092C5.85785 2.86299 6.26187 2.95968 6.6343 3.13504C7.00674 3.31041 7.33975 3.56076 7.61289 3.87072L11.9823 8.82831C12.0985 8.96003 12.2488 9.05642 12.4163 9.10665C12.5837 9.15687 12.7618 9.15893 12.9304 9.1126L25.6184 5.62243L27.7691 7.79348L16.7759 12.5696C16.6399 12.6286 16.5196 12.7192 16.4249 12.8341C16.3301 12.949 16.2637 13.0848 16.2309 13.2306C16.198 13.3763 16.1998 13.5279 16.2361 13.6728C16.2723 13.8177 16.342 13.9519 16.4394 14.0645L22.9439 21.593C23.0459 21.711 23.1752 21.8017 23.3203 21.857C23.4655 21.9122 23.6219 21.9303 23.7757 21.9095L30.7317 20.9704L32.345 22.5999L24.1399 24.0924C23.9513 24.1268 23.7777 24.2184 23.6422 24.3552C23.5067 24.492 23.4159 24.6673 23.3819 24.8577L21.9033 33.1415L20.2901 31.5125L21.2199 24.4904C21.2406 24.335 21.2227 24.1769 21.168 24.0301C21.1133 23.8833 21.0234 23.7525 20.9064 23.6494L13.45 17.0823Z"/>
</mask>
<path d="M38.0535 26.4677C37.6991 25.8156 37.1507 25.2923 36.4858 24.9718C36.0615 25.517 35.4543 25.8866 34.7787 26.0109L34.0605 26.1417C34.253 26.1986 34.4435 26.2564 34.6458 26.3056C35.5583 26.5264 36.145 26.8771 36.3891 27.3481C36.7575 28.0588 36.3567 29.1012 36.1417 29.6612C35.7411 30.5037 35.5431 31.4297 35.5639 32.3639C35.6878 33.2553 35.9603 34.1192 36.3698 34.9188C36.9861 36.2639 36.4379 36.9609 35.4264 37.5949C34.8378 37.9884 34.3696 38.5397 34.0741 39.1869C33.3457 38.9263 31.1312 38.2762 29.4485 39.3078C28.7599 39.7295 27.8977 40.6098 27.7034 42.407C27.7035 42.7516 27.6014 43.0883 27.4103 43.3737C27.2191 43.6592 26.9476 43.8803 26.6308 44.0085C26.4184 44.097 26.187 44.1286 25.9589 44.1004C25.7308 44.0721 25.5138 43.985 25.3288 43.8474C25.0974 43.6247 25.2068 43.2765 25.2922 43.0111C25.5954 42.0839 26.2258 40.154 24.0972 38.1213C23.9486 37.9905 23.8315 37.8274 23.7545 37.6442C23.1747 37.9376 22.5111 38.0158 21.8799 37.865C21.9973 38.4997 22.3238 39.0758 22.8064 39.4997C24.0676 40.7041 23.7836 41.575 23.5081 42.417C23.3219 42.9448 23.2787 43.5132 23.3828 44.0635C23.6536 45.303 24.9148 46 26.0972 46C28.0127 46 29.3724 44.4553 29.571 42.6122C29.6616 41.7759 29.9404 41.2253 30.4229 40.9296C31.3222 40.3786 32.8143 40.724 33.5545 41.0149C33.9587 41.174 34.4079 41.1702 34.8094 41.0044C35.2108 40.8386 35.5339 40.5235 35.7118 40.1241C35.8591 39.7591 36.1027 39.4418 36.4163 39.2068C39.1123 37.5186 38.6129 35.2969 38.075 34.1227C37.7915 33.5588 37.6031 32.9511 37.5179 32.3246C37.4783 31.6443 37.607 30.9648 37.8925 30.3473C38.3571 29.1154 38.6937 27.7025 38.0535 26.4677ZM18.3666 31.7257C18.3475 31.8701 18.3616 32.0171 18.4078 32.1551C18.4541 32.2932 18.5312 32.4186 18.6332 32.5217L21.8451 35.765C21.9676 35.8856 22.1198 35.971 22.2859 36.0122C22.452 36.0535 22.6261 36.0491 22.79 35.9995C22.9537 35.9477 23.1003 35.8517 23.2138 35.7218C23.3273 35.5919 23.4034 35.4332 23.434 35.2627L25.1148 25.8418L34.4459 24.1446C34.6146 24.1137 34.7719 24.0369 34.9004 23.9223C35.029 23.8077 35.1241 23.6598 35.1754 23.4946C35.2266 23.3294 35.2321 23.1531 35.1912 22.985C35.1503 22.8168 35.0646 22.6632 34.9434 22.5407L31.7315 19.2974C31.6295 19.1942 31.5052 19.1163 31.3685 19.0695C31.2317 19.0227 31.0861 19.0085 30.943 19.0278L24.0277 19.9612L18.7018 13.7973L29.7836 8.9823C29.9245 8.92115 30.0485 8.82609 30.1446 8.70544C30.2407 8.58478 30.3061 8.44219 30.3351 8.29013C30.364 8.13807 30.3556 7.98118 30.3106 7.83315C30.2656 7.68512 30.1854 7.55047 30.077 7.44096L26.5614 3.89109C26.4444 3.77294 26.2986 3.6881 26.1387 3.64517C25.9788 3.60223 25.8105 3.60273 25.6508 3.6466L12.9985 7.12729L9.01631 2.60846C8.56479 2.11907 8.02148 1.72507 7.41792 1.44932C6.81435 1.17358 6.16255 1.02157 5.50034 1.00213C4.83812 0.982696 4.17867 1.09621 3.56025 1.33609C2.94184 1.57596 2.37677 1.93743 1.89784 2.39951C1.43672 2.88128 1.07569 3.45128 0.835996 4.07597C0.596303 4.70066 0.482782 5.36744 0.502112 6.03707C0.521442 6.7067 0.673232 7.36567 0.948554 7.97522C1.22388 8.58476 1.61717 9.13257 2.1053 9.58642L6.56761 13.5959L2.84784 26.0631C2.79888 26.2271 2.79489 26.4016 2.8363 26.5678C2.87771 26.734 2.96296 26.8857 3.083 27.0069L6.891 30.8515C6.9994 30.961 7.13272 31.042 7.2793 31.0874C7.42589 31.1329 7.58127 31.1414 7.73186 31.1122C7.88246 31.0831 8.02368 31.0171 8.14318 30.9201C8.26269 30.8231 8.35684 30.698 8.41739 30.5558L13.1862 19.3665L19.2913 24.7439L18.3666 31.7257ZM13.45 17.0823C13.3385 16.9839 13.2056 16.9136 13.0621 16.877C12.9185 16.8404 12.7685 16.8386 12.6241 16.8717C12.4798 16.9048 12.3452 16.972 12.2315 17.0676C12.1177 17.1632 12.028 17.2847 11.9696 17.422L7.23927 28.5222L4.8084 26.0678L8.53896 13.5637C8.5906 13.3906 8.59214 13.2062 8.5434 13.0323C8.49467 12.8583 8.3977 12.7021 8.26391 12.5819L3.3543 8.17064C3.04726 7.89486 2.79927 7.55867 2.62554 7.18268C2.45182 6.80669 2.35602 6.39884 2.34402 5.98414C2.33202 5.56944 2.40408 5.15664 2.55577 4.77106C2.70746 4.38547 2.93559 4.03524 3.22616 3.74184C3.51669 3.44844 3.86356 3.21806 4.24547 3.06486C4.62738 2.91166 5.03628 2.83885 5.44707 2.85092C5.85785 2.86299 6.26187 2.95968 6.6343 3.13504C7.00674 3.31041 7.33975 3.56076 7.61289 3.87072L11.9823 8.82831C12.0985 8.96003 12.2488 9.05642 12.4163 9.10665C12.5837 9.15687 12.7618 9.15893 12.9304 9.1126L25.6184 5.62243L27.7691 7.79348L16.7759 12.5696C16.6399 12.6286 16.5196 12.7192 16.4249 12.8341C16.3301 12.949 16.2637 13.0848 16.2309 13.2306C16.198 13.3763 16.1998 13.5279 16.2361 13.6728C16.2723 13.8177 16.342 13.9519 16.4394 14.0645L22.9439 21.593C23.0459 21.711 23.1752 21.8017 23.3203 21.857C23.4655 21.9122 23.6219 21.9303 23.7757 21.9095L30.7317 20.9704L32.345 22.5999L24.1399 24.0924C23.9513 24.1268 23.7777 24.2184 23.6422 24.3552C23.5067 24.492 23.4159 24.6673 23.3819 24.8577L21.9033 33.1415L20.2901 31.5125L21.2199 24.4904C21.2406 24.335 21.2227 24.1769 21.168 24.0301C21.1133 23.8833 21.0234 23.7525 20.9064 23.6494L13.45 17.0823Z" fill="#B6CB23"/>
<path d="M38.0535 26.4677C37.6991 25.8156 37.1507 25.2923 36.4858 24.9718C36.0615 25.517 35.4543 25.8866 34.7787 26.0109L34.0605 26.1417C34.253 26.1986 34.4435 26.2564 34.6458 26.3056C35.5583 26.5264 36.145 26.8771 36.3891 27.3481C36.7575 28.0588 36.3567 29.1012 36.1417 29.6612C35.7411 30.5037 35.5431 31.4297 35.5639 32.3639C35.6878 33.2553 35.9603 34.1192 36.3698 34.9188C36.9861 36.2639 36.4379 36.9609 35.4264 37.5949C34.8378 37.9884 34.3696 38.5397 34.0741 39.1869C33.3457 38.9263 31.1312 38.2762 29.4485 39.3078C28.7599 39.7295 27.8977 40.6098 27.7034 42.407C27.7035 42.7516 27.6014 43.0883 27.4103 43.3737C27.2191 43.6592 26.9476 43.8803 26.6308 44.0085C26.4184 44.097 26.187 44.1286 25.9589 44.1004C25.7308 44.0721 25.5138 43.985 25.3288 43.8474C25.0974 43.6247 25.2068 43.2765 25.2922 43.0111C25.5954 42.0839 26.2258 40.154 24.0972 38.1213C23.9486 37.9905 23.8315 37.8274 23.7545 37.6442C23.1747 37.9376 22.5111 38.0158 21.8799 37.865C21.9973 38.4997 22.3238 39.0758 22.8064 39.4997C24.0676 40.7041 23.7836 41.575 23.5081 42.417C23.3219 42.9448 23.2787 43.5132 23.3828 44.0635C23.6536 45.303 24.9148 46 26.0972 46C28.0127 46 29.3724 44.4553 29.571 42.6122C29.6616 41.7759 29.9404 41.2253 30.4229 40.9296C31.3222 40.3786 32.8143 40.724 33.5545 41.0149C33.9587 41.174 34.4079 41.1702 34.8094 41.0044C35.2108 40.8386 35.5339 40.5235 35.7118 40.1241C35.8591 39.7591 36.1027 39.4418 36.4163 39.2068C39.1123 37.5186 38.6129 35.2969 38.075 34.1227C37.7915 33.5588 37.6031 32.9511 37.5179 32.3246C37.4783 31.6443 37.607 30.9648 37.8925 30.3473C38.3571 29.1154 38.6937 27.7025 38.0535 26.4677ZM18.3666 31.7257C18.3475 31.8701 18.3616 32.0171 18.4078 32.1551C18.4541 32.2932 18.5312 32.4186 18.6332 32.5217L21.8451 35.765C21.9676 35.8856 22.1198 35.971 22.2859 36.0122C22.452 36.0535 22.6261 36.0491 22.79 35.9995C22.9537 35.9477 23.1003 35.8517 23.2138 35.7218C23.3273 35.5919 23.4034 35.4332 23.434 35.2627L25.1148 25.8418L34.4459 24.1446C34.6146 24.1137 34.7719 24.0369 34.9004 23.9223C35.029 23.8077 35.1241 23.6598 35.1754 23.4946C35.2266 23.3294 35.2321 23.1531 35.1912 22.985C35.1503 22.8168 35.0646 22.6632 34.9434 22.5407L31.7315 19.2974C31.6295 19.1942 31.5052 19.1163 31.3685 19.0695C31.2317 19.0227 31.0861 19.0085 30.943 19.0278L24.0277 19.9612L18.7018 13.7973L29.7836 8.9823C29.9245 8.92115 30.0485 8.82609 30.1446 8.70544C30.2407 8.58478 30.3061 8.44219 30.3351 8.29013C30.364 8.13807 30.3556 7.98118 30.3106 7.83315C30.2656 7.68512 30.1854 7.55047 30.077 7.44096L26.5614 3.89109C26.4444 3.77294 26.2986 3.6881 26.1387 3.64517C25.9788 3.60223 25.8105 3.60273 25.6508 3.6466L12.9985 7.12729L9.01631 2.60846C8.56479 2.11907 8.02148 1.72507 7.41792 1.44932C6.81435 1.17358 6.16255 1.02157 5.50034 1.00213C4.83812 0.982696 4.17867 1.09621 3.56025 1.33609C2.94184 1.57596 2.37677 1.93743 1.89784 2.39951C1.43672 2.88128 1.07569 3.45128 0.835996 4.07597C0.596303 4.70066 0.482782 5.36744 0.502112 6.03707C0.521442 6.7067 0.673232 7.36567 0.948554 7.97522C1.22388 8.58476 1.61717 9.13257 2.1053 9.58642L6.56761 13.5959L2.84784 26.0631C2.79888 26.2271 2.79489 26.4016 2.8363 26.5678C2.87771 26.734 2.96296 26.8857 3.083 27.0069L6.891 30.8515C6.9994 30.961 7.13272 31.042 7.2793 31.0874C7.42589 31.1329 7.58127 31.1414 7.73186 31.1122C7.88246 31.0831 8.02368 31.0171 8.14318 30.9201C8.26269 30.8231 8.35684 30.698 8.41739 30.5558L13.1862 19.3665L19.2913 24.7439L18.3666 31.7257ZM13.45 17.0823C13.3385 16.9839 13.2056 16.9136 13.0621 16.877C12.9185 16.8404 12.7685 16.8386 12.6241 16.8717C12.4798 16.9048 12.3452 16.972 12.2315 17.0676C12.1177 17.1632 12.028 17.2847 11.9696 17.422L7.23927 28.5222L4.8084 26.0678L8.53896 13.5637C8.5906 13.3906 8.59214 13.2062 8.5434 13.0323C8.49467 12.8583 8.3977 12.7021 8.26391 12.5819L3.3543 8.17064C3.04726 7.89486 2.79927 7.55867 2.62554 7.18268C2.45182 6.80669 2.35602 6.39884 2.34402 5.98414C2.33202 5.56944 2.40408 5.15664 2.55577 4.77106C2.70746 4.38547 2.93559 4.03524 3.22616 3.74184C3.51669 3.44844 3.86356 3.21806 4.24547 3.06486C4.62738 2.91166 5.03628 2.83885 5.44707 2.85092C5.85785 2.86299 6.26187 2.95968 6.6343 3.13504C7.00674 3.31041 7.33975 3.56076 7.61289 3.87072L11.9823 8.82831C12.0985 8.96003 12.2488 9.05642 12.4163 9.10665C12.5837 9.15687 12.7618 9.15893 12.9304 9.1126L25.6184 5.62243L27.7691 7.79348L16.7759 12.5696C16.6399 12.6286 16.5196 12.7192 16.4249 12.8341C16.3301 12.949 16.2637 13.0848 16.2309 13.2306C16.198 13.3763 16.1998 13.5279 16.2361 13.6728C16.2723 13.8177 16.342 13.9519 16.4394 14.0645L22.9439 21.593C23.0459 21.711 23.1752 21.8017 23.3203 21.857C23.4655 21.9122 23.6219 21.9303 23.7757 21.9095L30.7317 20.9704L32.345 22.5999L24.1399 24.0924C23.9513 24.1268 23.7777 24.2184 23.6422 24.3552C23.5067 24.492 23.4159 24.6673 23.3819 24.8577L21.9033 33.1415L20.2901 31.5125L21.2199 24.4904C21.2406 24.335 21.2227 24.1769 21.168 24.0301C21.1133 23.8833 21.0234 23.7525 20.9064 23.6494L13.45 17.0823Z" stroke="#B6CB23" mask="url(#path-2-outside-1_15_236)"/>
</svg>
