<svg width="57" height="56" viewBox="0 0 57 56" fill="none" xmlns="http://www.w3.org/2000/svg">
<path d="M0.262676 5.19019L3.99034 11.7131C4.05259 11.8222 4.13626 11.9176 4.23632 11.9934C4.33638 12.0693 4.45076 12.1242 4.57257 12.1547L8.05029 13.0242L19.9779 24.9518L21.2959 23.6342L9.18149 11.5203C9.06232 11.4008 8.91284 11.316 8.74911 11.275L5.40761 10.4366L2.23392 4.87969L4.95481 2.15869L10.514 5.33553L11.3527 8.67703C11.3935 8.841 11.4782 8.99076 11.5977 9.1102L23.7121 21.2246L25.0295 19.9066L13.102 7.97899L12.2325 4.50324C12.202 4.38126 12.1471 4.26671 12.0713 4.16646C11.9954 4.0662 11.9 3.98231 11.7909 3.91983L5.26757 0.192558C5.09044 0.0918626 4.88519 0.0519953 4.68324 0.0790597C4.48129 0.106124 4.29378 0.198629 4.14942 0.34241L0.422244 4.07007C0.276439 4.21341 0.181827 4.40072 0.152991 4.60314C0.124156 4.80556 0.162698 5.01184 0.262676 5.19019ZM39.005 18.4285L18.5043 38.9294L17.1864 37.6115L37.6875 17.1111L39.005 18.4285ZM14.9163 39.6548C14.8335 39.5169 14.7164 39.4028 14.5764 39.3236C14.4364 39.2444 14.2782 39.2028 14.1174 39.2028H8.52634C8.36556 39.2028 8.20751 39.2444 8.06759 39.3236C7.92767 39.4028 7.81064 39.5169 7.72791 39.6548L4.93214 44.3139C4.84505 44.4589 4.79904 44.6248 4.79904 44.7938C4.79904 44.9629 4.84505 45.1288 4.93214 45.2738L7.72791 49.9329C7.81071 50.0707 7.92775 50.1848 8.06765 50.264C8.20756 50.3432 8.36558 50.3848 8.52634 50.3848H14.1174C14.2782 50.3848 14.4363 50.3432 14.5763 50.264C14.7162 50.1848 14.8333 50.0708 14.9162 49.9329L17.7116 45.2738C17.7987 45.1288 17.8447 44.9629 17.8447 44.7938C17.8447 44.6248 17.7987 44.4589 17.7116 44.3139L14.9163 39.6548ZM13.5903 48.5211H9.05382L6.81741 44.794L9.05391 41.0663H13.5903L15.8267 44.794L13.5903 48.5211Z" fill="#B6CB23"/>
<path d="M44.8686 22.4293C51.0231 22.45 56.0296 17.4774 56.0502 11.3228C56.0533 10.3861 55.9383 9.45271 55.708 8.54477C55.5837 8.04526 55.0781 7.74123 54.5786 7.86547C54.4148 7.90647 54.2651 7.99112 54.1455 8.11042L48.3447 13.9073L43.7424 12.3735L42.2075 7.77234L48.0082 1.9705C48.125 1.85364 48.2086 1.70783 48.2505 1.54801C48.2924 1.38818 48.291 1.2201 48.2466 1.06097C48.2021 0.901848 48.1161 0.757409 47.9974 0.642459C47.8788 0.527509 47.7317 0.446181 47.5712 0.406812C41.6026 -1.10466 35.5392 2.50828 34.0278 8.47646C33.7981 9.38192 33.6835 10.3127 33.6865 11.2468C33.6889 11.9806 33.7644 12.712 33.9131 13.4303L13.5053 33.838C12.7869 33.6898 12.0556 33.6139 11.3221 33.6114C5.14611 33.6114 0.139648 38.6178 0.139648 44.7939C0.139648 50.9696 5.14611 55.9759 11.3221 55.9759C17.4978 55.9759 22.5042 50.9695 22.5042 44.7939C22.5018 44.0603 22.4259 43.3288 22.2776 42.6104L27.1633 37.7247L29.3 39.8614C29.4748 40.0362 29.7118 40.1343 29.959 40.1343C30.2061 40.1343 30.4432 40.0362 30.618 39.8614L31.0837 39.3953C31.4923 38.9893 32.1528 38.9893 32.5614 39.3953C32.9697 39.8024 32.9705 40.4633 32.5634 40.8716L32.5614 40.8735L32.0957 41.3392C31.7319 41.7029 31.7319 42.293 32.0957 42.6567L43.2118 53.7728C46.1356 56.7233 50.8974 56.7448 53.8479 53.8211C56.7982 50.8973 56.8196 46.1351 53.8959 43.1849C53.8802 43.1688 53.8641 43.1527 53.8479 43.1366L42.732 32.0208C42.3682 31.6571 41.7782 31.6571 41.4144 32.0208L40.9486 32.4866C40.5396 32.893 39.8796 32.893 39.4705 32.4866C39.0626 32.0795 39.0615 31.4187 39.4686 31.0107C39.4694 31.0101 39.4701 31.0097 39.4705 31.0088L39.9367 30.5426C40.3005 30.1789 40.3005 29.589 39.9367 29.2252L37.7999 27.0885L42.6855 22.2027C43.4039 22.3511 44.1353 22.4271 44.8687 22.4294L44.8686 22.4293ZM48.5299 54.1124C47.853 54.1113 47.1817 53.9889 46.548 53.7509L53.8257 46.4728C54.924 49.3943 53.4462 52.6527 50.5248 53.7509C49.887 53.9906 49.2112 54.1131 48.5299 54.1124ZM37.9731 29.8934C36.9411 31.1243 37.1029 32.9589 38.3338 33.9905C39.4156 34.8971 40.9923 34.8963 42.0729 33.9878L52.5305 44.4546C52.6439 44.5684 52.7501 44.6883 52.8528 44.8103L44.8854 52.7776C44.762 52.6754 44.6432 52.5679 44.5293 52.4552L34.0638 41.9889C35.0958 40.758 34.9339 38.9233 33.703 37.8918C32.6213 36.9847 31.0442 36.986 29.9636 37.894L28.4727 36.4033L36.4819 28.4059L37.9731 29.8934ZM41.736 20.5211L20.5966 41.6561C20.4827 41.77 20.4001 41.9113 20.357 42.0665C20.3139 42.2216 20.3116 42.3853 20.3505 42.5416C21.6289 47.5622 18.5951 52.6688 13.5742 53.9469C8.55356 55.2252 3.4471 52.1914 2.16859 47.1705C0.890578 42.1499 3.92423 37.0434 8.94531 35.765C10.4641 35.3786 12.0554 35.3786 13.5742 35.765C13.7304 35.8032 13.8939 35.8007 14.049 35.7577C14.204 35.7147 14.3454 35.6326 14.4596 35.5193L35.594 14.3838C35.7078 14.27 35.7902 14.1286 35.8332 13.9735C35.8761 13.8184 35.8781 13.6548 35.8389 13.4986C34.5693 8.53672 37.5624 3.48502 42.5244 2.21505C43.4622 1.97524 44.4318 1.88365 45.3979 1.94361L40.4823 6.86116C40.3599 6.98338 40.274 7.13727 40.2342 7.30558C40.1944 7.47388 40.2022 7.64996 40.2569 7.81405L42.1204 13.4055C42.1663 13.5427 42.2435 13.6673 42.3459 13.7695C42.4483 13.8716 42.573 13.9486 42.7103 13.9943L48.3017 15.8581C48.4657 15.9127 48.6417 15.9207 48.81 15.881C48.9783 15.8413 49.1322 15.7556 49.2546 15.6335L54.1702 10.7179C54.1814 10.894 54.187 11.0704 54.1872 11.2468C54.2132 16.3672 50.0838 20.539 44.9635 20.5655C44.172 20.5694 43.3832 20.472 42.6164 20.2757C42.4602 20.2367 42.2965 20.2387 42.1414 20.2816C41.9862 20.3245 41.8448 20.4069 41.7309 20.5207H41.7358L41.736 20.5211Z" fill="#B6CB23"/>
<path d="M48.324 46.93L47.0061 48.248L37.6879 38.9298L39.0054 37.6118L48.324 46.93Z" fill="#B6CB23"/>
</svg>
