<svg width="70" height="60" viewBox="0 0 70 60" fill="none" xmlns="http://www.w3.org/2000/svg">
<path d="M54.635 14.5327C58.455 14.5327 61.5625 11.4252 61.5625 7.60523C61.5625 3.78523 58.455 0.677734 54.635 0.677734C50.815 0.677734 47.7075 3.78648 47.7075 7.60523C47.7075 11.424 50.815 14.5327 54.635 14.5327ZM54.635 3.17773C55.8089 3.17906 56.9342 3.64595 57.7643 4.47598C58.5943 5.30601 59.0612 6.43139 59.0625 7.60523C59.0625 10.0465 57.0763 12.0327 54.635 12.0327C52.1938 12.0327 50.2075 10.0465 50.2075 7.60523C50.2088 6.43139 50.6757 5.30601 51.5058 4.47598C52.3358 3.64595 53.4612 3.17906 54.635 3.17773Z" fill="#B6CB23"/>
<path d="M61.6275 15.965H46.665C45.0838 15.965 43.5825 16.565 42.4375 17.6525L40.0213 19.945L38.5375 18.7963V1.92627C38.5375 1.59475 38.4058 1.27681 38.1714 1.04239C37.937 0.807965 37.619 0.67627 37.2875 0.67627H6.82501C6.49349 0.67627 6.17555 0.807965 5.94113 1.04239C5.70671 1.27681 5.57501 1.59475 5.57501 1.92627V22.5513C5.57501 22.8828 5.70671 23.2007 5.94113 23.4352C6.17555 23.6696 6.49349 23.8013 6.82501 23.8013H31.1313L37.3013 28.4163C38.9888 29.68 41.2738 29.8375 43.0738 28.845L45.5763 27.595V47.92C45.5779 49.2864 46.1214 50.5963 47.0876 51.5624C48.0537 52.5286 49.3637 53.0721 50.73 53.0738C52.2988 53.0738 53.6888 52.355 54.635 51.2463C55.5813 52.355 56.9713 53.0738 58.54 53.0738C59.9064 53.0721 61.2163 52.5286 62.1824 51.5624C63.1486 50.5963 63.6921 49.2864 63.6938 47.92V34.6338C64.1763 34.8363 64.7038 34.9488 65.2588 34.9488C66.3362 34.9478 67.3693 34.5193 68.1312 33.7574C68.8931 32.9955 69.3215 31.9625 69.3225 30.885V23.66C69.3202 21.6199 68.5087 19.664 67.0661 18.2214C65.6236 16.7788 63.6676 15.9673 61.6275 15.965ZM30.01 17.7738C29.2575 18.8275 29.0788 20.1238 29.3813 21.3013H8.07501V3.17627H36.0375V16.8638C35.5856 16.5184 35.0688 16.2674 34.5179 16.126C33.9669 15.9845 33.3932 15.9553 32.8307 16.0402C32.2683 16.1251 31.7287 16.3224 31.2441 16.6202C30.7595 16.918 30.3398 17.3103 30.01 17.7738ZM66.8225 30.885C66.8225 31.7475 66.12 32.4488 65.2588 32.4488C64.3963 32.4488 63.6938 31.7463 63.6938 30.885V25.5738C63.6938 25.2422 63.5621 24.9243 63.3276 24.6899C63.0932 24.4555 62.7753 24.3238 62.4438 24.3238C62.1122 24.3238 61.7943 24.4555 61.5599 24.6899C61.3255 24.9243 61.1938 25.2422 61.1938 25.5738V47.92C61.1938 49.3825 60.0038 50.5738 58.54 50.5738C57.0763 50.5738 55.885 49.3838 55.885 47.92V36.8238C55.885 36.4922 55.7533 36.1743 55.5189 35.9399C55.2845 35.7055 54.9665 35.5738 54.635 35.5738C54.3035 35.5738 53.9855 35.7055 53.7511 35.9399C53.5167 36.1743 53.385 36.4922 53.385 36.8238V47.92C53.385 49.3825 52.1938 50.5738 50.73 50.5738C49.2663 50.5738 48.0763 49.3838 48.0763 47.92C48.0763 47.575 48.08 25.8813 48.0688 25.5363C48.0425 24.5963 47.0363 24.0725 46.2688 24.4563L41.9125 26.6313C41.4272 26.8975 40.8755 27.0186 40.3233 26.9803C39.771 26.9419 39.2414 26.7457 38.7975 26.415L32.465 21.6763C32.45 21.6613 32.4313 21.6525 32.4163 21.6388C32.0539 21.3631 31.8128 20.9575 31.7435 20.5075C31.6743 20.0575 31.7823 19.5982 32.045 19.2263C32.1816 19.0348 32.3554 18.873 32.556 18.7503C32.7567 18.6277 32.98 18.5469 33.2127 18.5127C33.4453 18.4785 33.6825 18.4916 33.9099 18.5513C34.1373 18.611 34.3504 18.716 34.5363 18.86L39.3388 22.5788C39.5747 22.7614 39.8683 22.8536 40.1663 22.8387C40.4643 22.8238 40.7472 22.7028 40.9638 22.4975L44.1588 19.465C44.8344 18.8216 45.732 18.4634 46.665 18.465H61.6275C63.0049 18.4663 64.3255 19.0141 65.2995 19.9881C66.2734 20.962 66.8212 22.2826 66.8225 23.66V30.885Z" fill="#B6CB23"/>
<path d="M29.7125 7.21484H14.4C14.0685 7.21484 13.7505 7.34654 13.5161 7.58096C13.2817 7.81538 13.15 8.13332 13.15 8.46484C13.15 8.79636 13.2817 9.11431 13.5161 9.34873C13.7505 9.58315 14.0685 9.71484 14.4 9.71484H29.7125C30.044 9.71484 30.362 9.58315 30.5964 9.34873C30.8308 9.11431 30.9625 8.79636 30.9625 8.46484C30.9625 8.13332 30.8308 7.81538 30.5964 7.58096C30.362 7.34654 30.044 7.21484 29.7125 7.21484ZM29.7125 12.0323H14.4C14.0685 12.0323 13.7505 12.164 13.5161 12.3985C13.2817 12.6329 13.15 12.9508 13.15 13.2823C13.15 13.6139 13.2817 13.9318 13.5161 14.1662C13.7505 14.4006 14.0685 14.5323 14.4 14.5323H29.7125C30.044 14.5323 30.362 14.4006 30.5964 14.1662C30.8308 13.9318 30.9625 13.6139 30.9625 13.2823C30.9625 12.9508 30.8308 12.6329 30.5964 12.3985C30.362 12.164 30.044 12.0323 29.7125 12.0323ZM38.02 46.0023C39.2852 44.6467 39.9893 42.8617 39.99 41.0073C39.9877 39.0561 39.2115 37.1854 37.8318 35.8056C36.452 34.4258 34.5813 33.6497 32.63 33.6473C30.6785 33.6493 28.8075 34.4254 27.4275 35.8052C26.0474 37.185 25.2711 39.0558 25.2688 41.0073C25.2695 42.8617 25.9735 44.6467 27.2388 46.0023C26.2581 46.1886 25.3246 46.569 24.493 47.1211C23.6615 47.6732 22.9486 48.3859 22.3963 49.2173C21.8437 48.3856 21.1304 47.6728 20.2984 47.1207C19.4663 46.5686 18.5323 46.1883 17.5513 46.0023C18.8165 44.6467 19.5205 42.8617 19.5213 41.0073C19.5213 36.9498 16.22 33.6473 12.1613 33.6473C8.10251 33.6473 4.80126 36.9498 4.80126 41.0073C4.80201 42.8617 5.50601 44.6467 6.77126 46.0023C3.30751 46.6548 0.677505 49.6973 0.677505 53.3486V58.0736C0.677505 58.4051 0.809202 58.7231 1.04362 58.9575C1.27804 59.1919 1.59598 59.3236 1.92751 59.3236H42.8638C43.1953 59.3236 43.5132 59.1919 43.7476 58.9575C43.9821 58.7231 44.1138 58.4051 44.1138 58.0736V53.3486C44.1138 49.6986 41.4838 46.6548 38.02 46.0023ZM12.1625 36.1473C13.4511 36.1487 14.6864 36.6611 15.5976 37.5723C16.5087 38.4834 17.0212 39.7188 17.0225 41.0073C17.0225 43.6873 14.8425 45.8673 12.1625 45.8673C9.4825 45.8673 7.30251 43.6873 7.30251 41.0073C7.30383 39.7188 7.81629 38.4834 8.72743 37.5723C9.63857 36.6611 10.874 36.1487 12.1625 36.1473ZM21.1475 56.8236H17.5363V53.4986C17.5363 53.1671 17.4046 52.8491 17.1701 52.6147C16.9357 52.3803 16.6178 52.2486 16.2863 52.2486C15.9547 52.2486 15.6368 52.3803 15.4024 52.6147C15.168 52.8491 15.0363 53.1671 15.0363 53.4986V56.8236H9.28751V53.4986C9.28751 53.1671 9.15581 52.8491 8.92139 52.6147C8.68697 52.3803 8.36903 52.2486 8.03751 52.2486C7.70599 52.2486 7.38804 52.3803 7.15362 52.6147C6.9192 52.8491 6.78751 53.1671 6.78751 53.4986V56.8236H3.17751V53.3486C3.17883 52.0281 3.70389 50.7621 4.6375 49.8282C5.57111 48.8944 6.83702 48.369 8.15751 48.3673H16.165C17.4857 48.3687 18.7519 48.8939 19.6858 49.8278C20.6197 50.7617 21.1449 52.0279 21.1463 53.3486L21.1475 56.8236ZM32.6313 36.1473C33.9197 36.149 35.1549 36.6616 36.066 37.5726C36.977 38.4837 37.4896 39.7189 37.4913 41.0073C37.4913 43.6873 35.3113 45.8673 32.6313 45.8673C29.9513 45.8673 27.77 43.6873 27.77 41.0073C27.7713 39.7186 28.284 38.483 29.1954 37.5718C30.1068 36.6607 31.3425 36.1483 32.6313 36.1473ZM41.615 56.8236H38.0038V53.4986C38.0038 53.1671 37.8721 52.8491 37.6376 52.6147C37.4032 52.3803 37.0853 52.2486 36.7538 52.2486C36.4222 52.2486 36.1043 52.3803 35.8699 52.6147C35.6355 52.8491 35.5038 53.1671 35.5038 53.4986V56.8236H29.7575V53.4986C29.7575 53.1671 29.6258 52.8491 29.3914 52.6147C29.157 52.3803 28.839 52.2486 28.5075 52.2486C28.176 52.2486 27.858 52.3803 27.6236 52.6147C27.3892 52.8491 27.2575 53.1671 27.2575 53.4986V56.8236H23.6475V53.3486C23.6488 52.0281 24.1739 50.7621 25.1075 49.8282C26.0411 48.8944 27.307 48.369 28.6275 48.3673H36.635C37.9555 48.369 39.2214 48.8944 40.155 49.8282C41.0886 50.7621 41.6137 52.0281 41.615 53.3486V56.8236Z" fill="#B6CB23"/>
</svg>
