<svg width="64" height="56" viewBox="0 0 64 56" fill="none" xmlns="http://www.w3.org/2000/svg">
<path d="M13.1275 36.4581H13V30.9519C15.1821 30.178 16.75 28.0944 16.75 25.6494C16.75 22.5481 14.2262 20.0244 11.125 20.0244C8.02375 20.0244 5.5 22.5481 5.5 25.6494C5.5 28.0944 7.06787 30.178 9.25 30.9519V36.4581H1.875C0.84 36.4581 0 37.2981 0 38.3331V53.3331C0 54.3694 0.84 55.2081 1.875 55.2081H13.0763L21.375 45.8919L13.1275 36.4581Z" fill="#1B4671"/>
<path d="M33.259 36.4581H31.3752V22.2019C33.5573 21.428 35.1252 19.3444 35.1252 16.8994C35.1252 13.7981 32.6014 11.2744 29.5002 11.2744C26.3989 11.2744 23.8752 13.7981 23.8752 16.8994C23.8752 19.3444 25.443 21.428 27.6252 22.2019V36.4581H18.1077L25.2864 44.6694C25.9089 45.3806 25.9039 46.4444 25.2752 47.1506L18.0977 55.2081H33.2064L41.5052 45.8919L33.259 36.4581Z" fill="#1B4671"/>
<path d="M63.5242 44.5156L56.9067 37.0868C56.5517 36.6868 56.0417 36.4581 55.5067 36.4581H46.8479V18.4556H62.1242C63.6402 18.505 64.5733 16.5877 63.6004 15.4256L59.1442 9.72935L63.6204 3.79685C64.5638 2.62835 63.6243 0.744473 62.1242 0.793098H44.9728C43.9366 0.793098 43.0978 1.63185 43.0978 2.6681V36.4581H38.2378L45.4166 44.6693C46.0378 45.3806 46.0328 46.4444 45.4041 47.1506L38.2266 55.2081H55.5066C56.0478 55.2081 56.5616 54.9743 56.9178 54.5668L63.5353 46.9968C64.1579 46.2856 64.1529 45.2218 63.5242 44.5156Z" fill="#1B4671"/>
</svg>
