<svg width="64" height="58" viewBox="0 0 64 58" fill="none" xmlns="http://www.w3.org/2000/svg">
<path d="M56.036 41.1534L64.0004 33.1896L56.036 25.2251L57.3193 23.9418C59.5395 21.7216 59.5395 18.1093 57.3198 15.8891C56.244 14.8139 54.8139 14.2216 53.2929 14.2216C51.7724 14.2216 50.3421 14.8139 49.267 15.8891L47.9838 17.1723L40.0194 9.20795L37.6694 11.5586V15.2734C41.8265 16.2641 44.9276 20.0097 44.9276 24.4658C44.9276 28.9223 41.8265 32.6679 37.6694 33.6582V45.1772H30.7748L29.4004 46.5518L40.0195 57.1706L47.9839 49.2061L49.0899 50.3126C51.3101 52.5328 54.9224 52.5328 57.1426 50.3126C59.3629 48.0923 59.3628 44.4801 57.1426 42.2598L56.036 41.1534Z" fill="#1B4671"/>
<path d="M33.9145 41.4234V30.1601H35.4785C38.6186 30.1601 41.1729 27.6059 41.1729 24.4658C41.1729 21.3261 38.6186 18.7719 35.4785 18.7719H33.9145V7.50881H22.6514V5.69444C22.6512 2.55431 20.0971 6.10352e-05 16.957 6.10352e-05C13.8174 6.10352e-05 11.2633 2.55431 11.2633 5.69444V7.50881H0V18.7721H1.5645C4.31938 18.7721 6.623 20.7383 7.1465 23.3413C7.3822 23.669 7.509 24.0625 7.509 24.4661C7.509 24.8698 7.3822 25.2632 7.1465 25.5909C6.623 28.1934 4.31938 30.1602 1.5645 30.1602H0V41.4234H11.2631V39.6084C11.2631 36.4688 13.8174 33.9147 16.957 33.9147C20.0971 33.9147 22.6514 36.4688 22.6514 39.6084V41.4234H33.9145Z" fill="#1B4671"/>
</svg>
