<svg width="64" height="64" viewBox="0 0 64 64" fill="none" xmlns="http://www.w3.org/2000/svg">
<g clip-path="url(#clip0_14843_24)">
<path d="M32 64C49.6731 64 64 49.6731 64 32C64 14.3269 49.6731 0 32 0C14.3269 0 0 14.3269 0 32C0 49.6731 14.3269 64 32 64Z" fill="#1B4671"/>
<path d="M31.9997 12.5217L33.0359 15.7104H36.3884L33.676 17.681L34.7121 20.8696L31.9997 18.8989L29.2872 20.8696L30.3234 17.681L27.611 15.7104H30.9636L31.9997 12.5217ZM18.2264 18.2267L21.2139 19.7487L23.5845 17.3782L23.0599 20.6895L26.0472 22.2116L22.7359 22.7361L22.2114 26.0476L20.6892 23.0602L17.378 23.5849L19.7486 21.2142L18.2264 18.2267ZM12.5215 32L15.7101 30.9639V27.6112L17.6806 30.3237L20.8694 29.2876L18.8985 32L20.8694 34.7124L17.6806 33.6764L15.7101 36.3887V33.0361L12.5215 32ZM18.2264 45.7732L19.7485 42.7857L17.378 40.4151L20.6894 40.9399L22.2112 37.9525L22.7359 41.2639L26.0471 41.7884L23.0601 43.3105L23.5845 46.6217L21.2139 44.2511L18.2264 45.7732ZM31.9997 51.4782L30.9635 48.2896H27.611L30.3235 46.319L29.2872 43.1306L31.9997 45.1011L34.7121 43.1306L33.676 46.319L36.3884 48.2896H33.0357L31.9997 51.4782ZM45.773 45.7732L42.7856 44.2512L40.4149 46.6219L40.9395 43.3104L37.9524 41.7884L41.2636 41.2639L41.7881 37.9525L43.3101 40.9399L46.6214 40.4151L44.2507 42.786L45.773 45.7732ZM51.4779 32L48.2892 33.0361V36.3887L46.3186 33.6762L43.1302 34.7124L45.1009 32L43.1302 29.2876L46.3187 30.3237L48.2892 27.6112V30.964L51.4779 32ZM45.773 18.2267L44.2509 21.2142L46.6215 23.5849L43.31 23.0601L41.7881 26.0475L41.2636 22.7361L37.9524 22.2115L40.9395 20.6895L40.4149 17.3784L42.7857 19.7489L45.773 18.2267Z" fill="white"/>
</g>
<defs>
<clipPath id="clip0_14843_24">
<rect width="64" height="64" fill="white"/>
</clipPath>
</defs>
</svg>
