<svg width="64" height="64" viewBox="0 0 64 64" fill="none" xmlns="http://www.w3.org/2000/svg">
<path fill-rule="evenodd" clip-rule="evenodd" d="M20.1324 63L43.8676 62.9999C44.5479 62.9999 45.0508 62.3749 44.912 61.7016C43.6647 55.6488 38.3579 51.1013 32 51.1013C25.642 51.1013 20.3352 55.649 19.0879 61.7016C18.9492 62.375 19.4521 63 20.1324 63ZM40.9016 37.9249C41.4101 37.6295 42.0593 37.8068 42.3516 38.3209C42.6439 38.835 42.4684 39.4912 41.9599 39.7867L40.3805 40.7084C39.872 41.0039 39.2228 40.8265 38.9305 40.3125C38.6383 39.7984 38.8137 39.1421 39.3223 38.8467L40.9016 37.9249ZM30.9333 28.4698C30.9333 27.8743 31.4109 27.3915 32 27.3915C32.5891 27.3915 33.0667 27.8743 33.0667 28.4698V33.741C33.0667 34.3365 32.5891 34.8192 32 34.8192C31.4109 34.8192 30.9333 34.3365 30.9333 33.741V28.4698ZM22.0361 39.7868C21.5276 39.4891 21.3541 38.8309 21.6487 38.3169C21.9432 37.8028 22.5943 37.6274 23.1028 37.9252L24.6821 38.847C25.1907 39.1447 25.3641 39.8028 25.0696 40.3169C24.7751 40.831 24.124 41.0063 23.6155 40.7086L22.0361 39.7868ZM11.6667 18.0416C5.22333 18.0416 0 23.3218 0 29.8351C0 36.3485 5.22333 41.6286 11.6667 41.6286C18.11 41.6286 23.3333 36.3485 23.3333 29.8351C23.3333 23.3218 18.11 18.0416 11.6667 18.0416ZM11.6667 20.0948C16.988 20.0948 21.3023 24.4559 21.3023 29.8351C21.3023 35.2143 16.988 39.5755 11.6667 39.5755C6.34533 39.5755 2.03107 35.2143 2.03107 29.8351C2.03107 24.4559 6.3452 20.0948 11.6667 20.0948ZM11.6667 22.2513C15.8101 22.2513 19.1689 25.6465 19.1689 29.8351C19.1689 34.0238 15.8103 37.4189 11.6667 37.4189C7.52307 37.4189 4.1644 34.0238 4.1644 29.8351C4.1644 25.6465 7.52307 22.2513 11.6667 22.2513ZM15.0153 26.9509C15.2432 27.4999 14.9876 28.1316 14.4445 28.3619C13.9015 28.5922 13.2765 28.3339 13.0487 27.7849C12.7595 27.0885 12.0333 26.8111 11.3327 26.9536C10.8745 27.0469 10.394 27.341 10.4196 27.8743C10.4489 28.4858 11.3784 28.6672 11.8448 28.7446C13.4868 29.017 15.0633 29.7369 15.2883 31.6101C15.2972 31.6849 15.3031 31.7811 15.3059 31.8977C15.3433 33.4805 14.1464 34.4592 12.7332 34.7853V34.9747C12.7332 35.5701 12.2556 36.0529 11.6665 36.0529C11.0775 36.0529 10.5999 35.5701 10.5999 34.9747V34.763C9.35653 34.4389 8.37333 33.565 8.05573 32.2768C7.91533 31.7 8.26427 31.1173 8.83493 30.9754C9.4056 30.8335 9.98213 31.1862 10.1224 31.7631C10.3008 32.4864 11.0768 32.7681 11.7465 32.752C11.8107 32.7505 11.8975 32.7431 12.0065 32.7297C12.4095 32.6802 13.1935 32.4808 13.1809 31.9484L13.1716 31.8629C13.0868 31.1563 12.0647 30.9607 11.5031 30.8676C9.90667 30.6026 8.38267 29.8118 8.29453 27.9755C8.22227 26.4708 9.22573 25.3303 10.5999 24.9262V24.696C10.5999 24.1005 11.0775 23.6177 11.6665 23.6177C12.2556 23.6177 12.7332 24.1005 12.7332 24.696V24.9121C13.6915 25.1855 14.5547 25.8421 15.0153 26.9509ZM32 1C38.4433 1 43.6667 6.28011 43.6667 12.7935C43.6667 19.3068 38.4433 24.587 32 24.587C25.5567 24.587 20.3333 19.3068 20.3333 12.7935C20.3333 6.28011 25.5567 1 32 1ZM30.8883 15.3859H33.1117C33.4055 15.3859 33.6451 15.6281 33.6451 15.925V19.4451H36.376C36.6697 19.4451 36.9093 19.2029 36.9093 18.906V11.1497H39.1013C36.7984 9.52554 34.8824 8.17448 32.4579 6.46449C32.1776 6.26677 31.8227 6.26677 31.5424 6.46449C29.1179 8.17434 27.202 9.52554 24.8991 11.1497H27.0909V18.906C27.0909 19.2029 27.3305 19.4451 27.6243 19.4451H30.3551V15.925C30.3549 15.6281 30.5945 15.3859 30.8883 15.3859ZM52.3333 18.0416C45.89 18.0416 40.6667 23.3218 40.6667 29.8351C40.6667 36.3485 45.89 41.6286 52.3333 41.6286C58.7767 41.6286 64 36.3485 64 29.8351C64 23.3218 58.7767 18.0416 52.3333 18.0416ZM50.4116 23.0546H54.2553C54.4625 23.0546 54.632 23.2259 54.632 23.4354V27.5117H58.6645C58.8717 27.5117 59.0412 27.683 59.0412 27.8925V31.7779C59.0412 31.9873 58.8717 32.1586 58.6645 32.1586H54.632V36.235C54.632 36.4445 54.4625 36.6158 54.2553 36.6158H50.4116C50.2044 36.6158 50.0349 36.4445 50.0349 36.235V32.1586H46.0023C45.7951 32.1586 45.6256 31.9873 45.6256 31.7779V27.8925C45.6256 27.683 45.7951 27.5117 46.0023 27.5117H50.0349V23.4354C50.0349 23.2258 50.2044 23.0546 50.4116 23.0546ZM32.0001 36.7249C28.3171 36.7249 25.3312 39.7431 25.3312 43.4664C25.3312 47.1895 28.3171 50.2078 32.0001 50.2078C35.6832 50.2078 38.6691 47.1895 38.6691 43.4664C38.6691 39.7431 35.6832 36.7249 32.0001 36.7249Z" fill="#1B4671"/>
</svg>
