<svg width="56" height="64" viewBox="0 0 56 64" fill="none" xmlns="http://www.w3.org/2000/svg">
<path d="M34.6667 0H13.3333C9.79711 0 6.40573 1.40476 3.90524 3.90524C1.40476 6.40573 0 9.79711 0 13.3333V50.6667C0 52.4176 0.344877 54.1514 1.01494 55.7691C1.685 57.3868 2.66713 58.8566 3.90524 60.0948C6.40573 62.5952 9.79711 64 13.3333 64H19.1467C18.6135 62.5288 18.5299 60.9322 18.9067 59.4133L21.3867 49.3867C21.7327 47.9724 22.4616 46.6807 23.4933 45.6533L38.56 30.56C39.8 29.3219 41.2721 28.3407 42.892 27.6726C44.5119 27.0045 46.2477 26.6627 48 26.6667V13.3333C48 9.79711 46.5952 6.40573 44.0948 3.90524C41.5943 1.40476 38.2029 0 34.6667 0ZM24 34.6667H13.3333C12.6261 34.6667 11.9478 34.3857 11.4477 33.8856C10.9476 33.3855 10.6667 32.7072 10.6667 32C10.6667 31.2928 10.9476 30.6145 11.4477 30.1144C11.9478 29.6143 12.6261 29.3333 13.3333 29.3333H24C24.7072 29.3333 25.3855 29.6143 25.8856 30.1144C26.3857 30.6145 26.6667 31.2928 26.6667 32C26.6667 32.7072 26.3857 33.3855 25.8856 33.8856C25.3855 34.3857 24.7072 34.6667 24 34.6667ZM34.6667 24H13.3333C12.6261 24 11.9478 23.719 11.4477 23.219C10.9476 22.7189 10.6667 22.0406 10.6667 21.3333C10.6667 20.6261 10.9476 19.9478 11.4477 19.4477C11.9478 18.9476 12.6261 18.6667 13.3333 18.6667H34.6667C35.3739 18.6667 36.0522 18.9476 36.5523 19.4477C37.0524 19.9478 37.3333 20.6261 37.3333 21.3333C37.3333 22.0406 37.0524 22.7189 36.5523 23.219C36.0522 23.719 35.3739 24 34.6667 24ZM34.6667 13.3333H13.3333C12.6261 13.3333 11.9478 13.0524 11.4477 12.5523C10.9476 12.0522 10.6667 11.3739 10.6667 10.6667C10.6667 9.95942 10.9476 9.28115 11.4477 8.78105C11.9478 8.28095 12.6261 8 13.3333 8H34.6667C35.3739 8 36.0522 8.28095 36.5523 8.78105C37.0524 9.28115 37.3333 9.95942 37.3333 10.6667C37.3333 11.3739 37.0524 12.0522 36.5523 12.5523C36.0522 13.0524 35.3739 13.3333 34.6667 13.3333Z" fill="#1B4671"/>
<path d="M55.9045 40C55.9311 42.1078 55.1219 44.1405 53.6539 45.6533L51.7872 47.5466C51.7872 47.5466 40.4538 36.24 40.4805 36.24L42.3472 34.3466C43.4528 33.2147 44.8727 32.4406 46.4232 32.1246C47.9736 31.8086 49.5832 31.9653 51.0436 32.5742C52.5041 33.1832 53.7481 34.2166 54.6147 35.5404C55.4813 36.8643 55.9307 38.4179 55.9045 40Z" fill="#1B4671"/>
<path d="M47.9994 51.3333L38.5594 60.7467C38.2268 61.0924 37.8005 61.3334 37.3327 61.44L27.3061 63.92C26.8599 64.0346 26.3917 64.0309 25.9474 63.9094C25.5031 63.7878 25.0982 63.5526 24.7725 63.2269C24.4468 62.9013 24.2116 62.4963 24.09 62.052C23.9685 61.6077 23.9648 61.1395 24.0794 60.6933L26.5594 50.6667C26.666 50.199 26.907 49.7726 27.2527 49.44L36.6927 40.0267C36.6927 40.0267 47.9994 51.3067 47.9994 51.3333Z" fill="#1B4671"/>
</svg>
