<svg width="64" height="64" viewBox="0 0 64 64" fill="none" xmlns="http://www.w3.org/2000/svg">
<path d="M62.1256 34.1417H36.0172C34.9817 34.1417 34.1422 34.9812 34.1422 36.0167V62.1251C34.1422 63.1606 34.9817 64.0001 36.0172 64.0001C51.4473 64.0001 64.0006 51.4468 64.0006 36.0167C64.0006 34.9812 63.1611 34.1417 62.1256 34.1417ZM49.0714 44.296H47.3089V51.0793C47.3089 51.7697 46.7493 52.3293 46.0589 52.3293C45.3686 52.3293 44.8089 51.7697 44.8089 51.0793V44.296H43.0464C41.3916 44.2353 41.3892 41.8575 43.0464 41.796H49.0714C49.7618 41.796 50.3214 42.3556 50.3214 43.046C50.3214 43.7364 49.7618 44.296 49.0714 44.296ZM17.9422 44.296C16.9703 44.296 16.1797 45.0866 16.1797 46.0585V48.0667C16.2681 50.4012 19.6163 50.4016 19.7047 48.0667V46.0585C19.7047 45.0866 18.9141 44.296 17.9422 44.296Z" fill="#1B4671"/>
<path d="M27.9834 34.1417H1.875C0.8395 34.1417 0 34.9812 0 36.0167C0 51.4469 12.5533 64.0001 27.9834 64.0001C29.0189 64.0001 29.8584 63.1606 29.8584 62.1251V36.0167C29.8584 34.9812 29.0189 34.1417 27.9834 34.1417ZM22.2041 48.0667C21.9901 53.7132 13.8927 53.7127 13.6791 48.0667V46.0585C13.6791 43.7081 15.5913 41.796 17.9416 41.796C20.292 41.796 22.2041 43.7081 22.2041 46.0585V48.0667ZM36.0166 29.8585H62.125C63.1605 29.8585 64 29.019 64 27.9835C64 12.5534 51.4468 0.00012207 36.0166 0.00012207C34.9811 0.00012207 34.1416 0.839622 34.1416 1.87512V27.9835C34.1416 29.019 34.9811 29.8585 36.0166 29.8585ZM41.7385 11.7082C42.408 11.5411 43.0869 11.948 43.2542 12.6177L44.1305 16.1224L44.8564 13.5816C44.931 13.3205 45.0887 13.0907 45.3055 12.9272C45.5224 12.7636 45.7866 12.6751 46.0583 12.6751C46.3299 12.6751 46.5941 12.7636 46.811 12.9272C47.0278 13.0907 47.1855 13.3205 47.2601 13.5816L47.986 16.1224L48.8623 12.6177C49.3175 11.0285 51.6334 11.6031 51.2876 13.2241L49.2793 21.2574C49.2125 21.5244 49.0595 21.7618 48.844 21.933C48.6285 22.1042 48.3625 22.1994 48.0874 22.204C47.5185 22.2154 47.02 21.8416 46.8646 21.2976L46.0583 18.4751L45.2519 21.2976C44.9068 22.5174 43.1444 22.4879 42.8372 21.2574L40.8289 13.2241C40.6615 12.5544 41.0687 11.8757 41.7385 11.7082ZM27.9834 0.00012207C12.5533 0.00012207 0 12.5534 0 27.9835C0 29.019 0.8395 29.8585 1.875 29.8585H27.9834C29.0189 29.8585 29.8584 29.019 29.8584 27.9835V1.87512C29.8584 0.839622 29.0189 0.00012207 27.9834 0.00012207ZM18.9479 22.2042H15.9334C15.243 22.2042 14.6834 21.6446 14.6834 20.9542C14.6834 20.2639 15.243 19.7042 15.9334 19.7042H18.9479C19.1484 19.704 19.3406 19.6243 19.4824 19.4825C19.6242 19.3407 19.704 19.1485 19.7043 18.948C19.7043 18.5269 19.365 18.1876 18.9479 18.1876H16.9355C12.6202 18.0247 12.6239 11.8331 16.9355 11.671H19.95C20.6404 11.671 21.2 12.2306 21.2 12.921C21.2 13.6114 20.6404 14.171 19.95 14.171H16.9355C15.9361 14.1976 15.9399 15.6622 16.9355 15.6876H18.9478C23.263 15.8506 23.2595 22.0421 18.9479 22.2042Z" fill="#1B4671"/>
</svg>
