<svg width="64" height="64" viewBox="0 0 64 64" fill="none" xmlns="http://www.w3.org/2000/svg">
<g clip-path="url(#clip0_14843_199)">
<path d="M32.0025 1.9994C24.0472 2.0034 16.4189 5.16514 10.7933 10.79C5.1677 16.4149 2.00501 24.0428 2 31.9981C2.00401 39.954 5.16626 47.5829 10.7919 53.2086C16.4176 58.8343 24.0466 61.9966 32.0025 62.0006C37.0618 61.9952 42.0376 60.7113 46.4678 58.2679C50.898 55.8245 54.6387 52.301 57.3424 48.0248C60.0462 43.7486 61.6252 38.8583 61.9329 33.8084C62.2406 28.7585 61.2669 23.7127 59.1022 19.1399L56.1277 22.1144C55.8489 22.3953 55.5175 22.6184 55.1523 22.7708C54.7871 22.9232 54.3955 23.002 53.9998 23.0026H53.1683C54.3513 25.7655 55.0051 28.8081 55.0051 31.9981C55.0011 38.0976 52.5764 43.946 48.2634 48.259C43.9504 52.572 38.1019 54.9968 32.0025 55.0008C19.3106 55.0008 8.99982 44.69 8.99982 31.9981C9.00416 28.1989 9.94883 24.4599 11.7495 21.1146C13.5503 17.7692 16.151 14.9216 19.3198 12.8258C22.4886 10.73 26.1269 9.45113 29.9102 9.10329C33.6934 8.75545 37.5039 9.34946 41.0017 10.8323V10.0008C41.0017 9.20332 41.3192 8.43606 41.8861 7.8729L44.8645 4.89457C40.8461 2.98454 36.4517 1.99289 32.0025 1.9994ZM50.9761 1.9994C50.7199 2.00702 50.4765 2.11253 50.2958 2.29421L43.2959 9.29025C43.2024 9.38341 43.1282 9.49415 43.0776 9.6161C43.027 9.73805 43.001 9.86879 43.0011 10.0008V16.5887L29.7952 29.7946C29.2136 30.382 28.8873 31.1752 28.8873 32.0019C28.8873 32.8285 29.2136 33.6218 29.7952 34.2092C31.0047 35.4186 32.9965 35.4149 34.206 34.2016L47.4081 20.9995H53.9998C54.1318 20.9996 54.2625 20.9736 54.3845 20.923C54.5064 20.8724 54.6172 20.7982 54.7103 20.7046L61.7064 13.7048C61.8433 13.5644 61.936 13.3868 61.973 13.1942C62.0099 13.0016 61.9895 12.8023 61.9142 12.6212C61.8389 12.4401 61.7121 12.285 61.5495 12.1753C61.387 12.0656 61.1957 12.006 60.9996 12.004H56.4074L57.2049 11.2027C57.7861 10.6171 58.113 9.82588 58.1144 9.00077C58.1158 8.17567 57.7917 7.38331 57.2124 6.79571C56.6077 6.19098 55.8026 5.88861 55.0014 5.88861C54.2001 5.88861 53.3988 6.19098 52.7941 6.79571L52.0004 7.58943V2.99343C51.9999 2.86029 51.9729 2.72858 51.9209 2.60599C51.8689 2.48341 51.793 2.37242 51.6977 2.27952C51.6023 2.18661 51.4894 2.11365 51.3655 2.0649C51.2416 2.01616 51.1092 1.99638 50.9761 1.9994ZM32.0025 15.9953C23.1771 15.9953 15.9959 23.1765 15.9959 31.9981C15.9959 40.8197 23.1771 47.9972 32.0025 47.9972C36.2441 47.9932 40.3108 46.3061 43.3098 43.3065C46.3087 40.3068 47.9948 36.2397 47.9978 31.9981C47.9978 29.4544 47.3855 27.0506 46.3272 24.9113L40.8467 30.3918C41.0798 31.6873 41.0261 33.0182 40.6895 34.2908C40.3529 35.5633 39.7416 36.7467 38.8986 37.7576C38.0555 38.7686 37.0012 39.5825 35.8098 40.1422C34.6184 40.702 33.3188 40.9938 32.0025 40.9973C29.6173 40.9943 27.3306 40.0458 25.6437 38.3595C23.9568 36.6733 23.0072 34.387 23.0033 32.0019C23.0062 29.6167 23.9548 27.33 25.641 25.6431C27.3273 23.9562 29.6135 23.0066 31.9987 23.0026C32.5505 23.0026 33.0872 23.0593 33.6088 23.1538L39.0892 17.6734C36.889 16.5724 34.4629 15.9979 32.0025 15.9953Z" fill="#1B4671"/>
</g>
<defs>
<clipPath id="clip0_14843_199">
<rect width="64" height="64" fill="white"/>
</clipPath>
</defs>
</svg>
