<svg width="64" height="64" viewBox="0 0 64 64" fill="none" xmlns="http://www.w3.org/2000/svg">
<path d="M31.9993 45.3334C39.3631 45.3334 45.3327 39.3638 45.3327 32C45.3327 24.6362 39.3631 18.6667 31.9993 18.6667C24.6356 18.6667 18.666 24.6362 18.666 32C18.666 39.3638 24.6356 45.3334 31.9993 45.3334Z" fill="#1B4671"/>
<path d="M61.3333 29.3333H58.5307C57.2773 16.7547 47.2453 6.72267 34.6667 5.46933V2.66667C34.6667 1.95942 34.3857 1.28115 33.8856 0.781049C33.3855 0.280952 32.7072 0 32 0C31.2928 0 30.6145 0.280952 30.1144 0.781049C29.6143 1.28115 29.3333 1.95942 29.3333 2.66667V5.46933C16.7547 6.72267 6.72267 16.7547 5.46933 29.3333H2.66667C1.95942 29.3333 1.28115 29.6143 0.781049 30.1144C0.280952 30.6145 0 31.2928 0 32C0 32.7072 0.280952 33.3855 0.781049 33.8856C1.28115 34.3857 1.95942 34.6667 2.66667 34.6667H5.46933C6.72533 47.2453 16.7547 57.2773 29.3333 58.5307V61.3333C29.3333 62.0406 29.6143 62.7189 30.1144 63.219C30.6145 63.7191 31.2928 64 32 64C32.7072 64 33.3855 63.7191 33.8856 63.219C34.3857 62.7189 34.6667 62.0406 34.6667 61.3333V58.5307C47.2453 57.2747 57.2773 47.2453 58.5307 34.6667H61.3333C62.0406 34.6667 62.7189 34.3857 63.219 33.8856C63.7191 33.3855 64 32.7072 64 32C64 31.2928 63.7191 30.6145 63.219 30.1144C62.7189 29.6143 62.0406 29.3333 61.3333 29.3333ZM34.6293 53.1547C34.5333 51.7707 33.4107 50.6667 32 50.6667C30.5893 50.6667 29.4667 51.7707 29.3707 53.1547C24.6645 52.5632 20.2892 50.4215 16.9352 47.0675C13.5812 43.7135 11.4395 39.3382 10.848 34.632C12.232 34.5333 13.3333 33.408 13.3333 32C13.3333 30.592 12.232 29.4667 10.8453 29.3707C11.4368 24.6645 13.5785 20.2892 16.9325 16.9352C20.2865 13.5812 24.6618 11.4395 29.368 10.848C29.4667 12.2293 30.5893 13.3333 32 13.3333C33.4107 13.3333 34.5333 12.2293 34.6293 10.8453C39.3356 11.4368 43.7108 13.5785 47.0648 16.9325C50.4188 20.2865 52.5605 24.6618 53.152 29.368C51.768 29.4667 50.6667 30.592 50.6667 32C50.6667 33.408 51.768 34.5333 53.1547 34.6293C52.5623 39.3359 50.42 43.7114 47.0657 47.0657C43.7114 50.42 39.3359 52.5623 34.6293 53.1547Z" fill="#1B4671"/>
</svg>
