<svg width="56" height="48" viewBox="0 0 56 48" fill="none" xmlns="http://www.w3.org/2000/svg">
<path d="M38.029 30.6251C38.054 30.6121 38.08 30.5991 38.104 30.5851C38.485 30.3791 38.858 30.1791 39.247 30.0031C39.475 29.8991 39.69 29.8081 39.899 29.7321V4.69513H38.029V30.6251ZM12.409 2.69513H43.589V0.825134H12.409V2.69513ZM49.465 24.5191C48.123 24.3671 47.222 23.9421 46.448 23.5061C46.2569 23.397 46.0672 23.2854 45.879 23.1711C45.027 22.6571 44.291 22.2151 43.008 22.0581C42.997 22.0581 42.987 22.0561 42.976 22.0541C42.954 22.0541 42.931 22.0521 42.916 22.0511C42.759 22.0361 42.606 22.0281 42.466 22.0201L42.36 22.0131C42.2067 22.0072 42.0531 22.0099 41.9 22.0211V29.3191C42.0852 29.3095 42.2708 29.3088 42.456 29.3171C42.706 29.3301 42.902 29.3401 43.107 29.3611C43.082 29.3571 43.17 29.3551 43.291 29.3791C44.972 29.5921 46 30.2101 46.907 30.7561C47.081 30.8601 47.255 30.9651 47.433 31.0671C48.114 31.4501 48.759 31.7281 49.692 31.8331C49.944 31.8621 50.199 31.8751 50.456 31.8761C50.583 31.8761 50.711 31.8631 50.839 31.8561C50.971 31.8491 51.101 31.8461 51.234 31.8321C51.379 31.8161 51.526 31.7871 51.673 31.7621C51.791 31.7421 51.908 31.7261 52.027 31.7001C52.177 31.6671 52.328 31.6231 52.478 31.5811C52.597 31.5481 52.716 31.5181 52.836 31.4791C52.984 31.4311 53.133 31.3741 53.282 31.3171C53.408 31.2691 53.534 31.2231 53.661 31.1691C53.804 31.1081 53.949 31.0391 54.093 30.9701C54.229 30.9051 54.364 30.8401 54.501 30.7681C54.638 30.6961 54.777 30.6171 54.915 30.5371C55.061 30.4531 55.206 30.3681 55.353 30.2771C55.486 30.1941 55.619 30.1061 55.752 30.0171C55.834 29.9621 55.917 29.9031 55.999 29.8451V22.9291C53.772 24.2291 51.579 24.7631 49.465 24.5211V24.5191ZM36.029 4.69513H19.968V20.4811C20.331 20.3111 20.721 20.1501 21.12 20.0161C22.142 19.6761 23.229 19.5321 24.442 19.5541C27.091 19.6151 28.582 20.4921 29.897 21.2671C31.123 21.9901 32.169 22.6211 34.184 22.5261C34.298 22.5261 34.37 22.5171 34.442 22.5111C34.601 22.5001 34.698 22.4871 34.793 22.4741L34.974 22.4521C35.1556 22.4274 35.3356 22.392 35.513 22.3461C35.685 22.3101 35.857 22.2641 36.029 22.2131V4.69513ZM35.057 24.4571C34.912 24.4771 34.763 24.4951 34.615 24.5031C34.4871 24.5166 34.3587 24.524 34.23 24.5251C31.665 24.6351 30.258 23.8001 28.883 22.9911C27.672 22.2771 26.528 21.6021 24.397 21.5541C23.402 21.5281 22.563 21.6441 21.754 21.9131C21.3968 22.0335 21.0471 22.1754 20.707 22.3381C20.546 22.4041 20.448 22.4541 20.351 22.5031L19.969 22.6901V29.7781C20.334 29.6061 20.728 29.4481 21.121 29.3161C21.373 29.2321 21.63 29.1621 21.891 29.1011C21.915 29.0951 21.94 29.0921 21.964 29.0871C22.207 29.0321 22.455 28.9871 22.707 28.9521L22.738 28.9491C22.998 28.9141 23.263 28.8891 23.534 28.8741L23.641 28.8701C23.807 28.8621 23.972 28.8521 24.143 28.8521C24.243 28.8521 24.342 28.8541 24.443 28.8561C27.092 28.9171 28.583 29.7941 29.898 30.5691C31.125 31.2911 32.18 31.9241 34.185 31.8271C34.306 31.8271 34.384 31.8181 34.462 31.8101C34.5728 31.8028 34.6832 31.7912 34.793 31.7751L34.974 31.7531C35.1434 31.7297 35.3113 31.6969 35.477 31.6551C35.667 31.6151 35.849 31.5681 36.029 31.5141V24.2821L35.941 24.3011C35.7047 24.3595 35.4653 24.4052 35.224 24.4381L35.056 24.4591L35.057 24.4571ZM0.545047 30.2811C0.832047 30.1141 1.11805 29.9571 1.40605 29.8141C1.43405 29.8001 1.46105 29.7841 1.48905 29.7711C1.81805 29.6111 2.14605 29.4671 2.47605 29.3401C2.52105 29.3221 2.56705 29.3081 2.61205 29.2911C2.96208 29.1612 3.31777 29.0471 3.67805 28.9491C3.92505 28.8831 4.17205 28.8271 4.41805 28.7801C4.49405 28.7651 4.57105 28.7471 4.64705 28.7341C4.95405 28.6821 5.26105 28.6431 5.56705 28.6201C5.64405 28.6141 5.72105 28.6151 5.79905 28.6111C5.96905 28.6021 6.13905 28.5911 6.30805 28.5911C6.42005 28.5911 6.53205 28.5931 6.64305 28.5971C7.59677 28.6261 8.53845 28.8185 9.42705 29.1661C10 29.3961 10.505 29.6661 10.993 29.9271C11.839 30.3791 12.638 30.8061 13.775 31.0351C13.891 31.0601 13.994 31.0811 14.097 31.0981V23.8221C14.008 23.8091 13.922 23.7971 13.839 23.7831C13.68 23.7586 13.522 23.7286 13.365 23.6931C11.953 23.4081 10.942 22.8681 10.05 22.3901C9.58805 22.1441 9.15305 21.9111 8.68605 21.7231C8.02905 21.4631 7.35405 21.3271 6.56805 21.2941C4.42305 21.2301 2.22305 22.0461 -0.00195312 23.7501V30.6081C0.0970469 30.5441 0.197047 30.4891 0.297047 30.4291L0.545047 30.2811Z" fill="#1B4671"/>
<path d="M55.4959 32.4991C55.3399 32.5821 55.1839 32.6651 55.0279 32.7411C54.8909 32.8081 54.7539 32.8681 54.6169 32.9291C54.4669 32.9961 54.3169 33.0611 54.1669 33.1211C53.7501 33.2846 53.3248 33.4255 52.8929 33.5431C52.3377 33.6904 51.771 33.7901 51.1989 33.8411C51.0484 33.852 50.8977 33.8593 50.7469 33.8631C50.6529 33.8661 50.5579 33.8771 50.4639 33.8771C50.4329 33.8771 50.4019 33.8721 50.3719 33.8721C50.0692 33.8703 49.7668 33.853 49.4659 33.8201C48.1259 33.6691 47.2239 33.2441 46.4489 32.8071C46.2566 32.6975 46.0659 32.5852 45.8769 32.4701C45.0249 31.9571 44.2899 31.5161 43.0089 31.3591C42.9769 31.3551 42.9369 31.3551 42.9119 31.3521C42.7379 31.3351 42.5709 31.3271 42.4189 31.3181C41.9943 31.2966 41.5689 31.3387 41.1569 31.4431C40.8059 31.5231 40.4749 31.6421 40.0789 31.8251C39.7259 31.9841 39.3939 32.1651 39.0549 32.3471C38.5479 32.6201 38.0239 32.9041 37.4049 33.1541C37.1597 33.2526 36.9104 33.3406 36.6579 33.4181C36.4163 33.4925 36.1714 33.5552 35.9239 33.6061C35.694 33.6622 35.4613 33.7063 35.2269 33.7381L35.0589 33.7591C34.9139 33.7791 34.7649 33.7971 34.6169 33.8051C34.489 33.8192 34.3605 33.8265 34.2319 33.8271C34.0749 33.8341 33.9219 33.8381 33.7739 33.8381C33.6919 33.8381 33.6189 33.8301 33.5389 33.8281C33.1451 33.8205 32.7525 33.7847 32.3639 33.7211C32.246 33.7011 32.1286 33.6781 32.0119 33.6521C31.8939 33.6261 31.7759 33.6011 31.6629 33.5711C31.5567 33.5421 31.4514 33.5105 31.3469 33.4761C31.2399 33.4421 31.1309 33.4091 31.0279 33.3721C30.9259 33.3351 30.8279 33.2941 30.7299 33.2531C30.6339 33.2141 30.5369 33.1761 30.4439 33.1341C30.3429 33.0881 30.2459 33.0391 30.1489 32.9911C30.0659 32.9501 29.9799 32.9101 29.8989 32.8671C29.7843 32.8064 29.6706 32.7441 29.5579 32.6801L29.3849 32.5851C29.2169 32.4891 29.0509 32.3911 28.8849 32.2941C27.6739 31.5801 26.5299 30.9061 24.3989 30.8581C23.4069 30.8351 22.5659 30.9461 21.7559 31.2161C21.3984 31.3363 21.0487 31.4785 20.7089 31.6421C20.5858 31.6925 20.465 31.7483 20.3469 31.8091L19.4039 32.2691L19.4009 32.2701C18.5869 32.6571 17.6649 33.0321 16.4479 33.1611C16.0012 33.2088 15.5517 33.2242 15.1029 33.2071H15.0609C14.8939 33.2071 14.7069 33.1961 14.4949 33.1711C14.2899 33.1511 14.0569 33.1181 13.8469 33.0851C13.6879 33.0607 13.5298 33.0306 13.3729 32.9951C11.9609 32.7101 10.9499 32.1701 10.0579 31.6921C9.59586 31.4461 9.16086 31.2131 8.69386 31.0251C8.03686 30.7651 7.36186 30.6291 6.57586 30.5961C6.30086 30.5881 6.02586 30.5961 5.74986 30.6161C5.61986 30.6261 5.48886 30.6481 5.35786 30.6641C5.21086 30.6821 5.06486 30.6961 4.91786 30.7221C4.77386 30.7481 4.62986 30.7851 4.48586 30.8191C4.35086 30.8501 4.21586 30.8771 4.08086 30.9151C3.93486 30.9561 3.78786 31.0091 3.64086 31.0581C3.50686 31.1031 3.37286 31.1451 3.23886 31.1961C3.09286 31.2521 2.94686 31.3181 2.80086 31.3811C2.66386 31.4411 2.52786 31.4981 2.39086 31.5651C2.24786 31.6351 2.10386 31.7131 1.95986 31.7901C1.81886 31.8661 1.67886 31.9411 1.53786 32.0231C1.39786 32.1051 1.25786 32.1951 1.11686 32.2841C0.970859 32.3771 0.824859 32.4711 0.677859 32.5721C0.541859 32.6661 0.405859 32.7651 0.268859 32.8651C0.181859 32.9291 0.0938594 32.9971 0.00585938 33.0641V47.1771H56.0059V32.2291C55.9699 32.2501 55.9349 32.2661 55.8989 32.2871C55.7659 32.3631 55.6339 32.4321 55.5019 32.5021L55.4959 32.4991Z" fill="#1B4671"/>
<path d="M16.0996 31.1801C16.1446 31.1761 16.1896 31.1761 16.2356 31.1711C16.5784 31.1327 16.9171 31.0638 17.2476 30.9651C17.4816 30.8971 17.7096 30.8201 17.9366 30.7281L17.9706 30.7151V4.69513H16.1006L16.0996 31.1801Z" fill="#1B4671"/>
</svg>
