<svg width="64" height="64" viewBox="0 0 64 64" fill="none" xmlns="http://www.w3.org/2000/svg">
<path d="M39.5 22.5001H24.5C23.4636 22.5001 22.625 23.3387 22.625 24.3751V62.1251C22.625 63.1615 23.4636 64.0001 24.5 64.0001H39.5C40.5364 64.0001 41.375 63.1615 41.375 62.1251V24.3751C41.375 23.3387 40.5364 22.5001 39.5 22.5001ZM17 33.7501H1.875C0.838625 33.7501 0 34.5887 0 35.6251V62.1251C0 63.1615 0.838625 64.0001 1.875 64.0001H17C18.0364 64.0001 18.875 63.1615 18.875 62.1251V35.6251C18.875 34.5887 18.0364 33.7501 17 33.7501ZM62.125 45.0001H47C45.9636 45.0001 45.125 45.8387 45.125 46.8751V62.1251C45.125 63.1615 45.9636 64.0001 47 64.0001H62.125C63.1614 64.0001 64 63.1615 64 62.1251V46.8751C64 45.8387 63.1614 45.0001 62.125 45.0001ZM40.9173 6.47837C40.8095 6.14693 40.6116 5.85202 40.3458 5.62662C40.08 5.40122 39.7567 5.25424 39.4121 5.20212L35.4625 4.60887L33.6772 0.953246C33.04 -0.317504 30.96 -0.317504 30.3228 0.953246L28.5375 4.60887L24.5879 5.20212C24.2433 5.25424 23.92 5.40122 23.6542 5.62662C23.3884 5.85202 23.1905 6.14693 23.0828 6.47837C22.863 7.15225 23.0443 7.89375 23.5496 8.39362L26.3969 11.1951L25.7414 15.1355C25.6839 15.4789 25.7233 15.8315 25.8553 16.1537C25.9873 16.4759 26.2066 16.7549 26.4885 16.9592C27.0598 17.3767 27.8215 17.4316 28.455 17.1076L32 15.2675L35.5449 17.1077C35.8541 17.2682 36.2019 17.3393 36.5492 17.3131C36.8966 17.2869 37.2297 17.1644 37.5114 16.9594C37.7933 16.755 38.0125 16.476 38.1445 16.1538C38.2765 15.8317 38.316 15.479 38.2585 15.1356L37.603 11.1952L40.4502 8.39375C40.9557 7.89375 41.137 7.15225 40.9173 6.47837ZM2.08787 16.4521C1.74328 16.5042 1.41999 16.6512 1.15417 16.8766C0.888355 17.102 0.690501 17.3969 0.58275 17.7284C0.363 18.4022 0.54425 19.1437 1.04963 19.6436L3.89687 22.4451L3.24137 26.3855C3.18387 26.7289 3.22333 27.0815 3.35532 27.4037C3.48731 27.7259 3.7066 28.0049 3.9885 28.2092C4.55975 28.6249 5.31962 28.6816 5.955 28.3576L9.5 26.5175L13.0449 28.3577C13.3541 28.5182 13.7019 28.5893 14.0492 28.5631C14.3966 28.5369 14.7297 28.4144 15.0114 28.2094C15.2933 28.005 15.5125 27.726 15.6445 27.4038C15.7765 27.0817 15.816 26.729 15.7585 26.3856L15.103 22.4452L17.9503 19.6437C18.4556 19.1439 18.6369 18.4022 18.4171 17.7285C18.3094 17.3971 18.1115 17.1021 17.8457 16.8767C17.5799 16.6514 17.2566 16.5044 16.912 16.4522L12.9625 15.8589L11.1772 12.2865C10.54 11.0157 8.46 11.0157 7.82275 12.2865L6.0375 15.8589L2.08787 16.4521ZM63.4173 28.9784C63.3095 28.6469 63.1116 28.352 62.8458 28.1266C62.58 27.9012 62.2567 27.7542 61.9121 27.7021L57.9625 27.1089L56.1772 23.5365C55.54 22.2657 53.46 22.2657 52.8228 23.5365L51.0375 27.1089L47.0879 27.7021C46.7433 27.7542 46.42 27.9012 46.1542 28.1266C45.8884 28.352 45.6905 28.6469 45.5827 28.9784C45.363 29.6522 45.5443 30.3937 46.0496 30.8936L48.8969 33.6951L48.2414 37.6355C48.1839 37.9789 48.2233 38.3315 48.3553 38.6537C48.4873 38.9759 48.7066 39.2549 48.9885 39.4592C49.5597 39.8785 50.3215 39.9316 50.955 39.6076L54.5 37.7675L58.0449 39.6077C58.3541 39.7682 58.7019 39.8393 59.0492 39.8131C59.3966 39.7869 59.7297 39.6644 60.0114 39.4594C60.2933 39.255 60.5125 38.976 60.6445 38.6538C60.7765 38.3316 60.816 37.979 60.7585 37.6356L60.103 33.6952L62.9502 30.8937C63.4557 30.3937 63.637 29.6522 63.4173 28.9784Z" fill="#1B4671"/>
</svg>
