<svg width="60" height="60" viewBox="0 0 60 60" fill="none" xmlns="http://www.w3.org/2000/svg">
<path d="M60 27V33C59.9991 33.7954 59.6828 34.5579 59.1204 35.1204C58.5579 35.6828 57.7954 35.9991 57 36H52.7241C52.1875 38.04 51.3757 39.9974 50.311 41.8184L53.3379 44.854C53.8963 45.417 54.2096 46.1779 54.2094 46.9709C54.2092 47.7639 53.8956 48.5247 53.3369 49.0874L49.0869 53.3369C48.5169 53.8822 47.7585 54.1865 46.9697 54.1865C46.1809 54.1865 45.4225 53.8822 44.8525 53.3369L41.8184 50.311C39.9974 51.3757 38.04 52.1875 36 52.7241V57C35.9991 57.7954 35.6828 58.5579 35.1204 59.1204C34.5579 59.6828 33.7954 59.9991 33 60H27C26.2046 59.9991 25.4421 59.6828 24.8796 59.1204C24.3172 58.5579 24.0009 57.7954 24 57V52.7241C22.7609 52.396 21.5507 51.9674 20.3813 51.4424C20.2347 51.375 20.1064 51.2734 20.0073 51.146C19.9081 51.0187 19.8411 50.8694 19.8117 50.7107C19.7824 50.552 19.7916 50.3886 19.8387 50.2342C19.8857 50.0799 19.9692 49.9391 20.082 49.8237L24.332 45.5635C24.4598 45.4357 24.6197 45.3448 24.7949 45.3006C24.9701 45.2563 25.154 45.2603 25.3272 45.312C26.843 45.7673 28.4172 45.9991 30 46C33.1645 46 36.2579 45.0616 38.8891 43.3035C41.5203 41.5454 43.5711 39.0466 44.7821 36.1229C45.9931 33.1993 46.3099 29.9823 45.6926 26.8786C45.0752 23.7749 43.5513 20.9239 41.3137 18.6863C39.0761 16.4487 36.2251 14.9248 33.1214 14.3074C30.0177 13.6901 26.8007 14.0069 23.8771 15.2179C20.9534 16.4289 18.4546 18.4797 16.6965 21.1109C14.9384 23.7421 14 26.8355 14 30C14.0015 31.5797 14.2332 33.1507 14.688 34.6636C14.7398 34.8364 14.7438 35.0201 14.6996 35.195C14.6554 35.37 14.5647 35.5297 14.437 35.6572L10.1768 39.917C10.0615 40.0302 9.92075 40.114 9.7663 40.1614C9.61184 40.2087 9.44826 40.2181 9.2894 40.1888C9.13053 40.1596 8.98104 40.0925 8.85358 39.9932C8.72613 39.894 8.62444 39.7655 8.55713 39.6187C8.03267 38.4492 7.60417 37.239 7.27588 36H3C2.20462 35.9991 1.44206 35.6828 0.879639 35.1204C0.317218 34.5579 0.000868196 33.7954 0 33V27C0.000868196 26.2046 0.317218 25.4421 0.879639 24.8796C1.44206 24.3172 2.20462 24.0009 3 24H7.27588C7.81258 21.9599 8.6244 20.0023 9.689 18.1812L6.66211 15.146C6.10365 14.583 5.79038 13.8221 5.79057 13.0291C5.79075 12.2361 6.10439 11.4753 6.66311 10.9126L10.9131 6.66309C11.4831 6.11782 12.2415 5.81348 13.0303 5.81348C13.8191 5.81348 14.5775 6.11782 15.1475 6.66309L18.1816 9.689C20.0026 8.62432 21.96 7.8125 24 7.27588V3C24.0009 2.20462 24.3172 1.44206 24.8796 0.879639C25.4421 0.317218 26.2046 0.000868196 27 0H33C33.7954 0.000868196 34.5579 0.317218 35.1204 0.879639C35.6828 1.44206 35.9991 2.20462 36 3V7.27588C38.04 7.8125 39.9974 8.62432 41.8184 9.689L44.854 6.66211C45.4242 6.11742 46.1824 5.81354 46.9709 5.81373C47.7594 5.81392 48.5175 6.11815 49.0874 6.66311L53.3369 10.9131C53.8958 11.476 54.2095 12.2371 54.2095 13.0303C54.2095 13.8235 53.8958 14.5846 53.3369 15.1475L50.311 18.1812C51.3756 20.0023 52.1874 21.9599 52.7241 24H57C57.7954 24.0009 58.5579 24.3172 59.1204 24.8796C59.6828 25.4421 59.9991 26.2046 60 27ZM41.3911 24.896C41.3354 24.7358 41.2402 24.5922 41.1142 24.4786C40.9882 24.3651 40.8356 24.2852 40.6705 24.2463C40.5053 24.2075 40.3331 24.211 40.1697 24.2566C40.0063 24.3021 39.8571 24.3882 39.7358 24.5068L35.1856 29.0576L32.0034 27.9966L30.9429 24.8145L35.4932 20.2642C35.6118 20.143 35.6979 19.9937 35.7435 19.8303C35.789 19.6669 35.7926 19.4947 35.7537 19.3296C35.7149 19.1644 35.635 19.0118 35.5214 18.8858C35.4078 18.7598 35.2642 18.6646 35.104 18.6089C33.3914 18.0308 31.5541 17.9284 29.7878 18.3125C28.0216 18.6967 26.3928 19.5531 25.0751 20.7903C23.7574 22.0276 22.8003 23.5993 22.3057 25.3378C21.8112 27.0764 21.7978 28.9166 22.2671 30.6621L1.55225 51.377C0.614604 52.3146 0.0878394 53.5864 0.0878394 54.9124C0.0878394 56.2384 0.614604 57.5102 1.55225 58.4478C2.4899 59.3854 3.76162 59.9122 5.08765 59.9122C6.41368 59.9122 7.6854 59.3854 8.62305 58.4478L29.3379 37.7329C31.0834 38.2022 32.9236 38.1888 34.6622 37.6943C36.4007 37.1998 37.9724 36.2426 39.2097 34.9249C40.447 33.6072 41.3033 31.9784 41.6875 30.2122C42.0717 28.4459 41.9692 26.6086 41.3911 24.896Z" fill="#1B4671"/>
</svg>
