<svg width="64" height="58" viewBox="0 0 64 58" fill="none" xmlns="http://www.w3.org/2000/svg">
<path d="M18.75 53.237C22.6499 55.7384 27.179 57.125 31.875 57.125C35.8154 57.125 39.5764 56.2131 43.0591 54.415L41.3379 51.0825C34.1408 54.8 25.0181 53.7625 18.75 48.5994V34.625H0V53.375H18.75V53.237Z" fill="#1B4671"/>
<path d="M26.7338 12.8639L31.9991 21.2876L44.7578 0.875H19.2403L24.6696 9.56125C16.0597 12.2902 9.47619 19.66 7.96094 28.6905L11.6597 29.3094C12.9957 21.3462 18.9908 14.9149 26.7338 12.8639Z" fill="#1B4671"/>
<path d="M45.2502 44C45.2502 49.1691 49.4543 53.375 54.6252 53.375C59.7961 53.375 64.0002 49.1691 64.0002 44C64.0002 39.4147 60.687 35.6038 56.3306 34.7976C56.3876 34.1136 56.5002 33.4377 56.5002 32.75C56.5002 24.2265 51.9518 16.2064 44.6313 11.8229L42.7051 15.0419C48.9013 18.7516 52.7502 25.5375 52.7502 32.75C52.7502 33.4622 52.6466 34.162 52.5747 34.8667C48.3902 35.8065 45.2502 39.537 45.2502 44Z" fill="#1B4671"/>
</svg>
