<svg width="64" height="64" viewBox="0 0 64 64" fill="none" xmlns="http://www.w3.org/2000/svg">
<path d="M62.125 0H35.75C34.715 0 33.875 0.84 33.875 1.875V16.875C33.875 17.91 34.715 18.75 35.75 18.75H42.735L47.6188 23.5825C47.9838 23.9438 48.4613 24.125 48.9375 24.125C49.4137 24.125 49.8912 23.9438 50.2562 23.5825L55.14 18.75H62.125C63.16 18.75 64 17.91 64 16.875V1.875C64 0.84 63.16 0 62.125 0ZM54.5625 11.25H43.3125C42.2775 11.25 41.4375 10.41 41.4375 9.375C41.4375 8.34 42.2775 7.5 43.3125 7.5H54.5625C55.5975 7.5 56.4375 8.34 56.4375 9.375C56.4375 10.41 55.5975 11.25 54.5625 11.25Z" fill="#1B4671"/>
<path d="M58.375 26.375C55.931 26.375 53.8467 27.9429 53.0726 30.125H37.3024C36.5283 27.9429 34.444 26.375 32 26.375C29.556 26.375 27.4717 27.9429 26.6976 30.125H10.9274C10.1532 27.9429 8.069 26.375 5.625 26.375C2.52375 26.375 0 28.8988 0 32C0 35.1012 2.52375 37.625 5.625 37.625C8.069 37.625 10.1532 36.0571 10.9274 33.875H26.6976C27.4717 36.0571 29.556 37.625 32 37.625C34.444 37.625 36.5283 36.0571 37.3024 33.875H53.0726C53.8467 36.0571 55.931 37.625 58.375 37.625C61.4762 37.625 64 35.1012 64 32C64 28.8988 61.4762 26.375 58.375 26.375Z" fill="#1B4671"/>
<path d="M28.25 45.25H21.265L16.3813 40.4175C16.0163 40.055 15.54 39.875 15.0625 39.875C14.585 39.875 14.1087 40.055 13.7437 40.4175L8.86 45.25H1.875C0.84 45.25 0 46.09 0 47.125V62.125C0 63.16 0.84 64 1.875 64H28.25C29.285 64 30.125 63.16 30.125 62.125V47.125C30.125 46.09 29.285 45.25 28.25 45.25ZM20.6875 56.5H9.4375C8.4025 56.5 7.5625 55.66 7.5625 54.625C7.5625 53.59 8.4025 52.75 9.4375 52.75H20.6875C21.7225 52.75 22.5625 53.59 22.5625 54.625C22.5625 55.66 21.7225 56.5 20.6875 56.5Z" fill="#1B4671"/>
</svg>
