<svg width="64" height="64" viewBox="0 0 64 64" fill="none" xmlns="http://www.w3.org/2000/svg">
<g clip-path="url(#clip0_1042_380)">
<path d="M54.8555 0V9.14262H63.9981L54.8555 0Z" fill="#1B4671"/>
<path d="M9.14262 0V9.14262H0L9.14262 0Z" fill="#1B4671"/>
<path d="M19.9229 42.4618L7.19249 55.1922C6.86549 55.5192 6.76727 56.0103 6.94472 56.4377C7.12106 56.8652 7.53846 57.143 8.0005 57.143H16.3195L18.3451 63.2188C18.498 63.6775 18.9232 63.9911 19.4076 64H19.4288C19.9042 64 20.3317 63.7054 20.4991 63.259L26.5832 47.0348C23.9852 46.0956 21.6998 44.51 19.9229 42.4618Z" fill="#1B4671"/>
<path d="M56.8061 55.1905L44.0766 42.4609C42.2998 44.5093 40.0142 46.0952 37.416 47.0345L43.4996 63.2573C43.667 63.7037 44.0944 63.9983 44.5698 63.9983H44.5911C45.0754 63.9894 45.5006 63.6758 45.6535 63.2171L47.6791 57.1414H55.9981C56.4602 57.1414 56.8776 56.8635 57.0539 56.436C57.2313 56.0086 57.1331 55.5175 56.8061 55.1905Z" fill="#1B4671"/>
<path d="M15.9996 31.9992H5.71414C5.08301 31.9992 4.57131 31.4875 4.57131 30.8563C4.57131 30.2252 5.08301 29.7135 5.71414 29.7135H16.1821C16.2945 28.9331 16.4523 28.1678 16.6734 27.4279H5.71414C5.08301 27.4279 4.57131 26.9161 4.57131 26.285C4.57131 25.6539 5.08301 25.1422 5.71414 25.1422H17.5653C17.9467 24.3427 18.3841 23.5765 18.8878 22.8565H5.71414C5.08301 22.8565 4.57131 22.3448 4.57131 21.7137C4.57131 21.0826 5.08301 20.5709 5.71414 20.5709H20.8231C22.6544 18.7796 24.911 17.4256 27.4279 16.6734V2.28565C27.4279 1.02327 26.4046 0 25.1422 0H11.4283V9.14262C11.4283 10.405 10.405 11.4283 9.14262 11.4283H0V34.2848C0 35.5471 1.02327 36.5705 2.28565 36.5705H16.6734C16.2401 35.1206 15.9996 33.5881 15.9996 31.9992ZM5.71414 15.9996H21.7137C22.3448 15.9996 22.8565 16.5113 22.8565 17.1424C22.8565 17.7735 22.3448 18.2852 21.7137 18.2852H5.71414C5.08301 18.2852 4.57131 17.7735 4.57131 17.1424C4.57131 16.5113 5.08301 15.9996 5.71414 15.9996Z" fill="#1B4671"/>
<path d="M54.8555 11.4283C53.5932 11.4283 52.5699 10.405 52.5699 9.14262V0H38.856C37.5936 0 36.5703 1.02327 36.5703 2.28565V16.6734C39.0871 17.4256 41.3438 18.7796 43.1751 20.5709H58.284C58.9152 20.5709 59.4269 21.0826 59.4269 21.7137C59.4269 22.3448 58.9152 22.8565 58.284 22.8565H45.1104C45.614 23.5765 46.0515 24.3427 46.4329 25.1422H58.284C58.9152 25.1422 59.4269 25.6539 59.4269 26.285C59.4269 26.9161 58.9152 27.4279 58.284 27.4279H47.3248C47.5459 28.1678 47.7037 28.9331 47.8161 29.7135H58.284C58.9152 29.7135 59.4269 30.2252 59.4269 30.8563C59.4269 31.4875 58.9152 31.9992 58.284 31.9992H47.9986C47.9986 33.5881 47.7581 35.1206 47.3248 36.5705H61.7125C62.9749 36.5705 63.9982 35.5471 63.9982 34.2848V11.4283H54.8555ZM58.284 18.2852H42.2844C41.6533 18.2852 41.1416 17.7735 41.1416 17.1424C41.1416 16.5113 41.6533 15.9996 42.2844 15.9996H58.284C58.9152 15.9996 59.4269 16.5113 59.4269 17.1424C59.4269 17.7735 58.9152 18.2852 58.284 18.2852Z" fill="#1B4671"/>
<path d="M31.9991 18.2852C24.4371 18.2852 18.2852 24.4371 18.2852 31.9991C18.2852 39.561 24.4371 45.7131 31.9991 45.7131C39.5611 45.7131 45.713 39.561 45.713 31.9991C45.713 24.4371 39.5611 18.2852 31.9991 18.2852ZM39.6641 28.2359L30.5214 37.3785C30.2982 37.6017 30.0058 37.7133 29.7134 37.7133C29.421 37.7133 29.1286 37.6017 28.9054 37.3785L24.3341 32.8072C23.8877 32.3607 23.8877 31.6375 24.3341 31.1911C24.7805 30.7447 25.5037 30.7447 25.9501 31.1911L29.7134 34.9544L38.048 26.6198C38.4944 26.1734 39.2176 26.1734 39.6641 26.6198C40.1105 27.0662 40.1105 27.7894 39.6641 28.2359Z" fill="#1B4671"/>
</g>
<defs>
<clipPath id="clip0_1042_380">
<rect width="64" height="64" fill="white"/>
</clipPath>
</defs>
</svg>
