<svg width="100" height="100" viewBox="0 0 100 100" fill="none" xmlns="http://www.w3.org/2000/svg">
<g clip-path="url(#clip0_14_132)">
<path d="M93.5406 64.9602V65.2049L93.7119 65.3799C97.2293 68.9731 99.4 73.8859 99.4 79.2969C99.4 90.3867 90.4635 99.4 79.4922 99.4H20.7031C18.5108 99.4 16.4423 98.505 14.8759 96.8665C13.3511 95.2713 12.5141 93.1943 12.5141 91.0156V88.0859V87.4859H11.9141H8.78906C4.27414 87.4859 0.6 83.8118 0.6 79.2969C0.6 74.782 4.27414 71.1078 8.78906 71.1078H11.9141H12.5141V70.5078V58.7891V58.1891H11.9141H8.78906C4.27414 58.1891 0.6 54.5149 0.6 50C0.6 45.4851 4.27414 41.8109 8.78906 41.8109H11.9141H12.5141V41.2109V29.4922V28.8922H11.9141H8.78906C4.27414 28.8922 0.6 25.218 0.6 20.7031C0.6 16.1882 4.27414 12.5141 8.78906 12.5141H11.9141H12.5141V11.9141V8.78906C12.5141 4.27414 16.1882 0.6 20.7031 0.6H85.3516C89.8665 0.6 93.5406 4.27414 93.5406 8.78906V64.9602ZM17.5729 87.0165L17.1734 87.1582V87.582V91.0156C17.1734 92.9746 18.7753 94.7406 20.7031 94.7406H65.2121H66.6808L65.6322 93.7122C61.9042 90.0562 59.5844 84.9458 59.5844 79.2969C59.5844 68.3202 68.5155 59.3891 79.4922 59.3891C82.5443 59.3891 85.4366 60.0801 88.0232 61.3122L88.8812 61.7209V60.7705V8.78906C88.8812 6.84226 87.2984 5.25938 85.3516 5.25938H20.7031C18.7563 5.25938 17.1734 6.84226 17.1734 8.78906V12.418V12.8418L17.5729 12.9835C20.7517 14.1109 23.0328 17.1466 23.0328 20.7031C23.0328 24.2597 20.7517 27.2954 17.5729 28.4228L17.1734 28.5645V28.9883V41.7148V42.1387L17.5729 42.2803C20.7517 43.4077 23.0328 46.4434 23.0328 50C23.0328 53.5566 20.7517 56.5923 17.5729 57.7197L17.1734 57.8613V58.2852V71.0117V71.4355L17.5729 71.5772C20.7517 72.7046 23.0328 75.7403 23.0328 79.2969C23.0328 82.8534 20.7517 85.8891 17.5729 87.0165ZM5.25938 20.7031C5.25938 22.6499 6.84226 24.2328 8.78906 24.2328H14.8438C16.7906 24.2328 18.3734 22.6499 18.3734 20.7031C18.3734 18.7563 16.7906 17.1734 14.8438 17.1734H8.78906C6.84226 17.1734 5.25938 18.7563 5.25938 20.7031ZM5.25938 50C5.25938 51.9468 6.84226 53.5297 8.78906 53.5297H14.8438C16.7906 53.5297 18.3734 51.9468 18.3734 50C18.3734 48.0532 16.7906 46.4703 14.8438 46.4703H8.78906C6.84226 46.4703 5.25938 48.0532 5.25938 50ZM8.78906 82.8266H14.8438C16.7906 82.8266 18.3734 81.2437 18.3734 79.2969C18.3734 77.3501 16.7906 75.7672 14.8438 75.7672H8.78906C6.84226 75.7672 5.25938 77.3501 5.25938 79.2969C5.25938 81.2437 6.84226 82.8266 8.78906 82.8266ZM64.2438 79.2969C64.2438 87.8057 71.0762 94.7406 79.4922 94.7406C87.9082 94.7406 94.7406 87.8057 94.7406 79.2969C94.7406 70.8884 87.9007 64.0484 79.4922 64.0484C71.0837 64.0484 64.2438 70.8884 64.2438 79.2969Z" fill="#1B4671" stroke="#EFF5FB" stroke-width="1.2"/>
<path d="M81.8219 76.3673V76.9673H82.4219H85.3516C86.6382 76.9673 87.6813 78.0103 87.6813 79.2969C87.6813 80.5835 86.6382 81.6266 85.3516 81.6266H79.4922C78.2056 81.6266 77.1625 80.5835 77.1625 79.2969V73.4376C77.1625 72.151 78.2056 71.1079 79.4922 71.1079C80.7788 71.1079 81.8219 72.151 81.8219 73.4376V76.3673ZM51.6472 19.0557L51.6472 19.0558C52.557 19.9656 52.557 21.4406 51.6472 22.3504L39.9285 34.0692L39.9283 34.0693C39.4736 34.5244 38.8785 34.7516 38.2813 34.7516C37.684 34.7516 37.0889 34.5243 36.6341 34.0694L36.634 34.0694L29.9508 27.3862C29.041 26.4763 29.041 25.0014 29.9508 24.0915C30.8607 23.1817 32.3358 23.1817 33.2454 24.0915L33.2455 24.0915L37.857 28.703L38.2812 29.1273L38.7055 28.7031L48.3528 19.056L48.3529 19.0559C49.2625 18.146 50.7376 18.146 51.6472 19.0557ZM51.6472 42.4932L51.6472 42.4933C52.557 43.4031 52.557 44.8781 51.6472 45.7879L39.9285 57.5067L39.9283 57.5068C39.4736 57.9619 38.8785 58.1891 38.2813 58.1891C37.684 58.1891 37.0889 57.9618 36.6341 57.5069L36.634 57.5069L29.9508 50.8237C29.041 49.9138 29.041 48.4388 29.9508 47.529C30.8607 46.6192 32.3358 46.6192 33.2454 47.529L33.2455 47.529L37.857 52.1405L38.2812 52.5648L38.7055 52.1405L48.3528 42.4935L48.3529 42.4934C49.2625 41.5835 50.7376 41.5835 51.6472 42.4932ZM51.6472 65.9307L51.6472 65.9308C52.557 66.8406 52.557 68.3156 51.6472 69.2254L39.9285 80.9442L39.9283 80.9443C39.4736 81.3993 38.8785 81.6266 38.2813 81.6266C37.684 81.6266 37.0889 81.3993 36.6341 80.9444L36.634 80.9444L29.9508 74.2612C29.041 73.3513 29.041 71.8763 29.9508 70.9665C30.8607 70.0567 32.3358 70.0567 33.2454 70.9665L33.2455 70.9665L37.857 75.578L38.2812 76.0023L38.7055 75.578L48.3528 65.931L48.3529 65.9309C49.2625 65.021 50.7376 65.021 51.6472 65.9307ZM61.9141 24.2329H79.4922C80.7788 24.2329 81.8219 25.276 81.8219 26.5626C81.8219 27.8492 80.7788 28.8923 79.4922 28.8923H61.9141C60.6275 28.8923 59.5844 27.8492 59.5844 26.5626C59.5844 25.276 60.6275 24.2329 61.9141 24.2329ZM61.9141 47.6704H79.4922C80.7788 47.6704 81.8219 48.7135 81.8219 50.0001C81.8219 51.2867 80.7788 52.3298 79.4922 52.3298H61.9141C60.6275 52.3298 59.5844 51.2867 59.5844 50.0001C59.5844 48.7135 60.6275 47.6704 61.9141 47.6704Z" fill="#1B4671" stroke="#EFF5FB" stroke-width="1.2"/>
</g>
<defs>
<clipPath id="clip0_14_132">
<rect width="100" height="100" fill="white"/>
</clipPath>
</defs>
</svg>
