<svg width="100" height="100" viewBox="0 0 100 100" fill="none" xmlns="http://www.w3.org/2000/svg">
<path d="M23.0031 34.0518C22.2414 33.29 21.0031 33.29 20.2416 34.0518C19.4779 34.8154 19.4779 36.0518 20.2416 36.8135C21.0033 37.5771 22.2416 37.5771 23.0031 36.8135C23.7666 36.0518 23.7666 34.8154 23.0031 34.0518ZM49.4529 87.4449C50.3141 86.2785 50.7795 84.8732 50.7795 83.3957C50.7795 79.6266 47.7131 76.56 43.9438 76.56H10.7418C8.91504 76.56 7.19844 77.2709 5.90801 78.5617C4.61699 79.8523 3.90605 81.5689 3.90605 83.3957C3.90474 84.8524 4.37134 86.271 5.23711 87.4426C2.12715 89.0777 0 92.3394 0 96.0904V98.0435C0 99.1223 0.874609 99.9967 1.95312 99.9967H52.7324C53.8109 99.9967 54.6855 99.1223 54.6855 98.0435V96.0904C54.6855 92.3412 52.5605 89.0808 49.4529 87.4449ZM8.66992 81.3234C8.94139 81.0506 9.2643 80.8343 9.61994 80.6871C9.97558 80.5398 10.3569 80.4646 10.7418 80.4658H43.9438C45.5592 80.4658 46.8732 81.7801 46.8732 83.3953C46.8732 84.1785 46.5686 84.9142 46.0154 85.4674C45.744 85.7402 45.4211 85.9565 45.0654 86.1037C44.7098 86.251 44.3285 86.3262 43.9436 86.325H10.7418C9.12637 86.325 7.8123 85.0107 7.8123 83.3955C7.8123 82.6125 8.1168 81.8766 8.66992 81.3234ZM3.90605 96.0904C3.90605 92.8598 6.53457 90.2312 9.76523 90.2312H44.9203C48.151 90.2312 50.7795 92.8598 50.7795 96.0904H3.90605Z" fill="#1B4671"/>
<path d="M98.1823 82.0555C97.519 81.0276 96.7276 80.1186 95.8297 79.3538L86.7038 71.3942C86.6314 71.2852 86.5484 71.1837 86.4559 71.0913C86.3017 70.9377 86.1227 70.8111 85.9266 70.7167L80.4077 65.9032L54.8627 43.6198C55.9084 42.5266 56.4842 41.0971 56.4842 39.577C56.4842 38.011 55.8747 36.5393 54.7667 35.4315C54.2962 34.9614 53.7485 34.5758 53.1473 34.2915L55.5106 31.9282C56.1691 32.1038 56.8476 32.193 57.5292 32.1936C59.5294 32.1934 61.5297 31.4321 63.0524 29.9094C64.5286 28.4334 65.3415 26.4715 65.3415 24.385C65.3415 22.2985 64.5286 20.3366 63.0526 18.8606L46.4807 2.28911C45.0047 0.813135 43.0426 0.000244141 40.9555 0.000244141C38.8694 0.000244141 36.9079 0.813135 35.4321 2.28911C33.3922 4.32896 32.7208 7.22524 33.4133 9.8311L9.83423 33.41C9.17456 33.2344 8.49481 33.1454 7.81216 33.1454C5.72466 33.1454 3.76353 33.9577 2.28872 35.4323C-0.757373 38.4784 -0.757373 43.4348 2.28872 46.4811L18.8604 63.053C20.3836 64.576 22.3842 65.3375 24.3848 65.3375C26.3856 65.3375 28.3862 64.576 29.9094 63.053C31.9493 61.0129 32.6208 58.1168 31.9282 55.511L34.2866 53.1524C34.5741 53.7519 34.9615 54.2982 35.4323 54.7678C36.5389 55.8745 38.0102 56.484 39.5758 56.484C41.0944 56.484 42.5233 55.9092 43.618 54.8647L70.8262 86.1252C70.9012 86.2424 70.9887 86.354 71.0911 86.4563C71.126 86.4913 71.1631 86.5231 71.2001 86.5547L79.3077 95.87C79.5116 96.1105 79.7253 96.3425 79.9483 96.5655C82.175 98.7915 85.1163 99.9995 88.2042 99.9995C88.7485 99.9995 89.2979 99.962 89.8481 99.8858C93.5256 99.3768 96.704 97.1768 98.5676 93.8491C100.609 90.202 100.457 85.5717 98.1823 82.0555ZM38.1944 5.05122C38.5561 4.68733 38.9864 4.39879 39.4604 4.2023C39.9344 4.00581 40.4426 3.90527 40.9557 3.90649C41.4691 3.90511 41.9776 4.00557 42.4519 4.20207C42.9262 4.39856 43.3568 4.68718 43.7188 5.05122L60.2907 21.6229C60.6546 21.9848 60.9432 22.4153 61.1396 22.8894C61.3361 23.3636 61.4365 23.872 61.4352 24.3852C61.4366 24.8985 61.3361 25.4069 61.1396 25.881C60.9431 26.3552 60.6545 26.7857 60.2905 27.1475C58.768 28.6704 56.2903 28.6704 54.7678 27.1475L38.1954 10.575L38.1944 10.5741C36.6715 9.05142 36.6715 6.57388 38.1944 5.05122ZM27.1473 60.2909C25.6243 61.8139 23.1456 61.8141 21.6225 60.2909L5.05083 43.7192C3.52759 42.1959 3.52759 39.7178 5.05083 38.1944C5.78755 37.4575 6.76841 37.0516 7.81216 37.0516C8.85571 37.0516 9.83599 37.4573 10.5725 38.1936L27.1471 54.7682C28.6702 56.2907 28.6702 58.7684 27.1473 60.2909ZM35.3704 46.5448L29.9092 52.0061L13.3358 35.4327L35.4321 13.336L52.0053 29.9094L46.5342 35.3807C46.5165 35.3975 46.4991 35.4139 46.4803 35.4325L35.4377 46.4752C35.4149 46.4977 35.3928 46.5211 35.3704 46.5448ZM42.3442 50.6192L42.3327 50.6307L40.9573 52.0061C40.7762 52.188 40.5609 52.3323 40.3237 52.4304C40.0866 52.5286 39.8323 52.5787 39.5756 52.578C39.319 52.5787 39.0647 52.5286 38.8276 52.4304C38.5905 52.3322 38.3752 52.1879 38.1942 52.0059C38.012 51.8248 37.8676 51.6093 37.7693 51.372C37.671 51.1346 37.6208 50.8802 37.6215 50.6233C37.6215 50.112 37.8167 49.6309 38.1708 49.268L49.2647 38.1741C50.0251 37.4346 51.2543 37.4438 52.0057 38.1944C52.1878 38.3755 52.3322 38.591 52.4304 38.8284C52.5287 39.0657 52.5789 39.3201 52.5782 39.577C52.579 39.8336 52.5288 40.0878 52.4305 40.3249C52.3322 40.5619 52.1877 40.777 52.0055 40.9577L50.6381 42.325C50.6287 42.3343 50.6194 42.3436 50.6102 42.353L42.3442 50.6192ZM46.3887 52.0987L52.0969 46.3905L76.2653 67.4715L67.4461 76.2909L46.3887 52.0987ZM70.0166 79.2444L79.2157 70.0452L82.1663 72.6188L72.5872 82.1981L70.0166 79.2444ZM95.1596 91.9409C93.8991 94.1915 91.768 95.6768 89.3127 96.0166C86.8631 96.3557 84.4563 95.5489 82.7098 93.8032C82.5607 93.6542 82.4179 93.4991 82.2819 93.3381L82.2629 93.3161L75.1575 85.1516L85.1167 75.1922L93.271 82.3049L93.2897 82.3211C93.9 82.8401 94.4417 83.4633 94.9012 84.1754C96.3782 86.4577 96.4817 89.5788 95.1596 91.9409Z" fill="#1B4671"/>
<path d="M36.8134 20.2415C36.0505 19.4788 34.8141 19.4788 34.0512 20.2415L25.7645 28.5282C25.0018 29.2909 25.0018 30.5276 25.7645 31.2901C25.9457 31.4717 26.161 31.6158 26.398 31.714C26.635 31.8121 26.889 31.8625 27.1456 31.8622C27.4021 31.8625 27.6562 31.8121 27.8932 31.7139C28.1302 31.6157 28.3455 31.4717 28.5266 31.2901L36.8134 23.0034C37.576 22.2409 37.576 21.0043 36.8134 20.2415Z" fill="#1B4671"/>
</svg>
