<svg width="100" height="95" viewBox="0 0 100 95" fill="none" xmlns="http://www.w3.org/2000/svg">
<path d="M26.751 60.2019C27.6848 59.6634 28.0045 58.4677 27.4658 57.5339C26.9264 56.6009 25.7317 56.2804 24.7979 56.8191C23.8641 57.3585 23.5436 58.554 24.083 59.487C24.6215 60.4208 25.8172 60.7413 26.751 60.2019Z" fill="#1B4671"/>
<path d="M18.7469 73.6824L28.5828 90.7195C30.7053 94.4 35.4797 95.7625 39.2555 93.5799C42.9918 91.4207 44.2756 86.6471 42.1143 82.908L36.2549 72.7576L41.3291 69.8279C42.2631 69.2879 42.5834 68.0939 42.0439 67.16L39.5043 62.7609C39.807 62.7023 41.7984 62.3117 76.9143 55.423C81.2553 55.1873 83.8563 50.4395 81.6635 46.6437L75.1725 35.4012L79.3205 29.1184C79.5204 28.8156 79.6321 28.4632 79.643 28.1006C79.654 27.738 79.5637 27.3795 79.3824 27.0652L75.4762 20.2996C75.2944 19.9858 75.029 19.7287 74.7095 19.5569C74.3901 19.3851 74.0292 19.3055 73.6672 19.327L66.1529 19.7777L58.9471 7.2959C57.9033 5.48789 56.0334 4.39297 53.9459 4.36699C53.9207 4.36621 53.8963 4.36621 53.8711 4.36621C51.8539 4.36621 50.0229 5.37031 48.9381 7.06777L23.4238 39.5707L6.83672 49.1469C0.312892 52.9121 -1.94726 61.2818 1.83262 67.8232C5.28574 73.8047 12.5656 76.1576 18.7469 73.6826V73.6824ZM38.7322 84.8617C39.8109 86.7279 39.1725 89.1158 37.3008 90.1971C35.4232 91.2826 33.0322 90.6158 31.9656 88.7674L22.2 71.8506L28.9656 67.9443C40.268 87.5229 38.5506 84.5482 38.7322 84.8617ZM34.3018 69.374L32.3486 65.9912L35.7314 64.0381L37.6846 67.4209L34.3018 69.374ZM72.6967 23.2979L75.3959 27.9732L72.9889 31.6186L68.3365 23.5596L72.6967 23.2979ZM52.2049 9.20938C52.7291 8.35195 53.5606 8.26348 53.8979 8.27246C54.2313 8.27637 55.0621 8.38008 55.5633 9.24844L78.2807 48.5969C79.0207 49.8779 78.1211 51.4885 76.6373 51.5252C76.3711 51.5311 76.2482 51.5793 75.566 51.7068L51.5357 10.0844C52.04 9.43594 52.1049 9.37344 52.2049 9.20938ZM48.9365 13.3957L71.5141 52.5018L37.4398 59.185L27.0791 41.2398L48.9365 13.3957ZM5.21543 65.8699C4.35863 64.3887 3.90665 62.7081 3.90488 60.9969C3.90488 57.5135 5.77695 54.2693 8.78965 52.5301L24.0127 43.741L33.7783 60.6551L18.5555 69.4451C13.8916 72.1365 7.90781 70.533 5.21563 65.8699H5.21543Z" fill="#1B4671"/>
<path d="M20.7 61.4402C20.1607 60.5064 18.9658 60.1859 18.032 60.7253L14.6492 62.6784C13.7168 63.2171 12.5199 62.8958 11.9812 61.9636C11.4418 61.0298 10.2469 60.7093 9.31328 61.2487C8.37969 61.7882 8.05898 62.9829 8.59844 63.9167C10.2059 66.7015 13.7918 67.6833 16.6023 66.0612L19.9852 64.1081C20.9189 63.5689 21.2395 62.3747 20.7 61.4402ZM97.0971 8.54406L86.2137 14.6003C85.2715 15.1251 84.932 16.3146 85.4568 17.2568C85.9803 18.1982 87.1689 18.5394 88.1135 18.0136L98.9959 11.9575C99.9391 11.4325 100.278 10.2431 99.7527 9.3009C99.2287 8.35793 98.0393 8.01925 97.0971 8.54406ZM95.9557 28.7726L88.4094 26.7509C87.3672 26.4716 86.2961 27.0896 86.0168 28.1318C85.7375 29.1739 86.3564 30.2445 87.3984 30.5236L94.9455 32.5454C95.9938 32.8269 97.0596 32.1989 97.3373 31.1646C97.6166 30.1224 96.9978 29.0513 95.9557 28.7726ZM76.9922 1.44797L74.968 8.99484C74.6887 10.0372 75.3066 11.1075 76.3488 11.3874C77.3902 11.6659 78.4615 11.0495 78.7414 10.0066L80.7648 2.45968C81.0441 1.4175 80.426 0.346404 79.384 0.0671068C78.3424 -0.21219 77.2713 0.405779 76.992 1.44797H76.9922Z" fill="#1B4671"/>
</svg>
