<svg width="67" height="54" viewBox="0 0 67 54" fill="none" xmlns="http://www.w3.org/2000/svg">
<path d="M36.1985 11.7421C33.7815 10.3466 31.0672 9.5458 28.2798 9.40591C25.4923 9.26602 22.7115 9.79103 20.1669 10.9376C17.6223 12.0842 15.3869 13.8194 13.6451 16.0002C11.9033 18.1809 10.705 20.7446 10.1493 23.4797L12.3494 23.9197C12.839 21.5335 13.8877 19.2975 15.4092 17.3953C16.9308 15.4931 18.8819 13.9789 21.1023 12.9772C23.3227 11.9754 25.749 11.5147 28.1821 11.6327C30.6151 11.7507 32.9855 12.4442 35.0984 13.6562L36.1985 11.7421ZM27.3981 44.6007C30.486 44.6027 33.5204 43.7948 36.1985 42.2576L35.0984 40.3435C32.9847 41.56 30.6123 42.2572 28.1765 42.3776C25.7407 42.4981 23.3111 42.0383 21.0877 41.0361C18.8643 40.034 16.9107 38.5182 15.3877 36.6134C13.8647 34.7086 12.8158 32.4694 12.3274 30.08L10.1273 30.52C10.9395 34.4993 13.1029 38.0752 16.2506 40.6415C19.3984 43.2078 23.3368 44.6066 27.3981 44.6007ZM9.79724 26.9999V28.1989L11.9973 28.0009C11.9387 27.3348 11.9387 26.6649 11.9973 25.9988L9.79724 25.8008V26.9999Z" fill="#B6CB23"/>
<path d="M1.9869 31.268C1.83131 31.2803 1.68014 31.3257 1.54342 31.4009C1.4067 31.4762 1.28757 31.5797 1.19392 31.7046C1.10028 31.8294 1.03428 31.9728 1.0003 32.1251C0.966321 32.2774 0.965145 32.4352 0.996849 32.588C1.67788 35.834 2.96145 38.9235 4.78103 41.6965C4.86626 41.8261 4.97795 41.9363 5.10877 42.0197C5.23958 42.1031 5.38657 42.1579 5.54006 42.1805C5.69129 42.2038 5.8457 42.1953 5.99345 42.1555C6.14119 42.1157 6.27901 42.0455 6.3981 41.9495C7.22276 41.2935 8.26002 40.9639 9.31208 41.0236C10.3642 41.0834 11.3574 41.5282 12.1026 42.2733C12.8477 43.0184 13.2925 44.0117 13.3522 45.0638C13.412 46.1159 13.0824 47.1531 12.4264 47.9778C12.3288 48.0982 12.2578 48.2378 12.218 48.3876C12.1782 48.5374 12.1705 48.6939 12.1954 48.8468C12.2194 48.9984 12.2749 49.1432 12.3583 49.272C12.4416 49.4009 12.551 49.5108 12.6794 49.5948C15.4574 51.4247 18.5547 52.7159 21.8098 53.401C21.961 53.4327 22.1171 53.4321 22.268 53.3995C22.4189 53.3668 22.5612 53.3027 22.6858 53.2114C22.8103 53.1201 22.9142 53.0036 22.9907 52.8695C23.0672 52.7354 23.1146 52.5866 23.1299 52.433C23.2374 51.3757 23.7334 50.396 24.522 49.6836C25.3105 48.9711 26.3354 48.5767 27.3981 48.5767C28.4608 48.5767 29.4857 48.9711 30.2742 49.6836C31.0628 50.396 31.5588 51.3757 31.6663 52.433C31.6807 52.5868 31.7273 52.7358 31.8031 52.8704C31.879 53.0049 31.9823 53.122 32.1063 53.214C32.2951 53.3507 32.5223 53.4239 32.7554 53.423H32.9864C36.2323 52.742 39.3218 51.4584 42.0948 49.6389C42.2232 49.5548 42.3326 49.4449 42.4159 49.316C42.4993 49.1872 42.5548 49.0424 42.5788 48.8908C42.6037 48.7379 42.596 48.5814 42.5562 48.4316C42.5163 48.2818 42.4453 48.1422 42.3478 48.0218C41.6837 47.2006 41.3477 46.1625 41.4046 45.1079C41.4615 44.0534 41.9073 43.0574 42.6558 42.3125L42.7438 42.2355L42.0948 41.3005L41.4568 40.4094C41.331 40.4936 41.2164 40.5934 41.1157 40.7064C40.1338 41.6903 39.4962 42.9651 39.2979 44.3409C39.0997 45.7167 39.3514 47.1198 40.0157 48.3408C38.0307 49.5123 35.8901 50.3974 33.6574 50.9699C33.256 49.6366 32.4358 48.4681 31.3183 47.6375C30.2008 46.8068 28.8455 46.3583 27.4531 46.3583C26.0607 46.3583 24.7054 46.8068 23.5879 47.6375C22.4704 48.4681 21.6502 49.6366 21.2488 50.9699C19.0188 50.3998 16.8815 49.5145 14.9015 48.3408C15.5604 47.1105 15.8058 45.7008 15.6016 44.3202C15.3973 42.9396 14.7542 41.6614 13.7674 40.6745C12.7805 39.6876 11.5023 39.0445 10.1217 38.8403C8.74109 38.6361 7.33141 38.8815 6.10109 39.5404C4.92159 37.5581 4.0325 35.4168 3.46096 33.1821C4.79426 32.7807 5.96279 31.9605 6.79343 30.843C7.62406 29.7255 8.07261 28.3702 8.07261 26.9778C8.07261 25.5854 7.62406 24.23 6.79343 23.1125C5.96279 21.995 4.79426 21.1748 3.46096 20.7735C4.03059 18.5416 4.91982 16.4037 6.10109 14.4262C7.33141 15.085 8.74109 15.3305 10.1217 15.1263C11.5023 14.922 12.7805 14.2789 13.7674 13.2921C14.7542 12.3052 15.3973 11.027 15.6016 9.64637C15.8058 8.26577 15.5604 6.85609 14.9015 5.62577C16.879 4.4445 19.0169 3.55527 21.2488 2.98565C21.6502 4.31894 22.4704 5.48747 23.5879 6.31811C24.7054 7.14874 26.0607 7.59729 27.4531 7.59729C28.8455 7.59729 30.2008 7.14874 31.3183 6.31811C32.4358 5.48747 33.256 4.31894 33.6574 2.98565C35.8921 3.55718 38.0334 4.44627 40.0157 5.62577C39.3541 6.84559 39.1038 8.24635 39.302 9.61981C39.5002 10.9933 40.1363 12.2661 41.1157 13.2491C41.2228 13.3597 41.3407 13.4592 41.4678 13.5461L42.7988 11.8081L42.7108 11.7311C41.9623 10.9861 41.5165 9.99014 41.4596 8.93562C41.4027 7.8811 41.7387 6.84293 42.4028 6.02179C42.4989 5.9027 42.569 5.76488 42.6088 5.61713C42.6486 5.46939 42.6571 5.31497 42.6338 5.16375C42.6098 5.0122 42.5543 4.86736 42.4709 4.73853C42.3876 4.60971 42.2782 4.49975 42.1498 4.41571C39.3641 2.57537 36.2547 1.28008 32.9864 0.598533C32.8352 0.566896 32.6791 0.567431 32.5282 0.600101C32.3773 0.632772 32.235 0.696847 32.1104 0.788159C31.9859 0.879471 31.882 0.995974 31.8055 1.13009C31.729 1.2642 31.6816 1.41293 31.6663 1.56658C31.5588 2.62384 31.0628 3.60357 30.2742 4.316C29.4857 5.02844 28.4608 5.42285 27.3981 5.42285C26.3354 5.42285 25.3105 5.02844 24.522 4.316C23.7334 3.60357 23.2374 2.62384 23.1299 1.56658C23.1146 1.41293 23.0672 1.2642 22.9907 1.13009C22.9142 0.995974 22.8103 0.879471 22.6858 0.788159C22.5612 0.696847 22.4189 0.632772 22.268 0.600101C22.1171 0.567431 21.961 0.566896 21.8098 0.598533C18.5622 1.27993 15.4721 2.56747 12.7014 4.39371C12.573 4.47774 12.4636 4.58771 12.3803 4.71653C12.2969 4.84536 12.2414 4.9902 12.2174 5.14175C12.1941 5.29297 12.2026 5.44739 12.2424 5.59513C12.2822 5.74288 12.3523 5.8807 12.4484 5.99979C13.1044 6.82445 13.434 7.8617 13.3742 8.91377C13.3145 9.96583 12.8697 10.9591 12.1246 11.7042C11.3794 12.4494 10.3862 12.8942 9.33408 12.9539C8.28202 13.0136 7.24477 12.6841 6.4201 12.0281C6.30101 11.932 6.16319 11.8619 6.01545 11.8221C5.8677 11.7823 5.71329 11.7738 5.56206 11.7971C5.40857 11.8197 5.26158 11.8745 5.13077 11.9579C4.99995 12.0413 4.88826 12.1514 4.80303 12.2811C2.97318 15.0591 1.68201 18.1564 0.996849 21.4115C0.965212 21.5627 0.965746 21.7188 0.998417 21.8697C1.03109 22.0206 1.09516 22.1629 1.18648 22.2874C1.27779 22.412 1.39429 22.5159 1.5284 22.5924C1.66252 22.6689 1.81124 22.7163 1.96489 22.7316C3.02215 22.8391 4.00189 23.3351 4.71432 24.1237C5.42675 24.9122 5.82117 25.9371 5.82117 26.9998C5.82117 28.0625 5.42675 29.0874 4.71432 29.8759C4.00189 30.6644 3.02215 31.1605 1.96489 31.268H1.9869Z" fill="#B6CB23"/>
<path d="M22.9979 22.5997C22.7061 22.5997 22.4263 22.7156 22.22 22.9219C22.0137 23.1282 21.8978 23.408 21.8978 23.6998V34.7003C21.8978 34.9921 22.0137 35.2719 22.22 35.4782C22.4263 35.6845 22.7061 35.8004 22.9979 35.8004H29.5982C29.8899 35.8004 30.1697 35.6845 30.376 35.4782C30.5823 35.2719 30.6982 34.9921 30.6982 34.7003V23.6998C30.6982 23.408 30.5823 23.1282 30.376 22.9219C30.1697 22.7156 29.8899 22.5997 29.5982 22.5997H22.9979ZM28.4981 33.6003H24.0979V24.7998H28.4981V33.6003ZM41.6988 34.7003V19.2996C41.6988 19.0078 41.5829 18.728 41.3766 18.5217C41.1703 18.3154 40.8905 18.1995 40.5987 18.1995H33.9984C33.7066 18.1995 33.4268 18.3154 33.2205 18.5217C33.0142 18.728 32.8983 19.0078 32.8983 19.2996V34.7003C32.8983 34.9921 33.0142 35.2719 33.2205 35.4782C33.4268 35.6845 33.7066 35.8004 33.9984 35.8004H40.5987C40.8905 35.8004 41.1703 35.6845 41.3766 35.4782C41.5829 35.2719 41.6988 34.9921 41.6988 34.7003ZM39.4987 33.6003H35.0985V20.3996H39.4987V33.6003ZM44.9989 35.8004H51.5992C51.891 35.8004 52.1708 35.6845 52.3771 35.4782C52.5834 35.2719 52.6993 34.9921 52.6993 34.7003V14.8994C52.6993 14.6076 52.5834 14.3278 52.3771 14.1215C52.1708 13.9152 51.891 13.7993 51.5992 13.7993H44.9989C44.7072 13.7993 44.4274 13.9152 44.2211 14.1215C44.0148 14.3278 43.8989 14.6076 43.8989 14.8994V34.7003C43.8989 34.9921 44.0148 35.2719 44.2211 35.4782C44.4274 35.6845 44.7072 35.8004 44.9989 35.8004ZM46.099 15.9994H50.4992V33.6003H46.099V15.9994Z" fill="#B6CB23"/>
<path d="M52.6994 11.5992H54.8995V34.7002C54.8995 34.992 55.0154 35.2718 55.2217 35.4781C55.428 35.6844 55.7078 35.8003 55.9995 35.8003H62.5999C62.8916 35.8003 63.1714 35.6844 63.3777 35.4781C63.584 35.2718 63.6999 34.992 63.6999 34.7002V11.5992H65.9C66.1043 11.5992 66.3046 11.5423 66.4783 11.4349C66.6521 11.3275 66.7926 11.1738 66.8839 10.9911C66.9753 10.8083 67.014 10.6038 66.9956 10.4003C66.9773 10.1968 66.9026 10.0025 66.78 9.83907L60.1797 1.03865C60.0773 0.902031 59.9444 0.791142 59.7917 0.714768C59.6389 0.638394 59.4705 0.598633 59.2997 0.598633C59.1289 0.598633 58.9605 0.638394 58.8077 0.714768C58.655 0.791142 58.5221 0.902031 58.4197 1.03865L51.8193 9.83907C51.6969 10.0033 51.6228 10.1984 51.6053 10.4025C51.5878 10.6066 51.6277 10.8115 51.7203 10.9941C51.8118 11.1755 51.9516 11.3281 52.1244 11.4349C52.2972 11.5417 52.4962 11.5985 52.6994 11.5992ZM59.2997 3.53577L63.6999 9.39905H62.5999C62.3081 9.39905 62.0283 9.51495 61.822 9.72125C61.6157 9.92755 61.4998 10.2073 61.4998 10.4991V33.6002H57.0996V10.4991C57.0996 10.2073 56.9837 9.92755 56.7774 9.72125C56.5711 9.51495 56.2913 9.39905 55.9995 9.39905H54.8995L59.2997 3.53577Z" fill="#B6CB23"/>
</svg>
