<svg width="96" height="100" viewBox="0 0 96 100" fill="none" xmlns="http://www.w3.org/2000/svg">
<path d="M63.1979 22.2774C60.8561 8.91821 48.1279 -0.0174182 34.7631 2.32445C21.3982 4.66632 12.468 17.3999 14.8099 30.7648C17.1518 44.124 29.8799 53.0598 43.2448 50.718C56.6097 48.3761 65.5453 35.6423 63.1979 22.2774Z" stroke="#1B4671" stroke-width="3.5" stroke-miterlimit="10" stroke-linecap="round" stroke-linejoin="round"/>
<path d="M39.0038 14.438C44.1249 14.438 48.2771 18.5903 48.2771 23.7113C48.2771 28.8326 44.1249 32.9849 39.0038 32.9849C33.8827 32.9849 29.7305 28.8326 29.7305 23.7113C29.7305 18.5903 33.8827 14.438 39.0038 14.438Z" stroke="#1B4671" stroke-width="3.5" stroke-miterlimit="10" stroke-linecap="round" stroke-linejoin="round"/>
<path d="M32.8419 30.6428C27.6267 32.8685 23.9504 38.0505 23.9504 44.0575V45.9343M54.0574 45.9343V44.0575C54.0574 38.0505 50.3813 32.8685 45.1659 30.6428M67.4166 46.4603C69.3655 43.6811 73.2354 43 76.0146 44.9489L91.3836 55.7338C94.1628 57.6827 94.8439 61.5581 92.895 64.3374C90.9406 67.1166 87.0762 67.7922 84.2914 65.8433L68.9223 55.0584C66.1432 53.1095 65.4678 49.234 67.4166 46.4603Z" stroke="#1B4671" stroke-width="3.5" stroke-miterlimit="10" stroke-linecap="round" stroke-linejoin="round"/>
<path d="M53.9301 7.01367H72.499C74.4368 7.01367 76.0145 8.59712 76.0145 10.5292V44.9488M76.0145 60.0356V94.5328C76.0145 96.4651 74.4368 98.0484 72.499 98.0484H5.50883C3.57654 98.0484 1.99329 96.4649 1.99329 94.5328V10.5294C1.99329 8.59712 3.57673 7.01387 5.50883 7.01387H24.0668M59.1121 40.6305L67.4166 46.4604" stroke="#1B4671" stroke-width="3.5" stroke-miterlimit="10" stroke-linecap="round" stroke-linejoin="round"/>
<path d="M14.439 78.3332H23.4853M32.3548 78.3332H63.5688M63.5688 88.1659H54.5224M45.653 88.1659H14.439M19.8868 59.2881H58.121V68.495H19.8868V59.2881Z" stroke="#1B4671" stroke-width="3.5" stroke-miterlimit="10" stroke-linecap="round" stroke-linejoin="round"/>
</svg>
