<svg width="64" height="64" viewBox="0 0 64 64" fill="none" xmlns="http://www.w3.org/2000/svg">
<path d="M59.9249 52.1452L46.1204 40.4652L51.7772 34.8084C52.1523 35.1835 52.661 35.3942 53.1915 35.3942C53.7219 35.3942 54.2306 35.1835 54.6057 34.8084L57.4341 31.98C57.8091 31.605 58.0198 31.0963 58.0198 30.5658C58.0198 30.0354 57.8091 29.5267 57.4341 29.1516L43.2918 15.0086C42.9168 14.6336 42.4081 14.4229 41.8776 14.4229C41.3472 14.4229 40.8385 14.6336 40.4634 15.0086L37.635 17.837C37.4493 18.0227 37.302 18.2432 37.2014 18.4859C37.1009 18.7286 37.0492 18.9887 37.0492 19.2513C37.0492 19.514 37.1009 19.7741 37.2014 20.0167C37.302 20.2594 37.4493 20.4799 37.635 20.6656L20.6646 37.636C20.4789 37.4503 20.2584 37.3029 20.0158 37.2024C19.7731 37.1019 19.513 37.0502 19.2503 37.0502C18.9877 37.0502 18.7276 37.1019 18.4849 37.2024C18.2423 37.3029 18.0218 37.4503 17.836 37.636L15.0076 40.4644C14.6326 40.8395 14.4219 41.3482 14.4219 41.8786C14.4219 42.4091 14.6326 42.9178 15.0076 43.2928L29.1498 57.435C29.5249 57.8101 30.0336 58.0208 30.564 58.0208C31.0945 58.0208 31.6032 57.8101 31.9782 57.435L34.8066 54.6066C35.1817 54.2316 35.3924 53.7229 35.3924 53.1924C35.3924 52.662 35.1817 52.1533 34.8066 51.7782L40.4634 46.1214L52.1434 59.9258C52.6369 60.508 53.2457 60.9816 53.9314 61.3166C54.6171 61.6516 55.3648 61.8408 56.1273 61.8722C56.8898 61.9037 57.6506 61.7766 58.3615 61.4991C59.0724 61.2217 59.7181 60.7998 60.2578 60.2601C60.7974 59.7205 61.2193 59.0748 61.4968 58.3639C61.7742 57.653 61.9013 56.8922 61.8699 56.1297C61.8384 55.3672 61.6493 54.6194 61.3142 53.9337C60.9792 53.248 60.5071 52.6386 59.9249 52.1452Z" fill="#1B4671"/>
<path d="M38 0H6C4.41013 0.00464322 2.8867 0.638275 1.76249 1.76249C0.638275 2.8867 0.00464322 4.41013 0 6L0 50C0.00464322 51.5899 0.638275 53.1133 1.76249 54.2375C2.8867 55.3617 4.41013 55.9954 6 56H22.06L12.18 46.12C11.6221 45.5638 11.1795 44.903 10.8775 44.1754C10.5754 43.4478 10.42 42.6678 10.42 41.88C10.42 41.0922 10.5754 40.3122 10.8775 39.5846C11.1795 38.857 11.6221 38.1962 12.18 37.64L13.8084 36H10C9.46957 36 8.96086 35.7893 8.58579 35.4142C8.21071 35.0391 8 34.5304 8 34C8 33.4696 8.21071 32.9609 8.58579 32.5858C8.96086 32.2107 9.46957 32 10 32H14C14.5304 32 15.0391 32.2107 15.4142 32.5858C15.7893 32.9609 16 33.4696 16 34L15.9986 34.007C17.0662 33.3297 18.3171 32.9989 19.58 33.06L24.8352 27.8048C24.5745 27.9304 24.2894 27.997 24 28H10C9.46957 28 8.96086 27.7893 8.58579 27.4142C8.21071 27.0391 8 26.5304 8 26C8 25.4696 8.21071 24.9609 8.58579 24.5858C8.96086 24.2107 9.46957 24 10 24H24C24.5304 24 25.0391 24.2107 25.4142 24.5858C25.7893 24.9609 26 25.4696 26 26C25.9971 26.2894 25.9303 26.5747 25.8046 26.8354L33.06 19.58C33.0177 18.7378 33.1505 17.8959 33.45 17.1076C33.7495 16.3193 34.2091 15.6017 34.8 15L37.64 12.18C38.4557 11.3636 39.4892 10.7994 40.6171 10.5547C41.7449 10.31 42.9193 10.3951 44 10.8V6C43.9954 4.41013 43.3617 2.8867 42.2375 1.76249C41.1133 0.638275 39.5899 0.00464322 38 0ZM30 20H10C9.46957 20 8.96086 19.7893 8.58579 19.4142C8.21071 19.0391 8 18.5304 8 18C8 17.4696 8.21071 16.9609 8.58579 16.5858C8.96086 16.2107 9.46957 16 10 16H30C30.5304 16 31.0391 16.2107 31.4142 16.5858C31.7893 16.9609 32 17.4696 32 18C32 18.5304 31.7893 19.0391 31.4142 19.4142C31.0391 19.7893 30.5304 20 30 20ZM34 12H10C9.46957 12 8.96086 11.7893 8.58579 11.4142C8.21071 11.0391 8 10.5304 8 10C8 9.46957 8.21071 8.96086 8.58579 8.58579C8.96086 8.21071 9.46957 8 10 8H34C34.5304 8 35.0391 8.21071 35.4142 8.58579C35.7893 8.96086 36 9.46957 36 10C36 10.5304 35.7893 11.0391 35.4142 11.4142C35.0391 11.7893 34.5304 12 34 12Z" fill="#1B4671"/>
</svg>
