<svg width="64" height="64" viewBox="0 0 64 64" fill="none" xmlns="http://www.w3.org/2000/svg">
<path d="M59.4301 6.12C58.8101 5.12 58.0301 4.25 57.1101 3.53C55.4401 2.22 53.3401 1.5 51.2101 1.5C49.0801 1.5 47.0001 2.2 45.3001 3.53C44.3701 4.26 43.5901 5.13 42.9801 6.14C42.0701 7.64 41.5801 9.37 41.5801 11.14C41.5801 16.45 45.9001 20.77 51.2101 20.77C56.5201 20.77 60.8301 16.45 60.8301 11.14C60.8301 9.36 60.3401 7.62 59.4301 6.12ZM45.8101 7.88C45.8101 6.84 46.6601 5.99 47.7101 5.99C48.7601 5.99 49.6001 6.84 49.6001 7.88C49.6001 8.92 48.7501 9.78 47.7101 9.78C46.6701 9.78 45.8101 8.93 45.8101 7.88ZM47.3901 15.66C47.3001 15.75 47.1701 15.8 47.0401 15.8C46.9101 15.8 46.7801 15.75 46.6901 15.66C46.4901 15.46 46.4901 15.15 46.6901 14.95L55.0101 6.61C55.2101 6.42 55.5201 6.42 55.7201 6.61C55.9201 6.81 55.9201 7.13 55.7201 7.32L47.3901 15.66ZM54.7001 16.28C53.6601 16.28 52.8101 15.43 52.8101 14.39C52.8101 13.35 53.6601 12.49 54.7001 12.49C55.7401 12.49 56.6001 13.34 56.6001 14.39C56.6001 15.44 55.7501 16.28 54.7001 16.28Z" fill="#1B4671"/>
<path d="M55.6005 14.39C55.6005 14.88 55.2005 15.28 54.7005 15.28C54.2005 15.28 53.8105 14.88 53.8105 14.39C53.8105 13.9 54.2105 13.49 54.7005 13.49C55.1905 13.49 55.6005 13.89 55.6005 14.39Z" fill="#1B4671"/>
<path d="M48.6005 7.87999C48.6005 8.37999 48.2005 8.77999 47.7105 8.77999C47.2205 8.77999 46.8105 8.37999 46.8105 7.87999C46.8105 7.37999 47.2105 6.98999 47.7105 6.98999C48.2105 6.98999 48.6005 7.38999 48.6005 7.87999Z" fill="#1B4671"/>
<path d="M28.8505 16.17C28.8505 19.85 25.8505 22.85 22.1705 22.85C18.4905 22.85 15.4805 19.85 15.4805 16.17C15.4805 12.49 18.4805 9.48999 22.1705 9.48999C25.8605 9.48999 28.8505 12.48 28.8505 16.17Z" fill="#1B4671"/>
<path d="M24.2399 53.57C24.2099 53.65 24.1999 53.74 24.1799 53.82C24.0099 54.45 23.8499 55.09 23.7299 55.75C23.6799 56.03 23.6299 56.32 23.5799 56.63L23.5499 56.81C23.5099 57.11 23.4699 57.42 23.4299 57.76C23.4299 57.78 23.4199 57.81 23.4199 57.84C22.6299 57.82 21.8599 57.8 21.0999 57.77C11.0499 57.24 3.16992 54.25 3.16992 50.95V48.09C3.34992 48.29 3.53992 48.49 3.75992 48.68C5.53992 50.26 8.76992 51.6 12.9899 52.47C13.0299 52.49 13.0799 52.51 13.1199 52.52C14.8999 52.88 16.7999 53.15 18.7799 53.33C19.6499 53.41 20.5499 53.47 21.4799 53.51C21.7499 53.51 22.0399 53.51 22.3099 53.53C22.9499 53.55 23.5799 53.57 24.2399 53.57Z" fill="#1B4671"/>
<path d="M54.2393 59.64C50.4193 61.46 44.9793 62.5 39.2493 62.5C33.5193 62.5 28.1093 61.46 24.2793 59.65C24.2993 59.23 24.3293 58.81 24.3693 58.39C24.4593 57.44 24.5693 56.66 24.7093 55.93C24.7993 55.46 24.8993 54.99 25.0093 54.54C25.1293 54.08 25.2493 53.64 25.3893 53.21C26.1293 50.81 27.1893 48.66 28.5693 46.8C29.2593 45.83 30.0393 44.96 30.8793 44.22C32.3493 42.88 33.9493 41.92 35.6393 41.37C36.7793 40.97 37.9693 40.77 39.2493 40.77C43.3093 40.77 47.1093 42.92 49.9593 46.82C52.4893 50.26 54.0093 54.8 54.2393 59.64Z" fill="#1B4671"/>
<path d="M36.0899 40.18C35.8299 40.25 35.5799 40.33 35.3199 40.42C33.4999 41.01 31.7799 42.04 30.2099 43.47C29.3199 44.27 28.4899 45.19 27.7599 46.21C27.4099 46.69 27.0699 47.18 26.7599 47.7C26.6699 47.85 26.5799 48.02 26.4899 48.18C26.2799 48.54 26.0699 48.9 25.8899 49.28C25.7799 49.49 25.6899 49.71 25.5899 49.93C25.4299 50.27 25.2699 50.61 25.1299 50.97C25.0299 51.2 24.9499 51.45 24.8599 51.69C24.7599 51.98 24.6399 52.27 24.5399 52.57H24.3399C22.4399 52.57 20.5999 52.49 18.8699 52.33C16.9599 52.16 15.1199 51.9 13.4099 51.56C13.3799 51.54 13.3399 51.53 13.3099 51.53C9.25992 50.7 6.09992 49.43 4.42992 47.94C3.58992 47.19 3.16992 46.43 3.16992 45.67C3.16992 43.97 5.29992 42.25 9.01992 40.95C11.5299 40.09 14.6099 39.44 17.9299 39.09C19.9999 38.87 22.1599 38.76 24.2699 38.76C24.5899 38.76 24.9099 38.76 25.2299 38.78C25.5999 38.78 25.9799 38.78 26.3499 38.8H26.3599C27.1499 38.82 27.9299 38.86 28.6899 38.91C28.9999 38.93 29.2999 38.97 29.6099 38.99C30.0499 39.03 30.4999 39.06 30.9299 39.11C31.3099 39.15 31.6699 39.2 32.0399 39.25C32.3899 39.3 32.7499 39.34 33.0899 39.39C33.4099 39.44 33.7099 39.5 34.0099 39.55C34.3899 39.62 34.7699 39.68 35.1399 39.75C35.1599 39.76 35.1799 39.77 35.2099 39.79C35.4999 39.93 35.7899 40.07 36.0899 40.18Z" fill="#1B4671"/>
<path d="M47.0409 31.98C47.0409 36.28 43.5509 39.77 39.1609 39.77C38.8609 39.77 38.5709 39.75 38.2709 39.71C38.1809 39.71 38.1009 39.68 38.0109 39.67C37.8109 39.63 37.6009 39.6 37.4109 39.55C37.3009 39.52 37.1909 39.49 37.0809 39.45C36.9109 39.4 36.7309 39.35 36.5609 39.29C36.4409 39.25 36.3309 39.19 36.2209 39.14C36.0709 39.08 35.9209 39.02 35.7709 38.94C35.7209 38.89 35.6609 38.85 35.5809 38.82C35.5509 38.81 35.5109 38.8 35.4809 38.79C35.3109 38.7 35.1609 38.6 35.0009 38.49C34.8709 38.41 34.7409 38.33 34.6109 38.24C34.4509 38.12 34.3109 37.99 34.1609 37.86C34.0509 37.76 33.9309 37.67 33.8209 37.56C33.6809 37.42 33.5509 37.27 33.4209 37.13C33.3209 37.01 33.2209 36.91 33.1309 36.79C33.0009 36.64 32.9009 36.47 32.7909 36.3C32.7109 36.18 32.6209 36.07 32.5509 35.95C32.4409 35.77 32.3609 35.59 32.2709 35.41C32.2109 35.28 32.1409 35.16 32.0809 35.03C32.0009 34.83 31.9409 34.63 31.8709 34.43C31.8309 34.31 31.7809 34.18 31.7409 34.05C31.6809 33.83 31.6409 33.59 31.6009 33.36C31.5809 33.25 31.5509 33.15 31.5309 33.03C31.4809 32.69 31.4609 32.34 31.4609 31.98C31.4609 31.14 31.5909 30.33 31.8409 29.57C32.8909 26.34 35.8709 24.18 39.2509 24.18C43.5509 24.18 47.0409 27.68 47.0409 31.98Z" fill="#1B4671"/>
<path d="M33.2506 38.4H33.2006C32.3106 38.26 31.3806 38.15 30.4406 38.06C30.1806 38.04 29.9206 38.01 29.6606 37.99C28.8506 37.92 28.0306 37.87 27.2006 37.84C27.0606 37.83 26.9206 37.82 26.7806 37.81L24.8906 29.06L27.0306 26.76C28.4006 27.41 29.6906 28.36 30.8006 29.54C30.7406 29.77 30.7006 30 30.6506 30.24C30.6206 30.38 30.5806 30.51 30.5606 30.66C30.5006 31.09 30.4606 31.53 30.4606 31.98C30.4606 32.35 30.4906 32.71 30.5306 33.06C30.5506 33.17 30.5706 33.27 30.5806 33.38C30.6206 33.64 30.6806 33.89 30.7406 34.14C30.7706 34.25 30.7906 34.35 30.8206 34.46C30.9106 34.75 31.0106 35.03 31.1206 35.31C31.1406 35.36 31.1606 35.41 31.1806 35.46C31.3206 35.78 31.4806 36.1 31.6606 36.4C31.7106 36.48 31.7606 36.56 31.8106 36.65C31.9506 36.87 32.1006 37.08 32.2506 37.29C32.3206 37.38 32.3906 37.47 32.4706 37.56C32.6406 37.77 32.8206 37.97 33.0106 38.16C33.0706 38.22 33.1306 38.29 33.1906 38.34L33.2506 38.4Z" fill="#1B4671"/>
<path d="M25.7498 37.78C25.6298 37.77 25.5098 37.78 25.3898 37.78C23.2498 37.74 21.0298 37.82 18.8798 38.01C18.7598 38.01 18.6298 38.01 18.5098 38.03L20.3798 29.41H23.9398L25.7498 37.78Z" fill="#1B4671"/>
<path d="M19.4291 29.06L17.4691 38.14C16.8391 38.21 16.2291 38.29 15.6191 38.39C15.5191 38.39 15.4091 38.41 15.2991 38.43C14.5391 38.55 13.7891 38.68 13.0691 38.83C12.8491 38.88 12.6391 38.93 12.4191 38.98C11.9191 39.09 11.4291 39.2 10.9591 39.33C10.6991 39.4 10.4591 39.47 10.2091 39.54C9.92914 39.62 9.63914 39.69 9.36914 39.78C9.63914 34.07 12.7491 28.94 17.2791 26.76L19.4291 29.06Z" fill="#1B4671"/>
<path d="M26.0595 26.34L24.1295 28.41H20.1895L18.2695 26.34C20.8095 25.4 23.5895 25.41 26.0595 26.34Z" fill="#1B4671"/>
</svg>
