<svg width="64" height="64" viewBox="0 0 64 64" fill="none" xmlns="http://www.w3.org/2000/svg">
<path d="M18.5 50.9999C19.8807 50.9999 21 49.8807 21 48.4999C21 47.1192 19.8807 45.9999 18.5 45.9999C17.1193 45.9999 16 47.1192 16 48.4999C16 49.8807 17.1193 50.9999 18.5 50.9999Z" fill="#1B4671"/>
<path d="M18.5 19.0001C19.8807 19.0001 21 17.8808 21 16.5001C21 15.1193 19.8807 14.0001 18.5 14.0001C17.1193 14.0001 16 15.1193 16 16.5001C16 17.8808 17.1193 19.0001 18.5 19.0001Z" fill="#1B4671"/>
<path d="M18.5 35C19.8807 35 21 33.8807 21 32.5C21 31.1193 19.8807 30 18.5 30C17.1193 30 16 31.1193 16 32.5C16 33.8807 17.1193 35 18.5 35Z" fill="#1B4671"/>
<path d="M52.5 3H12.5C9.4668 3 7 5.4668 7 8.5V56.5C7 59.5332 9.4668 62 12.5 62H52.5C55.5332 62 58 59.5332 58 56.5V8.5C58 5.4668 55.5332 3 52.5 3ZM24 32.5C24 35.0098 22.3013 37.1082 20 37.7659V43.2341C22.3013 43.8918 24 45.9902 24 48.5C24 51.5332 21.5332 54 18.5 54C15.4668 54 13 51.5332 13 48.5C13 45.9902 14.6987 43.8918 17 43.2341V37.7659C14.6987 37.1081 13 35.0098 13 32.5C13 29.9902 14.6987 27.8918 17 27.2341V21.7659C14.6987 21.1082 13 19.0098 13 16.5C13 13.4668 15.4668 11 18.5 11C21.5332 11 24 13.4668 24 16.5C24 19.0098 22.3013 21.1082 20 21.7659V27.2341C22.3013 27.8918 24 29.9902 24 32.5ZM42.5 50H30.5C29.6719 50 29 49.3281 29 48.5C29 47.6719 29.6719 47 30.5 47H42.5C43.3281 47 44 47.6719 44 48.5C44 49.3281 43.3281 50 42.5 50ZM29 38.5C29 37.6719 29.6719 37 30.5 37H40.5C41.3281 37 42 37.6719 42 38.5C42 39.3281 41.3281 40 40.5 40H30.5C29.6719 40 29 39.3281 29 38.5ZM48.5 50C47.6716 50 47 49.3284 47 48.5C47 47.6715 47.6716 47 48.5 47C49.3284 47 50 47.6715 50 48.5C50 49.3284 49.3284 50 48.5 50ZM48.5 34H30.5C29.6719 34 29 33.3281 29 32.5C29 31.6719 29.6719 31 30.5 31H48.5C49.3281 31 50 31.6719 50 32.5C50 33.3281 49.3281 34 48.5 34ZM29 22.5C29 21.6719 29.6719 21 30.5 21H34.5C35.3281 21 36 21.6719 36 22.5C36 23.3281 35.3281 24 34.5 24H30.5C29.6719 24 29 23.3281 29 22.5ZM39 22.5C39 21.6719 39.6719 21 40.5 21H44.5C45.3281 21 46 21.6719 46 22.5C46 23.3281 45.3281 24 44.5 24H40.5C39.6719 24 39 23.3281 39 22.5ZM48.5 18H30.5C29.6719 18 29 17.3281 29 16.5C29 15.6719 29.6719 15 30.5 15H48.5C49.3281 15 50 15.6719 50 16.5C50 17.3281 49.3281 18 48.5 18Z" fill="#1B4671"/>
</svg>
