<svg width="64" height="64" viewBox="0 0 64 64" fill="none" xmlns="http://www.w3.org/2000/svg">
<g clip-path="url(#clip0_858_2075)">
<path d="M37.625 50.25H26.375C24.3073 50.25 22.625 51.9323 22.625 54V60.25C22.625 62.3177 24.3073 64 26.375 64H37.625C39.6927 64 41.375 62.3177 41.375 60.25V54C41.375 51.9323 39.6927 50.25 37.625 50.25Z" fill="#1B4671"/>
<path d="M60.25 50.25H49C46.9323 50.25 45.25 51.9323 45.25 54V60.25C45.25 62.3177 46.9323 64 49 64H60.25C62.3177 64 64 62.3177 64 60.25V54C64 51.9323 62.3177 50.25 60.25 50.25Z" fill="#1B4671"/>
<path d="M15 50.25H3.75C1.68225 50.25 0 51.9323 0 54V60.25C0 62.3177 1.68225 64 3.75 64H15C17.0677 64 18.75 62.3177 18.75 60.25V54C18.75 51.9323 17.0677 50.25 15 50.25Z" fill="#1B4671"/>
<path d="M16.593 20.1899L20.343 26.6851C20.7731 27.4303 21.6553 27.787 22.4825 27.5504L25.1123 26.7981C25.327 26.9305 25.5455 27.0567 25.7674 27.1766L26.4306 29.8299C26.6393 30.6644 27.3893 31.25 28.2496 31.25H35.7496C36.61 31.25 37.36 30.6644 37.5686 29.8298L38.2319 27.1765C38.4538 27.0568 38.6724 26.9304 38.887 26.798L41.5169 27.5502C42.3441 27.7869 43.2261 27.4301 43.6564 26.685L47.4064 20.1898C47.8366 19.4446 47.7045 18.5024 47.0859 17.9042L45.1181 16.0016C45.1253 15.7505 45.1253 15.499 45.1181 15.248L47.0859 13.3454C47.7044 12.7474 47.8366 11.805 47.4064 11.0599L43.6564 4.56462C43.2263 3.8195 42.3441 3.46287 41.5169 3.69937L38.8871 4.452C38.6725 4.31962 38.4539 4.19338 38.232 4.0735L37.5688 1.42025C37.36 0.585625 36.61 0 35.7496 0H28.2496C27.3893 0 26.6393 0.585625 26.4306 1.42025L25.7674 4.0735C25.5455 4.19325 25.327 4.31962 25.1123 4.452L22.4825 3.69975C21.6553 3.46312 20.7733 3.81988 20.343 4.565L16.593 11.0603C16.1629 11.8054 16.295 12.7476 16.9135 13.3456L18.8811 15.2481C18.874 15.4993 18.874 15.7507 18.8811 16.0019L16.9135 17.9044C16.295 18.5025 16.1629 19.4447 16.593 20.1899ZM31.9996 10C35.1013 10 37.6246 12.5234 37.6246 15.625C37.6246 18.7266 35.1013 21.25 31.9996 21.25C28.898 21.25 26.3746 18.7266 26.3746 15.625C26.3746 12.5234 28.898 10 31.9996 10Z" fill="#1B4671"/>
<path d="M11.25 44.625C11.25 42.9019 12.6519 41.5 14.375 41.5H30.125V46.5H33.875V41.5H49.625C51.3481 41.5 52.75 42.9019 52.75 44.625V46.5H56.5V44.625C56.5 40.8341 53.4159 37.75 49.625 37.75H33.875V35H30.125V37.75H14.375C10.5841 37.75 7.5 40.8341 7.5 44.625V46.5H11.25V44.625Z" fill="#1B4671"/>
</g>
<defs>
<clipPath id="clip0_858_2075">
<rect width="64" height="64" fill="white"/>
</clipPath>
</defs>
</svg>
