<svg width="64" height="64" viewBox="0 0 64 64" fill="none" xmlns="http://www.w3.org/2000/svg">
<path d="M19.0309 5.36426C11.6583 5.36426 5.66016 11.3624 5.66016 18.735C5.66016 26.1076 11.6583 32.1058 19.0309 32.1058C26.4035 32.1058 32.4018 26.1078 32.4018 18.735C32.4018 11.3623 26.4037 5.36426 19.0309 5.36426ZM24.4783 14.7734C24.4783 15.3204 24.0349 15.7638 23.4879 15.7638C22.9409 15.7638 22.4975 15.3204 22.4975 14.7734V13.783C22.4975 13.237 22.0533 12.7926 21.5072 12.7926H16.555C16.0089 12.7926 15.5647 13.237 15.5647 13.783V16.2591C15.5647 17.0784 16.2312 17.7448 17.0503 17.7448H21.012C22.9234 17.7448 24.4785 19.2998 24.4785 21.2113V23.6874C24.4785 25.3258 23.1457 26.6586 21.5073 26.6586H20.0217V28.1443C20.0217 28.6913 19.5783 29.1346 19.0313 29.1346C18.4843 29.1346 18.0409 28.6913 18.0409 28.1443V26.6586H16.5553C14.9169 26.6586 13.584 25.3256 13.584 23.6874V22.697C13.584 22.15 14.0274 21.7066 14.5744 21.7066C15.1214 21.7066 15.5648 22.15 15.5648 22.697V23.6874C15.5648 24.2334 16.009 24.6778 16.5552 24.6778H21.5073C22.0534 24.6778 22.4977 24.2334 22.4977 23.6874V21.2113C22.4977 20.392 21.8312 19.7256 21.012 19.7256H17.0503C15.1389 19.7256 13.5838 18.1706 13.5838 16.2591V13.783C13.5838 12.1446 14.9167 10.8118 16.555 10.8118H18.0407V9.32601C18.0407 8.77901 18.484 8.33563 19.031 8.33563C19.578 8.33563 20.0214 8.77901 20.0214 9.32601V10.8116H21.507C23.1454 10.8116 24.4783 12.1446 24.4783 13.7829V14.7734Z" fill="#1B4671"/>
<path d="M27.449 46.4671H19.5255C18.9794 46.4671 18.5352 46.9115 18.5352 47.4575V62.314H28.4394V47.4575C28.4394 46.9115 27.9952 46.4671 27.449 46.4671Z" fill="#1B4671"/>
<path d="M43.7908 39.0389H35.8673C35.3212 39.0389 34.877 39.4833 34.877 40.0293V62.3139H44.7812V40.0293C44.7812 39.4833 44.337 39.0389 43.7908 39.0389Z" fill="#1B4671"/>
<path d="M60.1326 24.6776H52.2091C51.6621 24.6776 51.2188 25.121 51.2188 25.668V62.3139H60.6279C60.9014 62.3139 61.1231 62.0921 61.1231 61.8186V25.668C61.1231 25.121 60.6796 24.6776 60.1326 24.6776Z" fill="#1B4671"/>
<path d="M12.0976 62.314V50.4287C12.0976 49.8817 11.6542 49.4384 11.1072 49.4384H3.18373C2.63673 49.4384 2.19336 49.8817 2.19336 50.4287V61.8187C2.19336 62.0922 2.41511 62.314 2.68861 62.314H12.0976Z" fill="#1B4671"/>
<path d="M60.2382 2.39413C60.2318 2.37988 60.2179 2.34938 60.211 2.33625C60.2044 2.32338 60.1972 2.31088 60.1898 2.2985L60.1812 2.28363C60.1716 2.2665 60.1618 2.2495 60.1513 2.23338C60.1458 2.225 60.14 2.21675 60.1314 2.20525C60.1157 2.18238 60.0998 2.15963 60.0821 2.13725L60.065 2.1175C60.046 2.09488 60.0268 2.07238 60.0064 2.05113C59.9984 2.043 59.9902 2.03525 59.9817 2.0275L59.9703 2.01675C59.9547 2.00163 59.939 1.98675 59.9224 1.9725C59.9084 1.96063 59.8937 1.94938 59.8788 1.93838L59.8637 1.92675C59.8529 1.91838 59.8422 1.90988 59.8311 1.90213C59.8157 1.89138 59.7995 1.88138 59.7833 1.87163L59.7663 1.861C59.7549 1.85388 59.7437 1.84663 59.7314 1.83988C59.7182 1.83238 59.7045 1.82563 59.6908 1.81888L59.6679 1.8075C59.6537 1.80038 59.6394 1.79325 59.6239 1.7865C59.6125 1.7815 59.6009 1.777 59.5892 1.7725C59.5693 1.76475 59.5322 1.75063 59.5183 1.74625L59.5002 1.73988C59.4904 1.737 59.4807 1.7345 59.4662 1.73088C59.4429 1.72438 59.4197 1.718 59.3933 1.71238L59.3465 1.704C59.3246 1.70013 59.3026 1.6965 59.2788 1.69375C59.2609 1.69163 59.2429 1.69038 59.2261 1.68938C59.2048 1.68788 59.1837 1.68663 59.1627 1.68613C59.1432 1.686 59.1237 1.68625 59.1047 1.687C59.0853 1.68775 59.0659 1.68838 59.0452 1.68988C59.0249 1.6915 59.0049 1.694 58.9847 1.69675C58.9662 1.69925 58.9478 1.70175 58.9308 1.70488C58.9088 1.70863 58.887 1.71375 58.8608 1.72C58.8454 1.72363 58.8301 1.72738 58.8142 1.73175C58.7925 1.738 58.7713 1.74513 58.7418 1.75525C58.7323 1.75813 58.7227 1.76113 58.7123 1.76525L49.1381 5.4335C48.5188 5.67075 48.208 6.36775 48.4453 6.987C48.6826 7.606 49.3791 7.91675 49.9987 7.67963L57.1166 4.95263C55.8007 8.1745 51.4937 17.3209 42.0482 26.184C30.9043 36.6409 16.7627 42.5115 1.15267 43.1608C0.490174 43.1884 -0.0264511 43.7499 0.0010489 44.4125C0.0279239 45.0589 0.555424 45.5651 1.20192 45.5651C1.21855 45.5651 1.2353 45.5649 1.25267 45.5641C10.048 45.1981 18.3663 43.2694 25.9763 39.8311C32.4304 36.9151 38.3917 32.9138 43.6943 27.9379C50.3167 21.7239 56.0664 13.6723 59.1618 6.299L61.6742 12.8566C61.8513 13.3189 62.3027 13.6293 62.7974 13.6293C62.9445 13.6293 63.0892 13.6024 63.2276 13.5494C63.8468 13.3121 64.1575 12.6151 63.9203 11.9959L60.2659 2.45775L60.2658 2.45788L60.2612 2.44688C60.2542 2.42888 60.2462 2.4115 60.2382 2.39413Z" fill="#1B4671"/>
</svg>
