<svg width="64" height="58" viewBox="0 0 64 58" fill="none" xmlns="http://www.w3.org/2000/svg">
<path fill-rule="evenodd" clip-rule="evenodd" d="M51.389 19.0508C50.0475 16.0515 48.1284 13.3584 45.7721 11.1157L51.0363 5.8192H55.5677C55.9505 7.77476 57.6775 9.25537 59.7437 9.25537C62.0904 9.25537 64 7.34745 64 5.00269C64 2.65793 62.0904 0.75 59.7437 0.75C57.6775 0.75 55.9491 2.23062 55.5677 4.18617H50.6958C50.4779 4.18617 50.2695 4.27326 50.1156 4.42704L44.5503 10.027C43.0548 8.77771 41.4109 7.69719 39.6484 6.81943C36.1562 5.08026 32.3943 4.19842 28.4703 4.19842C28.0195 4.19842 27.6531 4.56449 27.6531 5.01493V15.1656C27.6531 15.616 28.0195 15.9821 28.4703 15.9821C35.8034 15.9821 41.7705 21.9427 41.7705 29.2709C41.7705 29.7227 42.1368 30.0874 42.5877 30.0874H52.747C53.1978 30.0874 53.5642 29.7213 53.5642 29.2709C53.5628 25.7136 52.8314 22.2747 51.389 19.0508ZM18.3437 37.8457V30.8658H16.2353V37.8457H18.3437ZM24.4973 37.8457V27.5358H22.3889V37.8457H24.4973ZM30.6509 37.8457H28.5425V23.8833H30.6509V37.8457ZM38.3559 35.392H46.8889C46.4667 47.6697 36.5485 57.5768 24.2603 58V49.4756C31.8468 49.0632 37.9445 42.9707 38.3559 35.392ZM22.6259 49.4742V57.9986C10.3391 57.5754 0.422226 47.6684 0 35.3907H8.5317C8.94303 42.9707 15.0408 49.0632 22.6259 49.4742ZM22.6259 19.6755C15.0394 20.0865 8.94303 26.179 8.5317 33.7576H0C0.423589 21.4813 10.3391 11.5716 22.6259 11.1483V19.6755ZM13.3178 38.6513C12.867 38.6513 12.5006 39.0174 12.5006 39.4678C12.5006 39.9196 12.867 40.2843 13.3178 40.2843H33.5697C34.0206 40.2843 34.3869 39.9183 34.3869 39.4678C34.3869 39.0174 34.0206 38.6513 33.5697 38.6513C26.8182 38.6513 20.068 38.6513 13.3178 38.6513Z" fill="#1B4671"/>
</svg>
