<svg width="64" height="64" viewBox="0 0 64 64" fill="none" xmlns="http://www.w3.org/2000/svg">
<g clip-path="url(#clip0_858_2070)">
<path d="M56.0361 44.5283L64.0004 36.5645L56.0361 28.6001L57.3193 27.3169C59.5395 25.0967 59.5395 21.4844 57.3198 19.2642C56.2441 18.189 54.8139 17.5967 53.2929 17.5967C51.7724 17.5967 50.3422 18.189 49.2671 19.2642L47.9839 20.5474L40.0195 12.5831L37.6694 14.9337V18.6485C41.8266 19.6392 44.9277 23.3848 44.9277 27.8409C44.9277 32.2974 41.8266 36.043 37.6694 37.0332V48.5522H30.7749L29.4004 49.9267L40.0195 60.5454L47.9839 52.581L49.0898 53.6875C51.31 55.9077 54.9223 55.9077 57.1425 53.6875C59.3627 51.4673 59.3627 47.855 57.1425 45.6348L56.0361 44.5283Z" fill="#1B4671"/>
<path d="M33.9145 44.7983V33.5352H35.4784C38.6186 33.5352 41.1728 30.981 41.1728 27.8408C41.1728 24.7012 38.6186 22.147 35.4784 22.147H33.9145V10.8838H22.6513V9.06939C22.6513 5.92926 20.0971 3.37506 16.957 3.37506C13.8174 3.37506 11.2632 5.92926 11.2632 9.06939V10.8838H0V22.147H1.56445C4.31933 22.147 6.62303 24.1133 7.14647 26.7163C7.37352 27.0337 7.50877 27.4214 7.50877 27.8408C7.50877 28.2603 7.37352 28.648 7.14647 28.9658C6.62303 31.5684 4.31933 33.5352 1.56445 33.5352H0V44.7983H11.2632V42.9834C11.2632 39.8437 13.8174 37.2895 16.957 37.2895C20.0971 37.2895 22.6513 39.8437 22.6513 42.9834V44.7983H33.9145Z" fill="#1B4671"/>
</g>
<defs>
<clipPath id="clip0_858_2070">
<rect width="64" height="64" fill="white"/>
</clipPath>
</defs>
</svg>
